<svg version="1.1" id="Layer_1" xmlns="http://www.w3.org/2000/svg" xmlns:xlink="http://www.w3.org/1999/xlink" x="0px" y="0px"
	 width="100%" viewBox="0 0 225 225" enable-background="new 0 0 225 225" xml:space="preserve">
<path fill="#FEFEFE" opacity="1.000000" stroke="none" 
	d="
M226.000000,82.000000 
	C226.000000,130.333328 226.000000,178.166672 226.000000,226.000000 
	C151.000000,226.000000 76.000000,226.000000 1.000000,226.000000 
	C1.000000,151.000000 1.000000,76.000000 1.000000,1.000000 
	C76.000000,1.000000 151.000000,1.000000 226.000000,1.000000 
	C226.000000,27.833334 226.000000,54.666668 226.000000,82.000000 
M108.203827,8.058246 
	C105.248482,8.359835 102.268028,8.508727 99.342201,8.989832 
	C87.591949,10.921976 75.998207,13.385023 65.047569,20.006214 
	C26.900068,38.249050 3.742219,81.982239 8.883860,126.070381 
	C15.749385,184.940338 70.740448,226.896820 129.200455,217.868240 
	C206.775177,205.887589 244.721481,117.028893 199.615585,52.704441 
	C189.727066,38.602669 177.271622,27.213684 160.938644,19.375355 
	C146.537704,11.905034 131.234863,8.131723 114.305580,8.308797 
	C112.556885,8.268543 110.808182,8.228290 108.203827,8.058246 
z"/>
<path fill="#3A2874" opacity="1.000000" stroke="none" 
	d="
M161.384018,19.978649 
	C177.271622,27.213684 189.727066,38.602669 199.615585,52.704441 
	C244.721481,117.028893 206.775177,205.887589 129.200455,217.868240 
	C70.740448,226.896820 15.749385,184.940338 8.883860,126.070381 
	C3.742219,81.982239 26.900068,38.249050 65.473473,20.331657 
	C68.322090,25.761269 70.744812,30.865435 72.802429,36.007996 
	C63.564068,41.252296 55.374084,47.172276 48.394680,54.947998 
	C29.041124,76.509697 22.082640,101.889236 27.403332,129.720734 
	C33.587078,162.066681 53.232964,184.355255 84.166412,196.097641 
	C97.738312,201.249557 111.833862,201.994186 126.279472,200.130310 
	C145.894730,197.599426 162.267578,188.661530 175.992157,175.120667 
	C183.847778,167.370209 190.001083,158.062088 194.338364,147.565735 
	C201.286560,130.750946 202.676071,113.562073 199.409103,95.893723 
	C196.921539,82.440437 191.206314,70.290039 182.712967,59.631004 
	C174.827118,49.734348 165.585876,41.270802 153.921234,35.614475 
	C156.459351,30.165607 158.921677,25.072128 161.384018,19.978649 
z"/>
<path fill="#EF5A9E" opacity="1.000000" stroke="none" 
	d="
M161.161331,19.677002 
	C158.921677,25.072128 156.459351,30.165607 153.645859,35.812462 
	C149.855576,43.431499 146.416458,50.497166 142.724335,57.777473 
	C141.651215,59.510616 140.831116,61.029114 139.558655,62.672455 
	C121.974831,62.706657 104.843369,62.616020 87.749962,62.180267 
	C88.190514,60.311386 88.593010,58.787613 89.298195,57.073605 
	C98.068062,40.645241 106.535240,24.407120 115.002419,8.168996 
	C131.234863,8.131723 146.537704,11.905034 161.161331,19.677002 
z"/>
<path fill="#D34A90" opacity="1.000000" stroke="none" 
	d="
M73.167526,35.969601 
	C70.744812,30.865435 68.322090,25.761269 65.819313,20.289341 
	C75.998207,13.385023 87.591949,10.921976 99.342201,8.989832 
	C102.268028,8.508727 105.248482,8.359835 108.608849,8.482369 
	C108.648216,9.805475 108.344154,10.735602 107.907738,11.598808 
	C100.230400,26.784197 92.536903,41.961422 84.707527,57.203827 
	C84.369019,57.343254 84.168701,57.346569 83.818443,56.896217 
	C80.168976,49.666702 76.668251,42.818153 73.167526,35.969601 
z"/>
<path fill="#AB2B76" opacity="1.000000" stroke="none" 
	d="
M84.846901,57.140411 
	C92.536903,41.961422 100.230400,26.784197 107.907738,11.598808 
	C108.344154,10.735602 108.648216,9.805475 109.036682,8.547264 
	C110.808182,8.228290 112.556885,8.268543 114.653999,8.238896 
	C106.535240,24.407120 98.068062,40.645241 88.880119,57.062096 
	C87.055206,57.207352 85.951050,57.173882 84.846901,57.140411 
z"/>
<path fill="#483180" opacity="1.000000" stroke="none" 
	d="
M72.802429,36.007996 
	C76.668251,42.818153 80.168976,49.666702 83.467155,57.086891 
	C81.580872,59.868183 78.458603,62.168842 78.591133,64.263588 
	C78.743950,66.679039 81.769569,68.912750 83.576599,71.528687 
	C83.712509,72.224091 83.819458,72.616180 83.823959,73.451408 
	C83.770294,76.910210 83.819061,79.925888 83.652939,83.194832 
	C81.327515,85.061020 79.162239,86.607613 77.114998,88.297226 
	C59.138939,103.133133 51.750332,122.271729 55.554268,145.109497 
	C59.591522,169.348022 78.877930,188.161087 102.899490,192.659607 
	C126.292007,197.040329 150.834396,186.163406 163.524643,165.791168 
	C176.403885,145.115524 175.514023,118.795174 160.409683,99.318192 
	C155.603287,93.120354 148.943726,88.359657 143.212692,82.497253 
	C143.220032,79.038200 143.146820,76.023239 143.169571,72.718613 
	C143.327713,72.027969 143.389877,71.626991 143.765869,71.107719 
	C150.613358,66.342598 150.174271,60.994507 142.977356,57.562828 
	C146.416458,50.497166 149.855576,43.431499 153.570068,36.167850 
	C165.585876,41.270802 174.827118,49.734348 182.712967,59.631004 
	C191.206314,70.290039 196.921539,82.440437 199.409103,95.893723 
	C202.676071,113.562073 201.286560,130.750946 194.338364,147.565735 
	C190.001083,158.062088 183.847778,167.370209 175.992157,175.120667 
	C162.267578,188.661530 145.894730,197.599426 126.279472,200.130310 
	C111.833862,201.994186 97.738312,201.249557 84.166412,196.097641 
	C53.232964,184.355255 33.587078,162.066681 27.403332,129.720734 
	C22.082640,101.889236 29.041124,76.509697 48.394680,54.947998 
	C55.374084,47.172276 63.564068,41.252296 72.802429,36.007996 
z"/>
<path fill="#FBDA3B" opacity="1.000000" stroke="none" 
	d="
M142.724335,57.777473 
	C150.174271,60.994507 150.613358,66.342598 143.265396,71.047882 
	C122.816620,71.146034 103.182137,71.185707 83.547646,71.225388 
	C81.769569,68.912750 78.743950,66.679039 78.591133,64.263588 
	C78.458603,62.168842 81.580872,59.868183 83.615898,57.467857 
	C84.168701,57.346569 84.369019,57.343254 84.707527,57.203827 
	C85.951050,57.173882 87.055206,57.207352 88.577431,57.252335 
	C88.593010,58.787613 88.190514,60.311386 87.362778,62.271076 
	C85.953300,63.324577 84.969078,63.942162 83.984848,64.559746 
	C85.214195,65.052582 86.441200,65.967751 87.673233,65.974556 
	C104.726089,66.068787 121.779755,66.065170 138.832779,65.988060 
	C140.218475,65.981796 141.600937,65.263954 142.984909,64.876762 
	C142.965897,64.505692 142.946884,64.134613 142.927887,63.763538 
	C141.955597,63.358231 140.983307,62.952923 140.011017,62.547615 
	C140.831116,61.029114 141.651215,59.510616 142.724335,57.777473 
z"/>
<path fill="#422C7F" opacity="1.000000" stroke="none" 
	d="
M139.558655,62.672455 
	C140.983307,62.952923 141.955597,63.358231 142.927887,63.763538 
	C142.946884,64.134613 142.965897,64.505692 142.984909,64.876762 
	C141.600937,65.263954 140.218475,65.981796 138.832779,65.988060 
	C121.779755,66.065170 104.726089,66.068787 87.673233,65.974556 
	C86.441200,65.967751 85.214195,65.052582 83.984848,64.559746 
	C84.969078,63.942162 85.953300,63.324577 87.324722,62.616188 
	C104.843369,62.616020 121.974831,62.706657 139.558655,62.672455 
z"/>
<path fill="#FCDB3A" opacity="1.000000" stroke="none" 
	d="
M143.132141,82.941338 
	C148.943726,88.359657 155.603287,93.120354 160.409683,99.318192 
	C175.514023,118.795174 176.403885,145.115524 163.524643,165.791168 
	C150.834396,186.163406 126.292007,197.040329 102.899490,192.659607 
	C78.877930,188.161087 59.591522,169.348022 55.554268,145.109497 
	C51.750332,122.271729 59.138939,103.133133 77.114998,88.297226 
	C79.162239,86.607613 81.327515,85.061020 84.025482,83.180489 
	C85.381256,82.619385 86.179359,82.386108 86.913528,82.023422 
	C98.524261,76.287605 110.747154,74.307083 123.411369,77.005341 
	C130.102783,78.431030 136.565933,80.928024 143.132141,82.941338 
M141.001022,97.003426 
	C141.001022,97.003426 141.020065,96.991570 140.963074,96.282990 
	C140.047440,95.397491 139.268097,94.273369 138.196335,93.661240 
	C108.288994,76.580238 72.110435,93.200844 66.384964,127.108910 
	C65.310600,133.471664 67.379311,140.365128 67.998230,147.811798 
	C68.197113,148.946777 68.229042,150.142929 68.619270,151.207779 
	C78.442505,178.012894 110.492615,190.316986 136.763138,176.303375 
	C165.067734,161.204712 170.929733,117.937759 142.660736,97.468346 
	C142.107422,97.306038 141.554123,97.143723 141.001022,97.003426 
z"/>
<path fill="#FEC732" opacity="1.000000" stroke="none" 
	d="
M143.212692,82.497253 
	C136.565933,80.928024 130.102783,78.431030 123.411369,77.005341 
	C110.747154,74.307083 98.524261,76.287605 86.913528,82.023422 
	C86.179359,82.386108 85.381256,82.619385 84.240364,82.927216 
	C83.819061,79.925888 83.770294,76.910210 84.298508,73.450241 
	C104.274864,73.006714 123.674232,73.007492 143.073608,73.008278 
	C143.146820,76.023239 143.220032,79.038200 143.212692,82.497253 
z"/>
<path fill="#F9AD4C" opacity="1.000000" stroke="none" 
	d="
M143.169571,72.718613 
	C123.674232,73.007492 104.274864,73.006714 84.400940,73.007111 
	C83.819458,72.616180 83.712509,72.224091 83.576599,71.528687 
	C103.182137,71.185707 122.816620,71.146034 142.951569,71.166183 
	C143.389877,71.626991 143.327713,72.027969 143.169571,72.718613 
z"/>
<path fill="#FEC632" opacity="1.000000" stroke="none" 
	d="
M142.973236,97.970612 
	C170.929733,117.937759 165.067734,161.204712 136.763138,176.303375 
	C110.492615,190.316986 78.442505,178.012894 68.619270,151.207779 
	C68.229042,150.142929 68.197113,148.946777 67.997398,146.970062 
	C67.687050,143.004822 66.827461,139.820007 67.167519,136.768906 
	C68.355202,126.112610 70.833847,115.857246 78.260132,107.496307 
	C89.875702,94.418816 104.154144,87.916092 121.690857,90.913101 
	C128.287521,92.040466 134.585770,94.914062 141.020065,96.991570 
	C141.020065,96.991570 141.001022,97.003426 141.158234,97.243668 
	C141.868042,97.646149 142.420639,97.808380 142.973236,97.970612 
M143.524796,109.018867 
	C139.343063,105.521645 135.674728,100.867004 130.884293,98.742073 
	C115.927788,92.107666 97.570534,93.981567 84.482292,107.691811 
	C70.282814,122.566086 70.202217,148.082092 85.524910,162.809113 
	C101.793579,178.445358 125.705132,178.106583 141.564636,162.720428 
	C155.650574,149.054932 157.703110,125.088799 143.524796,109.018867 
z"/>
<path fill="#FAAA4C" opacity="1.000000" stroke="none" 
	d="
M140.991577,96.637283 
	C134.585770,94.914062 128.287521,92.040466 121.690857,90.913101 
	C104.154144,87.916092 89.875702,94.418816 78.260132,107.496307 
	C70.833847,115.857246 68.355202,126.112610 67.167519,136.768906 
	C66.827461,139.820007 67.687050,143.004822 67.997086,146.571014 
	C67.379311,140.365128 65.310600,133.471664 66.384964,127.108910 
	C72.110435,93.200844 108.288994,76.580238 138.196335,93.661240 
	C139.268097,94.273369 140.047440,95.397491 140.991577,96.637283 
z"/>
<path fill="#FAAA4C" opacity="1.000000" stroke="none" 
	d="
M142.816986,97.719482 
	C142.420639,97.808380 141.868042,97.646149 141.158127,97.232666 
	C141.554123,97.143723 142.107422,97.306038 142.816986,97.719482 
z"/>
<path fill="#FFDE3A" opacity="1.000000" stroke="none" 
	d="
M143.775726,109.272369 
	C157.703110,125.088799 155.650574,149.054932 141.564636,162.720428 
	C125.705132,178.106583 101.793579,178.445358 85.524910,162.809113 
	C70.202217,148.082092 70.282814,122.566086 84.482292,107.691811 
	C97.570534,93.981567 115.927788,92.107666 130.884293,98.742073 
	C135.674728,100.867004 139.343063,105.521645 143.775726,109.272369 
M103.828529,123.813644 
	C101.035332,124.205315 98.208374,124.442474 95.460800,125.042923 
	C93.624603,125.444214 91.901321,126.362183 90.127510,127.048935 
	C91.105980,128.805023 91.658119,131.159607 93.137054,132.213135 
	C99.389595,136.667191 101.201233,142.230209 98.468018,149.347046 
	C98.408913,149.500946 98.335648,149.677780 98.358582,149.830460 
	C98.612404,151.520081 98.883980,153.207062 99.150749,154.894745 
	C100.701439,154.641357 102.298225,154.539917 103.788628,154.087799 
	C105.039925,153.708206 106.275299,153.066177 107.330383,152.286743 
	C111.466507,149.231216 115.512833,149.219086 119.671021,152.241364 
	C120.732620,153.012955 121.972214,153.638931 123.224678,154.023727 
	C124.821060,154.514206 126.513596,154.691742 128.164688,155.004166 
	C128.372574,153.268463 129.201645,151.315979 128.684280,149.833344 
	C125.976807,142.074463 128.087296,136.129913 134.752502,131.586227 
	C135.158813,131.309250 135.512329,130.931656 135.828766,130.549789 
	C138.211578,127.674095 137.478699,125.206909 133.741837,125.272667 
	C124.594116,125.433632 118.849724,121.580475 116.373207,112.711182 
	C116.082230,111.669098 114.506516,110.121574 113.798645,110.254814 
	C112.623543,110.475990 111.369431,111.686180 110.677963,112.806511 
	C108.516403,116.308708 106.602478,119.963753 103.828529,123.813644 
z"/>
<path fill="#FFFEFA" opacity="1.000000" stroke="none" 
	d="
M104.210556,123.686600 
	C106.602478,119.963753 108.516403,116.308708 110.677963,112.806511 
	C111.369431,111.686180 112.623543,110.475990 113.798645,110.254814 
	C114.506516,110.121574 116.082230,111.669098 116.373207,112.711182 
	C118.849724,121.580475 124.594116,125.433632 133.741837,125.272667 
	C137.478699,125.206909 138.211578,127.674095 135.828766,130.549789 
	C135.512329,130.931656 135.158813,131.309250 134.752502,131.586227 
	C128.087296,136.129913 125.976807,142.074463 128.684280,149.833344 
	C129.201645,151.315979 128.372574,153.268463 128.164688,155.004166 
	C126.513596,154.691742 124.821060,154.514206 123.224678,154.023727 
	C121.972214,153.638931 120.732620,153.012955 119.671021,152.241364 
	C115.512833,149.219086 111.466507,149.231216 107.330383,152.286743 
	C106.275299,153.066177 105.039925,153.708206 103.788628,154.087799 
	C102.298225,154.539917 100.701439,154.641357 99.150749,154.894745 
	C98.883980,153.207062 98.612404,151.520081 98.358582,149.830460 
	C98.335648,149.677780 98.408913,149.500946 98.468018,149.347046 
	C101.201233,142.230209 99.389595,136.667191 93.137054,132.213135 
	C91.658119,131.159607 91.105980,128.805023 90.127502,127.048935 
	C91.901321,126.362183 93.624603,125.444214 95.460800,125.042923 
	C98.208374,124.442474 101.035332,124.205315 104.210556,123.686600 
z"/>
</svg>