<svg version="1.1" id="Layer_1" xmlns="http://www.w3.org/2000/svg" xmlns:xlink="http://www.w3.org/1999/xlink" x="0px" y="0px"
	 width="100%" viewBox="0 0 225 225" enable-background="new 0 0 225 225" xml:space="preserve">
<path fill="#FFFEFE" opacity="1.000000" stroke="none" 
	d="
M134.000000,226.000000 
	C89.333336,226.000000 45.166672,226.000000 1.000006,226.000000 
	C1.000004,151.000000 1.000004,76.000015 1.000002,1.000016 
	C75.999992,1.000011 150.999985,1.000011 225.999969,1.000005 
	C225.999985,75.999985 225.999985,150.999969 226.000000,225.999969 
	C195.500000,226.000000 165.000000,226.000000 134.000000,226.000000 
M56.316128,81.203445 
	C54.548111,81.248062 52.780094,81.292686 50.323101,81.185509 
	C48.621063,83.064484 46.733116,84.807953 45.248173,86.845169 
	C37.551548,97.404289 29.957840,108.038422 21.814323,118.792183 
	C21.592234,119.232872 21.370144,119.673569 21.302647,120.755104 
	C26.078550,125.214241 30.854452,129.673386 35.821953,134.676407 
	C39.436218,138.175629 43.050484,141.674866 46.930210,145.740295 
	C47.611515,146.191711 48.292824,146.643112 49.188427,147.666000 
	C49.744911,147.871506 50.301395,148.077011 50.912453,148.746506 
	C51.083813,149.054016 51.345024,149.194885 51.962273,149.802307 
	C55.864296,153.808670 59.766319,157.815033 63.849419,162.399933 
	C66.402168,164.696640 68.954926,166.993332 71.561012,169.266052 
	C71.561012,169.266052 71.614861,169.243240 71.719223,169.931030 
	C72.091064,170.189163 72.462914,170.447281 72.961815,171.332077 
	C76.600922,174.663284 80.240028,177.994492 84.138779,181.940231 
	C89.992455,187.988663 95.768417,194.115128 101.730972,200.054260 
	C104.950623,203.261230 108.489281,206.147949 111.977692,209.123215 
	C111.977692,209.123215 111.927101,209.026550 111.975433,209.856384 
	C112.479713,209.955307 112.983994,210.054230 113.516884,210.184296 
	C113.516884,210.184296 113.533485,210.223190 114.325073,210.443283 
	C123.241676,201.639282 132.158279,192.835266 141.677536,183.754211 
	C148.161026,177.194061 154.644516,170.633911 161.731201,163.794327 
	C163.254227,161.914886 164.777252,160.035446 166.941071,157.975082 
	C170.697800,154.353027 174.454529,150.730972 178.824326,146.864441 
	C180.873245,144.668198 182.922165,142.471954 185.609299,139.980743 
	C188.153641,137.363434 190.697998,134.746124 193.870316,131.935028 
	C197.589355,128.225296 201.308395,124.515556 205.425720,120.754616 
	C205.508392,120.648277 205.683548,120.490044 205.657959,120.444435 
	C205.537750,120.230179 205.362396,120.046860 205.184250,119.835480 
	C205.184250,119.835480 205.202744,119.807800 205.233948,119.097023 
	C199.108078,110.599960 193.075058,102.033684 186.814255,93.637245 
	C183.999939,89.862953 180.730469,86.428055 177.584167,82.243294 
	C177.476913,82.073830 177.369644,81.904366 176.785919,81.201202 
	C175.847412,81.235825 174.908920,81.270447 173.326675,81.212120 
	C172.894897,81.239723 172.463120,81.267326 171.114090,81.068604 
	C154.068253,81.153534 137.022430,81.238464 119.196930,81.206573 
	C118.147438,81.231735 117.097954,81.256889 115.643898,81.092155 
	C115.325699,81.031738 115.050392,81.114273 114.630295,81.387398 
	C114.630295,81.387398 114.503983,81.534164 114.094475,81.284355 
	C113.775505,81.221535 113.458580,81.230492 112.359756,81.064774 
	C93.899300,81.140610 75.438843,81.216446 56.316128,81.203445 
M66.332130,58.325348 
	C67.562767,58.856857 68.793396,59.388363 70.024033,59.919872 
	C70.377617,59.448761 70.731209,58.977650 71.084793,58.506538 
	C65.887955,51.128132 61.303669,43.277908 54.950733,36.789978 
	C54.275856,37.256653 53.600983,37.723331 52.926105,38.190006 
	C55.700157,45.638329 61.771358,51.100304 66.332130,58.325348 
M115.397827,16.059286 
	C114.801140,14.867987 114.204460,13.676687 113.607780,12.485388 
	C113.173683,12.551500 112.739586,12.617613 112.305496,12.683724 
	C111.933739,14.350095 111.271355,16.011299 111.241631,17.683748 
	C111.126236,24.176706 111.109131,30.676399 111.308525,37.165810 
	C111.349007,38.483257 112.488297,39.766945 113.121025,41.066189 
	C113.772278,39.804432 114.938469,38.562798 114.988693,37.277554 
	C115.255058,30.461504 115.241165,23.634502 115.397827,16.059286 
M143.369354,27.994125 
	C143.979904,25.192492 144.590454,22.390858 145.200989,19.589224 
	C144.465271,19.210300 143.729538,18.831377 142.993820,18.452454 
	C142.590347,19.313271 142.082153,20.141201 141.799850,21.040079 
	C139.336105,28.884756 136.865997,36.728592 134.581604,44.625851 
	C134.427521,45.158520 135.765213,46.122700 137.008072,47.596416 
	C139.252457,40.709618 141.195770,34.746635 143.369354,27.994125 
M83.544624,20.169176 
	C83.667107,21.877216 84.317017,23.758835 83.821793,25.263584 
	C81.543533,32.186077 86.066673,37.703117 87.420845,43.847351 
	C87.646309,44.870319 89.271454,45.584797 90.249809,46.441826 
	C90.490837,45.273994 91.201309,43.964260 90.898018,42.960972 
	C88.641815,35.497353 86.184525,28.094528 83.544624,20.169176 
M164.141388,50.649483 
	C167.037323,46.788883 169.933258,42.928288 173.709137,37.894630 
	C171.236740,38.027233 169.744370,37.697865 169.392105,38.187981 
	C164.607574,44.844456 159.981140,51.614555 155.315674,58.356606 
	C155.914169,58.798130 156.512665,59.239655 157.111160,59.681179 
	C159.293976,56.847767 161.476791,54.014351 164.141388,50.649483 
z"/>
<path fill="#FDC035" opacity="1.000000" stroke="none" 
	d="
M113.143700,81.311226 
	C113.458580,81.230492 113.775505,81.221535 114.457230,81.764099 
	C115.265724,83.151115 115.711449,84.058380 116.251663,85.242310 
	C116.950806,86.004242 117.555443,86.489510 118.312927,87.243073 
	C119.260826,87.691002 120.055878,87.870651 120.923843,88.388290 
	C124.359543,92.358055 127.772247,95.945107 131.074265,99.631317 
	C137.114059,106.373856 143.088409,113.175018 148.611542,119.964249 
	C126.853928,119.980820 105.574554,120.033455 84.296310,119.901894 
	C82.484352,119.890694 80.679977,118.651596 79.043251,117.692520 
	C80.489601,116.087822 81.798355,114.804283 83.034477,113.454231 
	C90.769432,105.006409 98.488182,96.543747 106.536240,88.052109 
	C107.597137,87.372314 108.334091,86.726402 109.278130,85.964066 
	C109.752464,85.631866 109.877846,85.352440 110.031982,84.752426 
	C110.828575,83.978729 111.454521,83.461960 112.350700,82.744598 
	C112.795189,82.133080 112.969444,81.722153 113.143700,81.311226 
z"/>
<path fill="#FCC037" opacity="1.000000" stroke="none" 
	d="
M177.667526,82.839157 
	C180.730469,86.428055 183.999939,89.862953 186.814255,93.637245 
	C193.075058,102.033684 199.108078,110.599960 204.734741,119.488480 
	C186.529587,119.882263 168.823654,119.884598 151.074799,119.533165 
	C153.849564,114.815559 156.581284,110.393173 159.505463,106.101929 
	C163.644745,100.027489 167.926056,94.049820 172.346222,87.908974 
	C172.787857,87.568672 172.943619,87.300095 173.150330,86.739914 
	C173.510849,85.995483 173.734100,85.492561 174.184586,84.714607 
	C175.497055,83.906097 176.582291,83.372627 177.667526,82.839157 
z"/>
<path fill="#FEC137" opacity="1.000000" stroke="none" 
	d="
M22.328266,118.646408 
	C29.957840,108.038422 37.551548,97.404289 45.248173,86.845169 
	C46.733116,84.807953 48.621063,83.064484 50.664223,81.574081 
	C51.310192,82.680199 51.615032,83.397743 51.953011,84.427597 
	C52.650887,85.488518 53.315628,86.237114 54.069866,87.203819 
	C54.324955,87.701431 54.557087,87.905067 55.002960,88.348114 
	C62.104424,98.451485 69.058685,108.239548 75.997719,118.323822 
	C75.954521,119.013168 75.926552,119.406303 75.449806,119.839218 
	C71.685837,119.874382 68.370644,119.869759 64.942062,119.722778 
	C64.534050,119.678757 64.239418,119.777092 63.479965,119.890457 
	C50.355175,119.911926 37.695210,119.918365 24.766014,119.659058 
	C23.773947,119.144341 23.051105,118.895378 22.328266,118.646408 
z"/>
<path fill="#F9BE3C" opacity="1.000000" stroke="none" 
	d="
M113.533493,210.223190 
	C113.533485,210.223190 113.516884,210.184296 113.251076,209.965225 
	C112.632545,209.506287 112.279823,209.266418 111.927101,209.026550 
	C111.927101,209.026550 111.977692,209.123215 111.946732,208.764832 
	C109.926125,203.521729 107.802177,198.686462 105.981667,193.739502 
	C103.828583,187.888824 101.937454,181.941711 100.248436,175.874435 
	C101.591209,174.602188 102.685646,172.477158 103.634941,172.540131 
	C112.209145,173.108917 120.546913,170.105911 129.088776,171.387985 
	C129.037720,172.480820 129.005173,173.208801 128.614548,174.027039 
	C127.521118,175.491638 126.643234,176.809570 126.073189,178.249374 
	C121.858841,188.893692 117.705803,199.562256 113.533493,210.223190 
M103.704643,176.567688 
	C103.989998,176.295319 104.275352,176.022949 104.560707,175.750580 
	C104.447815,175.632446 104.334923,175.514297 104.222031,175.396164 
	C103.936676,175.668884 103.651314,175.941605 103.704643,176.567688 
z"/>
<path fill="#A8740E" opacity="1.000000" stroke="none" 
	d="
M25.035242,119.924805 
	C37.695210,119.918365 50.355175,119.911926 63.758125,119.925491 
	C64.685890,119.918716 64.870674,119.891922 65.055450,119.865128 
	C68.370644,119.869759 71.685837,119.874382 75.761887,120.040756 
	C78.008133,123.800491 79.493515,127.398476 80.511566,130.997528 
	C72.740295,130.999054 65.436295,131.019394 58.132446,130.994400 
	C50.899616,130.969635 43.666939,130.899170 36.112209,130.846497 
	C36.058559,131.212357 35.844456,132.672440 35.630356,134.132523 
	C30.854452,129.673386 26.078550,125.214241 21.614071,120.411255 
	C22.962078,120.019867 23.998659,119.972336 25.035242,119.924805 
z"/>
<path fill="#A7740E" opacity="1.000000" stroke="none" 
	d="
M151.117706,119.886932 
	C168.823654,119.884598 186.529587,119.882263 204.719147,119.843864 
	C205.202744,119.807800 205.184250,119.835480 205.096863,120.072464 
	C205.009476,120.309456 205.027451,120.805824 205.027451,120.805817 
	C201.308395,124.515556 197.589355,128.225296 193.224091,131.887268 
	C190.964767,131.839493 189.351654,131.839493 187.642395,131.839493 
	C186.532013,131.303787 185.107178,130.029373 183.669937,130.015228 
	C171.390121,129.894333 159.108078,130.002014 146.839920,129.663757 
	C146.848633,128.536392 146.844101,127.786560 147.011902,126.725906 
	C148.182480,124.281448 149.180725,122.147820 150.416138,120.000671 
	C150.653305,119.987144 151.117706,119.886932 151.117706,119.886932 
z"/>
<path fill="#B37E16" opacity="1.000000" stroke="none" 
	d="
M184.971069,140.275696 
	C182.922165,142.471954 180.873245,144.668198 178.198181,146.836029 
	C173.165405,146.205109 168.774338,145.305252 164.348312,145.073883 
	C158.564865,144.771591 152.753296,145.041214 146.954788,144.977951 
	C144.314255,144.949173 141.870804,144.472412 142.007339,140.629272 
	C142.651474,139.191757 143.264206,138.077133 144.230057,136.946472 
	C145.390213,135.955048 146.197235,134.979660 147.253357,134.003387 
	C147.502441,134.002518 148.000610,134.000610 148.399109,134.007690 
	C153.790161,134.676514 158.770966,135.451431 163.778198,135.972046 
	C170.402664,136.660812 177.053802,137.096756 183.672531,137.830139 
	C184.189362,137.887390 184.542084,139.425735 184.971069,140.275696 
z"/>
<path fill="#C0891A" opacity="1.000000" stroke="none" 
	d="
M166.300293,158.156006 
	C164.777252,160.035446 163.254227,161.914886 161.123901,163.788330 
	C159.305496,163.614471 157.599075,162.850952 156.965591,163.377731 
	C153.479568,166.276520 149.618103,167.344070 145.162506,167.033875 
	C141.194321,166.757614 136.679504,168.245377 134.468979,163.134918 
	C134.377106,162.922516 133.534637,163.034805 133.031250,162.664337 
	C133.027115,161.890625 133.033600,161.448395 133.317078,160.792969 
	C134.431549,158.065475 135.268997,155.551208 136.377136,153.002563 
	C137.063583,152.649460 137.479340,152.330719 138.302795,152.014862 
	C146.392639,153.089844 154.074783,154.161957 161.960083,155.262436 
	C162.270157,154.925552 163.063095,154.064102 163.984741,153.062790 
	C164.892181,155.058762 165.596222,156.607376 166.300293,158.156006 
z"/>
<path fill="#AE7A14" opacity="1.000000" stroke="none" 
	d="
M35.726154,134.404465 
	C35.844456,132.672440 36.058559,131.212357 36.112209,130.846497 
	C43.666939,130.899170 50.899616,130.969635 58.132446,130.994400 
	C65.436295,131.019394 72.740295,130.999054 80.643967,131.212402 
	C81.521645,131.607208 81.799591,131.788193 82.066910,132.330994 
	C82.069832,133.411270 82.083374,134.129730 81.919685,135.187134 
	C79.498550,136.350647 77.281944,137.784073 75.005630,137.886154 
	C68.036751,138.198715 61.042587,138.108917 54.062935,137.958542 
	C49.971569,137.870377 46.177643,137.648636 47.793877,143.691391 
	C47.892113,144.058670 47.062592,144.674118 46.664749,145.174088 
	C43.050484,141.674866 39.436218,138.175629 35.726154,134.404465 
z"/>
<path fill="#CA911B" opacity="1.000000" stroke="none" 
	d="
M99.932777,176.036407 
	C101.937454,181.941711 103.828583,187.888824 105.981667,193.739502 
	C107.802177,198.686462 109.926125,203.521729 111.899902,208.792786 
	C108.489281,206.147949 104.950623,203.261230 101.730972,200.054260 
	C95.768417,194.115128 89.992455,187.988663 84.075127,181.222626 
	C84.535934,177.758453 86.212059,176.929993 88.946838,176.925400 
	C92.295464,176.919769 95.643158,176.353943 99.226654,176.027847 
	C99.462067,176.025360 99.932777,176.036407 99.932777,176.036407 
z"/>
<path fill="#B98419" opacity="1.000000" stroke="none" 
	d="
M166.620667,158.065552 
	C165.596222,156.607376 164.892181,155.058762 163.984741,153.062790 
	C163.063095,154.064102 162.270157,154.925552 161.960083,155.262436 
	C154.074783,154.161957 146.392639,153.089844 138.324829,151.602112 
	C138.341766,148.767242 138.744354,146.347992 139.265137,143.660248 
	C139.919785,142.585953 140.456223,141.780151 141.238663,140.976501 
	C141.484650,140.978653 141.975922,140.952133 141.975922,140.952133 
	C141.870804,144.472412 144.314255,144.949173 146.954788,144.977951 
	C152.753296,145.041214 158.564865,144.771591 164.348312,145.073883 
	C168.774338,145.305252 173.165405,146.205109 177.891632,146.958267 
	C174.454529,150.730972 170.697800,154.353027 166.620667,158.065552 
z"/>
<path fill="#CA911B" opacity="1.000000" stroke="none" 
	d="
M113.929283,210.333237 
	C117.705803,199.562256 121.858841,188.893692 126.073189,178.249374 
	C126.643234,176.809570 127.521118,175.491638 128.638428,174.439301 
	C129.729385,175.496506 130.343201,176.718460 131.164551,176.879059 
	C134.070267,177.447266 137.046936,177.652466 139.998367,177.997650 
	C140.000015,178.000031 140.005096,178.005020 139.970215,178.344482 
	C139.373947,179.812073 138.812561,180.940216 138.151230,182.269180 
	C139.190216,182.895370 140.132553,183.463318 141.074890,184.031265 
	C132.158279,192.835266 123.241676,201.639282 113.929283,210.333237 
z"/>
<path fill="#B98319" opacity="1.000000" stroke="none" 
	d="
M63.668343,161.821396 
	C59.766319,157.815033 55.864296,153.808670 52.150909,149.262192 
	C53.194252,145.681885 55.220219,144.839523 58.285854,144.936432 
	C64.880669,145.144913 71.486671,145.005493 78.088081,144.996841 
	C80.775726,144.993317 83.463341,144.959564 86.428978,144.957306 
	C87.078522,145.007553 87.450066,145.040039 87.856636,145.453766 
	C88.338852,147.557983 88.786041,149.280960 89.197372,151.323975 
	C89.173088,152.071716 89.184654,152.499405 88.834244,152.920059 
	C87.136497,152.471619 85.735596,151.520142 84.476669,151.680847 
	C80.033455,152.248016 75.661980,153.682587 71.220810,153.893494 
	C63.252644,154.271851 63.239773,154.000778 63.668343,161.821396 
M85.797096,147.391800 
	C85.792931,147.785950 85.788765,148.180099 85.784607,148.574249 
	C85.948105,148.575867 86.253731,148.588394 86.254570,148.577499 
	C86.284721,148.185165 86.286453,147.790634 85.797096,147.391800 
M61.483040,156.587936 
	C61.483040,156.587936 61.416882,156.476990 61.483040,156.587936 
z"/>
<path fill="#BF891A" opacity="1.000000" stroke="none" 
	d="
M63.758881,162.110657 
	C63.239773,154.000778 63.252644,154.271851 71.220810,153.893494 
	C75.661980,153.682587 80.033455,152.248016 84.476669,151.680847 
	C85.735596,151.520142 87.136497,152.471619 89.156158,153.005234 
	C90.903229,155.064148 91.966431,157.030869 93.030762,159.373901 
	C93.059189,160.502563 93.086494,161.254913 92.724869,162.013428 
	C85.990364,166.658691 78.658386,164.619461 71.507675,164.854446 
	C71.507675,166.474152 71.507675,167.882095 71.507675,169.290039 
	C68.954926,166.993332 66.402168,164.696640 63.758881,162.110657 
z"/>
<path fill="#C68D1E" opacity="1.000000" stroke="none" 
	d="
M141.376221,183.892731 
	C140.132553,183.463318 139.190216,182.895370 138.151230,182.269180 
	C138.812561,180.940216 139.373947,179.812073 140.209381,178.329742 
	C140.757111,177.857483 141.030838,177.739410 141.304550,177.621338 
	C141.217514,177.498444 141.130478,177.375534 141.043442,177.252640 
	C140.694534,177.500183 140.345627,177.747742 139.996719,177.995285 
	C137.046936,177.652466 134.070267,177.447266 131.164551,176.879059 
	C130.343201,176.718460 129.729385,175.496506 128.996506,174.349060 
	C129.005173,173.208801 129.037720,172.480820 129.349991,171.173111 
	C130.767105,168.060867 131.904480,165.528351 133.041855,162.995834 
	C133.534637,163.034805 134.377106,162.922516 134.468979,163.134918 
	C136.679504,168.245377 141.194321,166.757614 145.162506,167.033875 
	C149.618103,167.344070 153.479568,166.276520 156.965591,163.377731 
	C157.599075,162.850952 159.305496,163.614471 160.822296,163.928055 
	C154.644516,170.633911 148.161026,177.194061 141.376221,183.892731 
z"/>
<path fill="#C58C1D" opacity="1.000000" stroke="none" 
	d="
M71.534348,169.278046 
	C71.507675,167.882095 71.507675,166.474152 71.507675,164.854446 
	C78.658386,164.619461 85.990364,166.658691 92.922134,162.297302 
	C95.335960,167.060120 97.163605,171.545227 98.991249,176.030334 
	C95.643158,176.353943 92.295464,176.919769 88.946838,176.925400 
	C86.212059,176.929993 84.535934,177.758453 83.945305,180.915344 
	C80.240028,177.994492 76.600922,174.663284 72.848328,170.663300 
	C72.361511,169.744095 71.988190,169.493668 71.614868,169.243240 
	C71.614861,169.243240 71.561012,169.266052 71.534348,169.278046 
z"/>
<path fill="#B47F17" opacity="1.000000" stroke="none" 
	d="
M86.150970,144.939560 
	C83.463341,144.959564 80.775726,144.993317 78.088081,144.996841 
	C71.486671,145.005493 64.880669,145.144913 58.285854,144.936432 
	C55.220219,144.839523 53.194252,145.681885 52.017822,148.945602 
	C51.345024,149.194885 51.083813,149.054016 51.020279,148.193497 
	C51.084534,146.840118 51.040970,146.039749 50.997410,145.239380 
	C50.322987,145.857773 49.648563,146.476151 48.974133,147.094543 
	C48.292824,146.643112 47.611515,146.191711 46.797478,145.457184 
	C47.062592,144.674118 47.892113,144.058670 47.793877,143.691391 
	C46.177643,137.648636 49.971569,137.870377 54.062935,137.958542 
	C61.042587,138.108917 68.036751,138.198715 75.005630,137.886154 
	C77.281944,137.784073 79.498550,136.350647 82.214386,135.264664 
	C83.417778,135.681503 84.149239,136.359756 84.900208,137.445831 
	C85.330139,140.215637 85.740555,142.577591 86.150970,144.939560 
z"/>
<path fill="#AC7813" opacity="1.000000" stroke="none" 
	d="
M185.290192,140.128220 
	C184.542084,139.425735 184.189362,137.887390 183.672531,137.830139 
	C177.053802,137.096756 170.402664,136.660812 163.778198,135.972046 
	C158.770966,135.451431 153.790161,134.676514 148.367584,133.660904 
	C147.575790,132.439224 147.213989,131.571411 146.835754,130.538406 
	C146.819321,130.373215 146.826691,130.041290 146.826691,130.041290 
	C159.108078,130.002014 171.390121,129.894333 183.669937,130.015228 
	C185.107178,130.029373 186.532013,131.303787 187.642395,131.839493 
	C189.351654,131.839493 190.964767,131.839493 192.910110,131.984161 
	C190.697998,134.746124 188.153641,137.363434 185.290192,140.128220 
z"/>
<path fill="#C48C0A" opacity="1.000000" stroke="none" 
	d="
M177.625854,82.541229 
	C176.582291,83.372627 175.497055,83.906097 173.932541,84.607544 
	C172.969330,84.517876 172.485413,84.260223 171.532684,84.002258 
	C155.435287,84.001305 139.806519,83.969681 124.178268,84.043793 
	C122.452026,84.051979 120.728653,84.664703 118.761734,84.906616 
	C117.732071,84.865997 116.944626,84.915825 116.157173,84.965645 
	C115.711449,84.058380 115.265724,83.151115 114.661987,81.889008 
	C114.503983,81.534164 114.630295,81.387398 114.908508,81.536148 
	C115.473961,81.550613 115.761215,81.416328 116.048462,81.282043 
	C117.097954,81.256889 118.147438,81.231735 119.925598,81.499634 
	C137.009399,81.858208 153.364502,81.933281 169.719681,81.959396 
	C170.489883,81.960625 171.260773,81.526375 172.031342,81.294937 
	C172.463120,81.267326 172.894897,81.239723 173.917328,81.476822 
	C175.426117,81.739319 176.344254,81.737114 177.262375,81.734901 
	C177.369644,81.904366 177.476913,82.073830 177.625854,82.541229 
z"/>
<path fill="#C48C0A" opacity="1.000000" stroke="none" 
	d="
M51.919872,84.115280 
	C51.615032,83.397743 51.310192,82.680199 51.008713,81.649986 
	C52.780094,81.292686 54.548111,81.248062 56.986160,81.482506 
	C73.732666,81.834686 89.809456,81.874245 105.885239,82.022346 
	C107.952972,82.041389 110.015526,82.623772 112.080475,82.945198 
	C111.454521,83.461960 110.828575,83.978729 109.721466,84.748657 
	C108.823814,84.999062 108.407318,84.996307 107.697090,84.698135 
	C105.592514,84.268494 103.781883,84.021393 101.970779,84.017799 
	C86.310715,83.986725 70.650574,83.999474 54.710922,83.880753 
	C53.594223,83.879990 52.757050,83.997635 51.919872,84.115280 
z"/>
<path fill="#FBC94F" opacity="1.000000" stroke="none" 
	d="
M66.150681,58.008102 
	C61.771358,51.100304 55.700157,45.638329 52.926105,38.190006 
	C53.600983,37.723331 54.275856,37.256653 54.950733,36.789978 
	C61.303669,43.277908 65.887955,51.128132 71.084793,58.506538 
	C70.731209,58.977650 70.377617,59.448761 70.024033,59.919872 
	C68.793396,59.388363 67.562767,58.856857 66.150681,58.008102 
z"/>
<path fill="#FDCB58" opacity="1.000000" stroke="none" 
	d="
M115.361099,16.435291 
	C115.241165,23.634502 115.255058,30.461504 114.988693,37.277554 
	C114.938469,38.562798 113.772278,39.804432 113.121033,41.066193 
	C112.488297,39.766945 111.349007,38.483257 111.308525,37.165810 
	C111.109131,30.676399 111.126236,24.176706 111.241631,17.683748 
	C111.271355,16.011299 111.933739,14.350095 112.305496,12.683724 
	C112.739586,12.617613 113.173683,12.551500 113.607780,12.485388 
	C114.204460,13.676687 114.801140,14.867987 115.361099,16.435291 
z"/>
<path fill="#FAC84B" opacity="1.000000" stroke="none" 
	d="
M143.254227,28.388891 
	C141.195770,34.746635 139.252457,40.709618 137.008072,47.596416 
	C135.765213,46.122700 134.427521,45.158520 134.581604,44.625851 
	C136.865997,36.728592 139.336105,28.884756 141.799850,21.040079 
	C142.082153,20.141201 142.590347,19.313271 142.993820,18.452454 
	C143.729538,18.831377 144.465271,19.210300 145.200989,19.589224 
	C144.590454,22.390858 143.979904,25.192492 143.254227,28.388891 
z"/>
<path fill="#FAC84B" opacity="1.000000" stroke="none" 
	d="
M83.667480,20.420900 
	C86.184525,28.094528 88.641815,35.497353 90.898018,42.960972 
	C91.201309,43.964260 90.490837,45.273994 90.249809,46.441826 
	C89.271454,45.584797 87.646309,44.870319 87.420845,43.847351 
	C86.066673,37.703117 81.543533,32.186077 83.821793,25.263584 
	C84.317017,23.758835 83.667107,21.877216 83.667480,20.420900 
z"/>
<path fill="#FCC030" opacity="1.000000" stroke="none" 
	d="
M163.900513,50.915211 
	C161.476791,54.014351 159.293976,56.847767 157.111160,59.681179 
	C156.512665,59.239655 155.914169,58.798130 155.315674,58.356606 
	C159.981140,51.614555 164.607574,44.844456 169.392105,38.187981 
	C169.744370,37.697865 171.236740,38.027233 173.709137,37.894630 
	C169.933258,42.928288 167.037323,46.788883 163.900513,50.915211 
z"/>
<path fill="#E4AC4B" opacity="1.000000" stroke="none" 
	d="
M112.350700,82.744598 
	C110.015526,82.623772 107.952972,82.041389 105.885239,82.022346 
	C89.809456,81.874245 73.732666,81.834686 57.317291,81.526932 
	C75.438843,81.216446 93.899300,81.140610 112.751724,81.188004 
	C112.969444,81.722153 112.795189,82.133080 112.350700,82.744598 
z"/>
<path fill="#E4AC4B" opacity="1.000000" stroke="none" 
	d="
M171.572723,81.181763 
	C171.260773,81.526375 170.489883,81.960625 169.719681,81.959396 
	C153.364502,81.933281 137.009399,81.858208 120.315430,81.558044 
	C137.022430,81.238464 154.068253,81.153534 171.572723,81.181763 
z"/>
<path fill="#B98319" opacity="1.000000" stroke="none" 
	d="
M49.081284,147.380280 
	C49.648563,146.476151 50.322987,145.857773 50.997410,145.239380 
	C51.040970,146.039749 51.084534,146.840118 50.992989,147.961487 
	C50.301395,148.077011 49.744911,147.871506 49.081284,147.380280 
z"/>
<path fill="#D4A02F" opacity="1.000000" stroke="none" 
	d="
M24.766014,119.659058 
	C23.998659,119.972336 22.962078,120.019867 21.536774,120.090836 
	C21.370144,119.673569 21.592234,119.232872 22.071293,118.719299 
	C23.051105,118.895378 23.773947,119.144341 24.766014,119.659058 
z"/>
<path fill="#E4AC4B" opacity="1.000000" stroke="none" 
	d="
M177.024139,81.468048 
	C176.344254,81.737114 175.426117,81.739319 174.239197,81.523300 
	C174.908920,81.270447 175.847412,81.235825 177.024139,81.468048 
z"/>
<path fill="#FCC037" opacity="1.000000" stroke="none" 
	d="
M205.226593,120.780220 
	C205.027451,120.805824 205.009476,120.309456 205.108093,120.080978 
	C205.362396,120.046860 205.537750,120.230179 205.657959,120.444435 
	C205.683548,120.490044 205.508392,120.648277 205.226593,120.780220 
z"/>
<path fill="#BF891A" opacity="1.000000" stroke="none" 
	d="
M71.667046,169.587128 
	C71.988190,169.493668 72.361511,169.744095 72.784798,170.349976 
	C72.462914,170.447281 72.091064,170.189163 71.667046,169.587128 
z"/>
<path fill="#E4AC4B" opacity="1.000000" stroke="none" 
	d="
M115.846176,81.187103 
	C115.761215,81.416328 115.473961,81.550613 115.002350,81.512321 
	C115.050392,81.114273 115.325699,81.031738 115.846176,81.187103 
z"/>
<path fill="#CA911B" opacity="1.000000" stroke="none" 
	d="
M111.951263,209.441467 
	C112.279823,209.266418 112.632545,209.506287 113.236771,209.949646 
	C112.983994,210.054230 112.479713,209.955307 111.951263,209.441467 
z"/>
<path fill="#C98B0F" opacity="1.000000" stroke="none" 
	d="
M151.074799,119.533165 
	C151.117706,119.886932 150.653305,119.987144 150.143219,119.980789 
	C149.452118,119.966866 149.271088,119.959297 149.090057,119.951729 
	C143.088409,113.175018 137.114059,106.373856 131.074265,99.631317 
	C127.772247,95.945107 124.359543,92.358055 121.408066,88.369225 
	C138.595139,88.018372 155.370895,88.024574 172.146652,88.030785 
	C167.926056,94.049820 163.644745,100.027489 159.505463,106.101929 
	C156.581284,110.393173 153.849564,114.815559 151.074799,119.533165 
z"/>
<path fill="#C98B0F" opacity="1.000000" stroke="none" 
	d="
M76.012947,118.027618 
	C69.058685,108.239548 62.104424,98.451485 55.486629,88.334885 
	C72.619492,88.032898 89.415894,88.059448 106.212296,88.085999 
	C98.488182,96.543747 90.769432,105.006409 83.034477,113.454231 
	C81.798355,114.804283 80.489601,116.087822 78.812027,117.798843 
	C77.610733,118.139595 76.811844,118.083603 76.012947,118.027618 
z"/>
<path fill="#D4A02F" opacity="1.000000" stroke="none" 
	d="
M75.997719,118.323822 
	C76.811844,118.083603 77.610733,118.139595 78.640854,118.089249 
	C80.679977,118.651596 82.484352,119.890694 84.296310,119.901894 
	C105.574554,120.033455 126.853928,119.980820 148.611542,119.964249 
	C149.271088,119.959297 149.452118,119.966866 149.906067,119.994308 
	C149.180725,122.147820 148.182480,124.281448 146.683807,126.780869 
	C141.190353,130.817627 138.434967,131.598083 132.555588,131.017059 
	C132.225235,130.984421 131.889587,131.002075 131.556396,131.002060 
	C118.560768,131.001236 105.564568,130.934158 92.569893,131.045212 
	C89.070061,131.075104 85.574860,131.646393 82.077530,131.969177 
	C81.799591,131.788193 81.521645,131.607208 81.111298,131.211334 
	C79.493515,127.398476 78.008133,123.800491 76.210663,120.000977 
	C75.926552,119.406303 75.954521,119.013168 75.997719,118.323822 
z"/>
<path fill="#CB8C02" opacity="1.000000" stroke="none" 
	d="
M116.251663,85.242310 
	C116.944626,84.915825 117.732071,84.865997 119.229919,84.907074 
	C135.569122,84.998352 151.198090,85.029671 166.826538,84.955322 
	C168.552994,84.947121 170.276566,84.334740 172.001480,84.002571 
	C172.485413,84.260223 172.969330,84.517876 173.705307,84.882584 
	C173.734100,85.492561 173.510849,85.995483 172.680206,86.743164 
	C154.101898,86.983543 136.130997,86.979156 118.160080,86.974777 
	C117.555443,86.489510 116.950806,86.004242 116.251663,85.242310 
z"/>
<path fill="#C98A00" opacity="1.000000" stroke="none" 
	d="
M51.953011,84.427597 
	C52.757050,83.997635 53.594223,83.879990 55.005817,84.178467 
	C57.223988,84.729729 58.867538,84.979393 60.511520,84.982254 
	C76.337914,85.009766 92.164375,84.995712 107.990822,84.993561 
	C108.407318,84.996307 108.823814,84.999062 109.550827,85.005585 
	C109.877846,85.352440 109.752464,85.631866 108.831787,85.940414 
	C105.233406,86.351456 102.290489,86.920601 99.343163,86.944473 
	C86.732826,87.046608 74.121185,86.988068 61.510025,86.987816 
	C59.000141,86.987762 56.490253,86.986443 53.980370,86.985718 
	C53.315628,86.237114 52.650887,85.488518 51.953011,84.427597 
z"/>
<path fill="#CA8A1F" opacity="1.000000" stroke="none" 
	d="
M54.069866,87.203812 
	C56.490253,86.986443 59.000141,86.987762 61.510025,86.987816 
	C74.121185,86.988068 86.732826,87.046608 99.343163,86.944473 
	C102.290489,86.920601 105.233406,86.351456 108.624695,86.056831 
	C108.334091,86.726402 107.597137,87.372314 106.536240,88.052109 
	C89.415894,88.059448 72.619492,88.032898 55.339424,88.019585 
	C54.557087,87.905067 54.324955,87.701431 54.069866,87.203812 
z"/>
<path fill="#CA8A1F" opacity="1.000000" stroke="none" 
	d="
M118.312927,87.243065 
	C136.130997,86.979156 154.101898,86.983543 172.542938,86.984673 
	C172.943619,87.300095 172.787857,87.568672 172.346222,87.908974 
	C155.370895,88.024574 138.595139,88.018372 121.335159,88.031235 
	C120.055878,87.870651 119.260826,87.691002 118.312927,87.243065 
z"/>
<path fill="#D4A02F" opacity="1.000000" stroke="none" 
	d="
M64.942062,119.722778 
	C64.870674,119.891922 64.685890,119.918716 64.222954,119.910461 
	C64.239418,119.777092 64.534050,119.678757 64.942062,119.722778 
z"/>
<path fill="#F3BA3D" opacity="1.000000" stroke="none" 
	d="
M99.226654,176.027847 
	C97.163605,171.545227 95.335960,167.060120 93.311058,162.291138 
	C93.086494,161.254913 93.059189,160.502563 93.427017,159.387451 
	C97.110771,159.683090 100.386826,160.823059 103.690407,160.909332 
	C113.467804,161.164703 123.256058,161.004089 133.040070,161.006180 
	C133.033600,161.448395 133.027115,161.890625 133.031250,162.664337 
	C131.904480,165.528351 130.767105,168.060867 129.368500,170.808273 
	C120.546913,170.105911 112.209145,173.108917 103.634941,172.540131 
	C102.685646,172.477158 101.591209,174.602188 100.248436,175.874435 
	C99.932777,176.036407 99.462067,176.025360 99.226654,176.027847 
z"/>
<path fill="#F3BA3D" opacity="1.000000" stroke="none" 
	d="
M103.535301,176.391006 
	C103.651314,175.941605 103.936676,175.668884 104.222031,175.396164 
	C104.334923,175.514297 104.447815,175.632446 104.560715,175.750580 
	C104.275352,176.022949 103.989998,176.295319 103.535301,176.391006 
z"/>
<path fill="#DAA734" opacity="1.000000" stroke="none" 
	d="
M82.066910,132.330994 
	C85.574860,131.646393 89.070061,131.075104 92.569893,131.045212 
	C105.564568,130.934158 118.560768,131.001236 131.556396,131.002060 
	C131.889587,131.002075 132.225235,130.984421 132.555588,131.017059 
	C138.434967,131.598083 141.190353,130.817627 146.511475,127.091705 
	C146.844101,127.786560 146.848633,128.536392 146.839920,129.663757 
	C146.826691,130.041290 146.819321,130.373215 146.512848,130.672180 
	C145.763748,131.967453 145.321136,132.963730 144.624344,134.172363 
	C144.205750,135.243988 144.041351,136.103241 143.876938,136.962509 
	C143.264206,138.077133 142.651474,139.191757 142.007339,140.629272 
	C141.975922,140.952133 141.484650,140.978653 141.181992,140.630478 
	C139.271774,139.350815 137.679947,137.640579 136.054245,137.607788 
	C118.999504,137.263672 101.939354,137.187943 84.880692,137.038010 
	C84.149239,136.359756 83.417778,135.681503 82.391617,134.925720 
	C82.083374,134.129730 82.069832,133.411270 82.066910,132.330994 
z"/>
<path fill="#AC7813" opacity="1.000000" stroke="none" 
	d="
M144.230057,136.946472 
	C144.041351,136.103241 144.205750,135.243988 144.979828,134.186142 
	C146.061081,133.993134 146.532669,133.998703 147.004272,134.004272 
	C146.197235,134.979660 145.390213,135.955048 144.230057,136.946472 
z"/>
<path fill="#A7740E" opacity="1.000000" stroke="none" 
	d="
M147.253357,134.003387 
	C146.532669,133.998703 146.061081,133.993134 145.234009,133.973785 
	C145.321136,132.963730 145.763748,131.967453 146.529282,130.837372 
	C147.213989,131.571411 147.575790,132.439224 147.969101,133.653824 
	C148.000610,134.000610 147.502441,134.002518 147.253357,134.003387 
z"/>
<path fill="#EDB43C" opacity="1.000000" stroke="none" 
	d="
M133.317078,160.792969 
	C123.256058,161.004089 113.467804,161.164703 103.690407,160.909332 
	C100.386826,160.823059 97.110771,159.683090 93.425880,159.011139 
	C91.966431,157.030869 90.903229,155.064148 89.518127,153.012253 
	C89.184654,152.499405 89.173088,152.071716 89.504120,151.258255 
	C90.636734,150.401031 91.426750,149.929596 92.433205,149.328995 
	C92.868401,151.259109 93.233414,152.877930 93.447792,153.828705 
	C100.400726,150.379913 107.520538,152.271484 114.307716,152.115509 
	C121.563072,151.948746 128.839325,152.691299 136.106445,153.036957 
	C135.268997,155.551208 134.431549,158.065475 133.317078,160.792969 
z"/>
<path fill="#E8B03A" opacity="1.000000" stroke="none" 
	d="
M136.377151,153.002563 
	C128.839325,152.691299 121.563072,151.948746 114.307716,152.115509 
	C107.520538,152.271484 100.400726,150.379913 93.447792,153.828705 
	C93.233414,152.877930 92.868401,151.259109 92.433205,149.328995 
	C91.426750,149.929596 90.636734,150.401031 89.539970,150.938202 
	C88.786041,149.280960 88.338852,147.557983 88.343994,145.427521 
	C104.596947,145.074615 120.397598,145.151779 136.198120,145.129608 
	C137.181625,145.128220 138.164032,144.347076 139.146942,143.928726 
	C138.744354,146.347992 138.341766,148.767242 137.917130,151.599243 
	C137.479340,152.330719 137.063583,152.649460 136.377151,153.002563 
z"/>
<path fill="#E1AC38" opacity="1.000000" stroke="none" 
	d="
M139.265152,143.660248 
	C138.164032,144.347076 137.181625,145.128220 136.198120,145.129608 
	C120.397598,145.151779 104.596947,145.074615 88.308960,145.046265 
	C87.450066,145.040039 87.078522,145.007553 86.428978,144.957306 
	C85.740555,142.577591 85.330139,140.215637 84.900208,137.445831 
	C101.939354,137.187943 118.999504,137.263672 136.054245,137.607788 
	C137.679947,137.640579 139.271774,139.350815 140.936005,140.628326 
	C140.456223,141.780151 139.919785,142.585953 139.265152,143.660248 
z"/>
<path fill="#B47F17" opacity="1.000000" stroke="none" 
	d="
M86.044609,147.394104 
	C86.286453,147.790634 86.284721,148.185165 86.254570,148.577499 
	C86.253731,148.588394 85.948105,148.575867 85.784607,148.574249 
	C85.788765,148.180099 85.792931,147.785950 86.044609,147.394104 
z"/>
<path fill="#BF891A" opacity="1.000000" stroke="none" 
	d="
M61.449959,156.532471 
	C61.416882,156.476990 61.483040,156.587936 61.449959,156.532471 
z"/>
<path fill="#CA911B" opacity="1.000000" stroke="none" 
	d="
M139.998367,177.997650 
	C140.345627,177.747742 140.694534,177.500183 141.043442,177.252640 
	C141.130478,177.375534 141.217514,177.498444 141.304550,177.621338 
	C141.030838,177.739410 140.757111,177.857483 140.244247,177.990295 
	C140.005096,178.005020 140.000015,178.000031 139.998367,177.997650 
z"/>
<path fill="#CD8C13" opacity="1.000000" stroke="none" 
	d="
M171.532684,84.002258 
	C170.276566,84.334740 168.552994,84.947121 166.826538,84.955322 
	C151.198090,85.029671 135.569122,84.998352 119.472122,84.997520 
	C120.728653,84.664703 122.452026,84.051979 124.178268,84.043793 
	C139.806519,83.969681 155.435287,84.001305 171.532684,84.002258 
z"/>
<path fill="#CD8C13" opacity="1.000000" stroke="none" 
	d="
M107.697090,84.698135 
	C92.164375,84.995712 76.337914,85.009766 60.511520,84.982254 
	C58.867538,84.979393 57.223988,84.729729 55.285339,84.296875 
	C70.650574,83.999474 86.310715,83.986725 101.970779,84.017799 
	C103.781883,84.021393 105.592514,84.268494 107.697090,84.698135 
z"/>
</svg>