<svg version="1.1" id="Layer_1" xmlns="http://www.w3.org/2000/svg" xmlns:xlink="http://www.w3.org/1999/xlink" x="0px" y="0px"
	 width="100%" viewBox="0 0 225 225" enable-background="new 0 0 225 225" xml:space="preserve">
<path fill="#FEFEFE" opacity="1.000000" stroke="none" 
	d="
M124.000000,226.000000 
	C82.666672,226.000000 41.833340,226.000000 1.000005,226.000000 
	C1.000004,151.000000 1.000004,76.000015 1.000002,1.000015 
	C75.999992,1.000010 150.999985,1.000010 225.999969,1.000005 
	C225.999985,75.999985 225.999985,150.999969 226.000000,225.999969 
	C192.166672,226.000000 158.333328,226.000000 124.000000,226.000000 
M52.776527,27.263273 
	C17.553600,54.118336 2.564766,89.403923 10.065885,133.207184 
	C19.517561,188.400864 74.070831,226.735321 129.401459,217.834564 
	C186.044724,208.722656 224.621078,158.101547 218.078430,101.008278 
	C211.080780,39.944454 153.694626,-0.705809 95.530174,9.643098 
	C80.206604,12.369542 66.159569,18.027613 52.776527,27.263273 
z"/>
<path fill="#3A2774" opacity="1.000000" stroke="none" 
	d="
M53.078098,27.071438 
	C66.159569,18.027613 80.206604,12.369542 95.530174,9.643098 
	C153.694626,-0.705809 211.080780,39.944454 218.078430,101.008278 
	C224.621078,158.101547 186.044724,208.722656 129.401459,217.834564 
	C74.070831,226.735321 19.517561,188.400864 10.065885,133.207184 
	C2.564766,89.403923 17.553600,54.118336 53.078098,27.071438 
M149.999908,193.492157 
	C149.999908,193.492157 150.002365,192.997635 150.718094,192.924026 
	C156.082275,189.647797 161.711990,186.732483 166.756409,183.021561 
	C177.884125,174.835526 186.473877,164.292053 192.439774,151.888702 
	C200.255219,135.640121 202.717087,118.494774 200.076584,100.528511 
	C196.590988,76.812225 185.009171,58.065296 166.210526,43.561214 
	C153.987778,34.130749 140.221893,28.659054 124.826347,26.696220 
	C105.886055,24.281452 87.934021,27.243456 71.438370,36.495190 
	C53.785561,46.395935 40.514992,60.648029 32.614975,79.659615 
	C25.641233,96.442093 24.206358,113.671104 27.678049,131.333649 
	C31.672287,151.654709 42.182030,168.287033 58.051041,181.309052 
	C63.735844,185.973969 70.646637,189.144852 77.000229,193.492218 
	C77.000229,193.492218 77.002167,193.986725 76.297020,194.136276 
	C75.184608,195.717728 74.072189,197.299179 72.508362,199.522369 
	C100.266022,199.522369 126.822922,199.522369 153.379822,199.522369 
	C153.656204,199.142319 153.932602,198.762253 154.209000,198.382202 
	C152.805283,196.917038 151.401581,195.451859 149.999908,193.492157 
z"/>
<path fill="#473080" opacity="1.000000" stroke="none" 
	d="
M76.997871,192.997635 
	C70.646637,189.144852 63.735844,185.973969 58.051041,181.309052 
	C42.182030,168.287033 31.672287,151.654709 27.678049,131.333649 
	C24.206358,113.671104 25.641233,96.442093 32.614975,79.659615 
	C40.514992,60.648029 53.785561,46.395935 71.438370,36.495190 
	C87.934021,27.243456 105.886055,24.281452 124.826347,26.696220 
	C140.221893,28.659054 153.987778,34.130749 166.210526,43.561214 
	C185.009171,58.065296 196.590988,76.812225 200.076584,100.528511 
	C202.717087,118.494774 200.255219,135.640121 192.439774,151.888702 
	C186.473877,164.292053 177.884125,174.835526 166.756409,183.021561 
	C161.711990,186.732483 156.082275,189.647797 150.135498,192.957016 
	C149.552902,192.990005 149.103851,192.970993 148.994446,192.999680 
	C148.885025,193.028366 148.678513,193.120697 148.736420,192.645203 
	C148.760727,182.439178 148.727158,172.708649 148.766663,162.696213 
	C148.557053,161.947662 148.274368,161.481003 147.823914,160.716705 
	C146.183136,159.911545 144.710114,159.404022 143.167023,158.550583 
	C141.800079,157.451004 140.503189,156.697342 139.127777,155.592896 
	C136.307877,148.799820 130.985916,148.114685 124.792625,148.854065 
	C124.597923,148.768997 124.173042,148.760925 123.895157,148.463257 
	C123.798637,144.158127 123.980003,140.150635 124.508362,136.098755 
	C126.657951,134.384979 128.460556,132.715576 130.616547,131.060394 
	C132.238220,129.673157 133.506516,128.271698 134.824890,126.859100 
	C134.874985,126.847954 134.900192,126.748459 135.133682,126.716919 
	C135.669632,126.552711 135.889206,126.336044 136.365219,125.959793 
	C143.759506,122.416832 147.928009,116.917892 148.706512,108.734268 
	C148.756805,108.341156 148.712372,108.180084 148.733826,107.607903 
	C148.851715,106.087967 148.903748,104.979134 149.290161,103.781296 
	C151.192657,102.788452 152.701035,101.754784 154.338409,101.001465 
	C166.822189,95.257980 175.357697,81.383850 175.053345,67.638008 
	C174.973389,64.026321 173.614456,62.524204 170.005722,62.520763 
	C163.348724,62.514416 156.691940,62.270676 149.928741,61.882320 
	C149.547195,61.426003 149.272003,61.213207 148.918167,60.608082 
	C148.830124,59.149338 148.820694,58.082924 149.105392,56.855679 
	C150.683273,55.205280 151.967041,53.715721 153.641556,52.160728 
	C156.702850,52.063965 159.577850,51.558498 158.850662,48.232967 
	C158.549759,46.856903 155.767395,45.545811 153.903046,45.113968 
	C151.725983,44.609692 149.318863,45.098495 146.546356,45.090279 
	C130.206589,45.013195 114.332039,45.002266 98.225037,44.705345 
	C94.709045,41.709400 91.425507,38.999443 88.901413,36.916267 
	C85.860374,39.407257 82.441971,42.207359 78.570251,45.005482 
	C76.295952,44.997684 74.295792,44.514565 72.701630,45.112984 
	C70.912865,45.784470 68.187019,47.411594 68.165894,48.661758 
	C68.112694,51.809700 70.264923,53.482525 73.835403,52.494453 
	C75.368622,54.188358 76.768600,55.579700 78.168526,57.226120 
	C78.233742,57.638214 78.299011,57.795235 78.298782,58.331413 
	C78.156250,59.473915 78.079239,60.237259 77.768272,61.120632 
	C77.347466,61.532120 77.160614,61.823574 76.512909,62.200043 
	C70.084106,62.296803 64.108353,62.501183 58.150635,62.259937 
	C53.298969,62.063488 50.961388,64.269241 52.077660,68.769920 
	C53.725311,75.413101 55.336514,82.261673 58.373444,88.315308 
	C62.364132,96.270119 70.394814,100.121590 78.113083,104.394234 
	C78.100632,114.573456 81.544296,122.177361 91.239922,126.171890 
	C91.337463,126.338028 91.663322,126.542076 91.663322,126.542076 
	C91.663322,126.542076 92.047318,126.521355 92.082474,126.640442 
	C92.117638,126.759537 92.339645,126.870865 92.328064,127.220749 
	C93.797432,128.743607 95.278366,129.916611 96.866470,131.419739 
	C98.983482,133.184784 100.993317,134.619690 103.284424,136.369461 
	C103.329010,140.730743 103.092331,144.777145 102.417694,148.766724 
	C95.826622,148.308655 90.231697,149.017151 87.397507,155.847321 
	C86.086563,156.547729 85.109016,157.277847 83.993805,158.203873 
	C83.856125,158.399765 83.739120,158.864120 83.397552,158.931473 
	C81.706749,159.670670 80.357521,160.342514 78.765305,161.173935 
	C78.450264,161.880035 78.378220,162.426559 78.255112,163.440247 
	C78.243179,173.647446 78.282310,183.387482 78.218384,193.079483 
	C78.115326,193.031433 77.896103,192.970993 77.671631,192.980484 
	C77.447159,192.989975 76.997871,192.997635 76.997871,192.997635 
z"/>
<path fill="#128CCD" opacity="1.000000" stroke="none" 
	d="
M149.997864,193.986694 
	C151.401581,195.451859 152.805283,196.917038 154.209000,198.382202 
	C153.932602,198.762253 153.656204,199.142319 153.379822,199.522369 
	C126.822922,199.522369 100.266022,199.522369 72.508362,199.522369 
	C74.072189,197.299179 75.184608,195.717728 76.903969,194.009384 
	C77.639313,193.578659 77.767700,193.274826 77.896103,192.970993 
	C77.896103,192.970993 78.115326,193.031433 78.572800,193.246063 
	C79.995621,193.647568 80.960739,193.996063 81.926384,193.997528 
	C102.738022,194.029099 123.549767,194.039749 144.361298,193.983414 
	C145.801147,193.979523 147.239471,193.421188 148.678513,193.120697 
	C148.678513,193.120697 148.885025,193.028366 149.018005,193.258423 
	C149.433258,193.654556 149.715561,193.820633 149.997864,193.986694 
z"/>
<path fill="#49257A" opacity="1.000000" stroke="none" 
	d="
M77.671631,192.980484 
	C77.767700,193.274826 77.639313,193.578659 77.256546,193.934601 
	C77.002167,193.986725 77.000229,193.492218 76.999054,193.244934 
	C76.997871,192.997635 77.447159,192.989975 77.671631,192.980484 
z"/>
<path fill="#49257A" opacity="1.000000" stroke="none" 
	d="
M149.998886,193.739441 
	C149.715561,193.820633 149.433258,193.654556 149.127411,193.229736 
	C149.103851,192.970993 149.552902,192.990005 149.777634,192.993820 
	C150.002365,192.997635 149.999908,193.492157 149.998886,193.739441 
z"/>
<path fill="#FFDD39" opacity="1.000000" stroke="none" 
	d="
M91.142380,126.005753 
	C81.544296,122.177361 78.100632,114.573456 78.308258,104.131683 
	C78.327484,100.694946 78.188316,97.953323 78.073578,94.907715 
	C78.062622,94.403679 78.027237,94.203636 78.080521,93.541794 
	C78.109703,85.718735 78.050224,78.357468 78.045563,70.708664 
	C78.080162,70.227051 78.059944,70.032959 78.035500,69.416313 
	C78.040085,66.742477 78.048897,64.491188 78.084106,61.928276 
	C78.074417,61.411304 78.038322,61.205956 78.002228,61.000603 
	C78.079239,60.237259 78.156250,59.473915 78.458588,58.229458 
	C78.858727,57.557693 78.976341,57.336613 79.479141,57.060230 
	C82.288864,57.055176 84.656219,57.074989 87.013992,57.553963 
	C87.001274,68.471451 86.914711,78.931198 87.092865,89.386436 
	C87.117134,90.810730 88.464066,92.212471 89.198593,93.624657 
	C89.792191,92.238358 90.882256,90.858582 90.900581,89.464722 
	C91.042374,78.676270 90.977051,67.885078 91.445320,57.068344 
	C107.930275,57.060951 123.945793,57.079960 139.972992,57.561279 
	C139.990112,74.186729 140.048813,90.350121 139.973480,106.512871 
	C139.945374,112.541855 138.194962,117.962761 133.435837,122.081032 
	C131.243286,123.978325 129.124847,125.961227 126.583405,127.939644 
	C125.154587,128.013214 124.115173,128.052460 122.603935,128.050217 
	C112.201294,127.629456 102.270470,127.250160 92.339645,126.870865 
	C92.339645,126.870865 92.117638,126.759537 91.967117,126.501732 
	C91.621872,126.079636 91.397133,126.000244 91.142380,126.005753 
M119.840866,80.959595 
	C117.736198,78.166641 115.631531,75.373688 112.876945,71.718269 
	C110.815269,78.839844 106.111801,82.426956 98.202095,83.061043 
	C105.029556,87.530533 105.612732,93.741402 104.565269,100.877083 
	C110.780106,96.314301 116.409729,96.904175 123.285355,101.887833 
	C121.570587,93.895493 121.863747,87.896645 129.676300,83.456848 
	C125.458565,82.314461 123.039383,81.659218 119.840866,80.959595 
M86.995026,102.590607 
	C87.678398,103.679092 88.361771,104.767578 89.045143,105.856064 
	C89.690575,104.736092 90.887337,103.593613 90.842781,102.501793 
	C90.786247,101.116844 89.721794,99.773041 89.091972,98.411491 
	C88.393211,99.532532 87.694450,100.653572 86.995026,102.590607 
z"/>
<path fill="#0FAFE7" opacity="1.000000" stroke="none" 
	d="
M148.736420,192.645203 
	C147.239471,193.421188 145.801147,193.979523 144.361298,193.983414 
	C123.549767,194.039749 102.738022,194.029099 81.926384,193.997528 
	C80.960739,193.996063 79.995621,193.647568 78.675858,193.294113 
	C78.282310,183.387482 78.243179,173.647446 78.441742,163.246582 
	C78.789047,162.061981 78.898674,161.538162 79.008301,161.014374 
	C80.357521,160.342514 81.706749,159.670670 83.879265,159.045990 
	C101.469421,159.039536 118.236290,158.985931 135.445267,159.031281 
	C138.337280,159.052322 140.787186,158.974411 143.237091,158.896500 
	C144.710114,159.404022 146.183136,159.911545 147.828522,160.989914 
	C148.231796,162.033203 148.462692,162.505661 148.693573,162.978104 
	C148.727158,172.708649 148.760727,182.439178 148.736420,192.645203 
M99.871773,187.402878 
	C109.265320,187.465103 118.658867,187.527313 128.272522,187.776901 
	C128.590088,187.861313 128.829971,187.758850 129.648911,187.130997 
	C134.514313,184.074951 136.286469,179.265930 134.496323,173.416092 
	C132.979233,168.458603 129.014862,167.907654 124.561684,167.983170 
	C116.439888,168.120895 108.293205,167.697479 100.202393,168.216827 
	C97.705116,168.377121 94.400070,170.259476 93.126198,172.360565 
	C89.923340,177.643295 92.486221,184.427444 98.178673,187.705109 
	C98.178673,187.705109 98.585701,187.799713 98.585701,187.799713 
	C98.585701,187.799713 98.948685,187.589294 99.871773,187.402878 
z"/>
<path fill="#FCC433" opacity="1.000000" stroke="none" 
	d="
M126.972794,127.905304 
	C129.124847,125.961227 131.243286,123.978325 133.435837,122.081032 
	C138.194962,117.962761 139.945374,112.541855 139.973480,106.512871 
	C140.048813,90.350121 139.990112,74.186729 140.240219,57.527344 
	C140.674088,57.012470 140.852402,56.993847 141.463867,56.980972 
	C144.201782,56.996651 146.506531,57.006580 148.811279,57.016510 
	C148.820694,58.082924 148.830124,59.149338 148.862244,60.919598 
	C148.897903,61.834053 148.910873,62.044662 148.934448,62.676857 
	C148.946472,65.356422 148.947906,67.614395 148.918121,70.155869 
	C148.924530,70.625755 148.962158,70.812141 148.917694,71.461258 
	C148.890533,79.283188 148.945465,86.642380 148.945435,94.303391 
	C148.903305,94.809296 148.916122,95.013405 148.937225,95.650124 
	C148.948914,98.678589 148.952347,101.274445 148.955780,103.870308 
	C148.903748,104.979134 148.851715,106.087967 148.605240,107.694481 
	C148.233627,108.507721 148.300629,108.765770 148.611801,108.966316 
	C147.928009,116.917892 143.759506,122.416832 136.125275,125.978333 
	C135.219574,126.191574 135.004303,126.416908 134.900192,126.748459 
	C134.900192,126.748459 134.874985,126.847954 134.429382,126.884476 
	C131.646790,127.249107 129.309799,127.577209 126.972794,127.905304 
z"/>
<path fill="#F4BF38" opacity="1.000000" stroke="none" 
	d="
M78.057709,62.239906 
	C78.048897,64.491188 78.040085,66.742477 77.768600,69.408241 
	C77.333748,69.868210 77.161568,69.913696 76.529999,69.870956 
	C71.048233,69.847969 66.025856,69.913216 60.752274,69.924957 
	C60.335720,69.915955 60.170376,69.960449 59.662121,70.134186 
	C60.535858,81.846489 66.285767,90.175911 77.258720,95.068199 
	C77.680672,95.210014 77.864906,95.210854 78.049149,95.211700 
	C78.188316,97.953323 78.327484,100.694946 78.271484,103.699127 
	C70.394814,100.121590 62.364132,96.270119 58.373444,88.315308 
	C55.336514,82.261673 53.725311,75.413101 52.077660,68.769920 
	C50.961388,64.269241 53.298969,62.063488 58.150635,62.259937 
	C64.108353,62.501183 70.084106,62.296803 76.778519,62.277992 
	C77.689224,62.260593 77.873474,62.250252 78.057709,62.239906 
z"/>
<path fill="#F0A250" opacity="1.000000" stroke="none" 
	d="
M148.949341,69.872368 
	C148.947906,67.614395 148.946472,65.356422 149.217072,62.685837 
	C149.671097,62.224098 149.853073,62.174973 150.035065,62.125847 
	C156.691940,62.270676 163.348724,62.514416 170.005722,62.520763 
	C173.614456,62.524204 174.973389,64.026321 175.053345,67.638008 
	C175.357697,81.383850 166.822189,95.257980 154.338409,101.001465 
	C152.701035,101.754784 151.192657,102.788452 149.290161,103.781296 
	C148.952347,101.274445 148.948914,98.678589 149.216232,95.642563 
	C149.653885,95.120209 149.820786,95.038025 150.331665,94.905998 
	C160.950027,89.799927 166.323914,81.445511 167.994888,69.956886 
	C161.546509,69.956886 155.779526,69.956886 149.749985,69.894775 
	C149.308060,69.845901 149.128693,69.859138 148.949341,69.872368 
z"/>
<path fill="#FFDF39" opacity="1.000000" stroke="none" 
	d="
M98.457497,44.991337 
	C114.332039,45.002266 130.206589,45.013195 146.713684,45.374435 
	C150.005203,47.961887 148.593018,49.956924 146.586182,51.972572 
	C145.152939,52.037479 144.110153,52.069633 142.595642,52.067394 
	C125.045547,52.012402 107.967148,51.991798 90.934441,51.620132 
	C93.472588,49.176487 95.965042,47.083912 98.457497,44.991337 
z"/>
<path fill="#F3A450" opacity="1.000000" stroke="none" 
	d="
M90.888748,51.971199 
	C107.967148,51.991798 125.045547,52.012402 142.534943,52.397362 
	C142.307526,54.166222 141.669098,55.570721 141.030701,56.975224 
	C140.852402,56.993847 140.674088,57.012470 140.228546,57.065029 
	C123.945793,57.079960 107.930275,57.060951 91.050827,57.039986 
	C89.132446,57.056953 88.078011,57.075882 87.023567,57.094803 
	C84.656219,57.074989 82.288864,57.055176 79.262115,57.029778 
	C78.602722,57.024197 78.168571,56.971046 78.168571,56.971046 
	C76.768600,55.579700 75.368622,54.188358 74.316826,52.437927 
	C78.739944,52.057453 82.814896,52.036057 87.077339,52.298203 
	C89.043961,55.768330 89.819359,52.997257 90.888748,51.971199 
z"/>
<path fill="#FEDD39" opacity="1.000000" stroke="none" 
	d="
M87.730911,155.877029 
	C90.231697,149.017151 95.826622,148.308655 102.886612,148.842239 
	C108.249939,148.889923 112.706398,148.805237 117.589340,148.791290 
	C120.068230,148.828339 122.120636,148.794632 124.173042,148.760925 
	C124.173042,148.760925 124.597923,148.768997 124.980652,149.136047 
	C126.899178,151.648087 128.434982,153.793045 129.504135,155.950150 
	C115.268631,155.933868 101.499771,155.905441 87.730911,155.877029 
z"/>
<path fill="#F4A74F" opacity="1.000000" stroke="none" 
	d="
M117.162849,148.720551 
	C112.706398,148.805237 108.249939,148.889923 103.324570,148.899078 
	C103.092331,144.777145 103.329010,140.730743 103.747353,136.336304 
	C108.959824,136.039551 113.990639,136.090836 118.765579,136.420380 
	C118.060760,140.705948 117.611801,144.713242 117.162849,148.720551 
z"/>
<path fill="#F8F6F4" opacity="1.000000" stroke="none" 
	d="
M90.934441,51.620132 
	C89.819359,52.997257 89.043961,55.768330 87.030060,51.958809 
	C84.204704,49.226406 81.614136,47.116936 79.023567,45.007462 
	C82.441971,42.207359 85.860374,39.407257 88.901413,36.916267 
	C91.425507,38.999443 94.709045,41.709400 98.225037,44.705345 
	C95.965042,47.083912 93.472588,49.176487 90.934441,51.620132 
z"/>
<path fill="#FDDC3A" opacity="1.000000" stroke="none" 
	d="
M119.021446,136.142105 
	C113.990639,136.090836 108.959824,136.039551 103.466080,136.021423 
	C100.993317,134.619690 98.983482,133.184784 97.350800,131.388214 
	C106.170609,130.992798 114.613274,130.959030 123.276497,130.971130 
	C123.497063,131.016998 123.942459,131.085129 123.821625,131.377838 
	C122.798080,133.121948 121.895370,134.573380 120.664261,136.045029 
	C119.897713,136.090866 119.459579,136.116486 119.021446,136.142105 
z"/>
<path fill="#FCDC3B" opacity="1.000000" stroke="none" 
	d="
M78.570251,45.005482 
	C81.614136,47.116936 84.204704,49.226406 86.842560,51.675270 
	C82.814896,52.036057 78.739944,52.057453 74.183578,52.135368 
	C70.264923,53.482525 68.112694,51.809700 68.165894,48.661758 
	C68.187019,47.411594 70.912865,45.784470 72.701630,45.112984 
	C74.295792,44.514565 76.295952,44.997684 78.570251,45.005482 
z"/>
<path fill="#F8A54F" opacity="1.000000" stroke="none" 
	d="
M87.397507,155.847321 
	C101.499771,155.905441 115.268631,155.933868 129.886200,155.971451 
	C131.498474,155.991837 132.262070,156.003052 133.126495,156.272171 
	C133.496002,157.014679 133.764648,157.499268 133.562592,157.988800 
	C116.771729,157.998474 100.451607,158.003220 84.131477,158.007965 
	C85.109016,157.277847 86.086563,156.547729 87.397507,155.847321 
z"/>
<path fill="#F6A54F" opacity="1.000000" stroke="none" 
	d="
M123.055923,130.925278 
	C114.613274,130.959030 106.170609,130.992798 97.243622,131.058075 
	C95.278366,129.916611 93.797432,128.743607 92.328064,127.220749 
	C102.270470,127.250160 112.201294,127.629456 122.589340,128.403351 
	C123.049683,129.507065 123.052803,130.216171 123.055923,130.925278 
z"/>
<path fill="#CA8C58" opacity="1.000000" stroke="none" 
	d="
M118.765579,136.420380 
	C119.459579,136.116486 119.897713,136.090866 121.061646,136.055450 
	C122.578751,136.078171 123.370071,136.110672 124.161377,136.143158 
	C123.980003,140.150635 123.798637,144.158127 123.895157,148.463257 
	C122.120636,148.794632 120.068230,148.828339 117.589340,148.791290 
	C117.611801,144.713242 118.060760,140.705948 118.765579,136.420380 
z"/>
<path fill="#FAC434" opacity="1.000000" stroke="none" 
	d="
M146.976624,51.939819 
	C148.593018,49.956924 150.005203,47.961887 147.178894,45.440590 
	C149.318863,45.098495 151.725983,44.609692 153.903046,45.113968 
	C155.767395,45.545811 158.549759,46.856903 158.850662,48.232967 
	C159.577850,51.558498 156.702850,52.063965 153.194733,52.100655 
	C150.563644,52.050613 148.770126,51.995216 146.976624,51.939819 
z"/>
<path fill="#FBC73A" opacity="1.000000" stroke="none" 
	d="
M133.025650,156.014267 
	C132.262070,156.003052 131.498474,155.991837 130.352844,155.959320 
	C128.434982,153.793045 126.899178,151.648087 125.175354,149.221130 
	C130.985916,148.114685 136.307877,148.799820 138.683823,155.602386 
	C136.554138,155.979843 134.789886,155.997055 133.025650,156.014267 
z"/>
<path fill="#FFA73F" opacity="1.000000" stroke="none" 
	d="
M83.993805,158.203857 
	C100.451607,158.003220 116.771729,157.998474 133.770966,158.093430 
	C134.711166,158.382111 134.895523,158.628510 135.003159,158.932312 
	C118.236290,158.985931 101.469421,159.039536 84.220840,158.978638 
	C83.739120,158.864120 83.856125,158.399765 83.993805,158.203857 
z"/>
<path fill="#C5865B" opacity="1.000000" stroke="none" 
	d="
M146.586182,51.972572 
	C148.770126,51.995216 150.563644,52.050613 152.803970,52.166088 
	C151.967041,53.715721 150.683273,55.205280 149.105392,56.855675 
	C146.506531,57.006580 144.201782,56.996651 141.463867,56.980968 
	C141.669098,55.570721 142.307526,54.166222 143.006653,52.431755 
	C144.110153,52.069633 145.152939,52.037479 146.586182,51.972572 
z"/>
<path fill="#CE8C57" opacity="1.000000" stroke="none" 
	d="
M123.276489,130.971130 
	C123.052803,130.216171 123.049683,129.507065 123.061157,128.444824 
	C124.115173,128.052460 125.154587,128.013214 126.583405,127.939644 
	C129.309799,127.577209 131.646790,127.249107 134.379303,126.895630 
	C133.506516,128.271698 132.238220,129.673157 130.164062,131.038544 
	C127.552940,131.030029 125.747704,131.057571 123.942459,131.085129 
	C123.942459,131.085129 123.497063,131.016998 123.276489,130.971130 
z"/>
<path fill="#F7C136" opacity="1.000000" stroke="none" 
	d="
M123.821625,131.377838 
	C125.747704,131.057571 127.552940,131.030029 129.810669,131.024338 
	C128.460556,132.715576 126.657951,134.384979 124.508362,136.098755 
	C123.370071,136.110672 122.578751,136.078171 121.390053,136.035248 
	C121.895370,134.573380 122.798080,133.121948 123.821625,131.377838 
z"/>
<path fill="#D58F56" opacity="1.000000" stroke="none" 
	d="
M135.445267,159.031281 
	C134.895523,158.628510 134.711166,158.382111 134.241699,158.088501 
	C133.764648,157.499268 133.496002,157.014679 133.126495,156.272171 
	C134.789886,155.997055 136.554138,155.979843 138.762329,155.953156 
	C140.503189,156.697342 141.800079,157.451004 143.167023,158.550583 
	C140.787186,158.974411 138.337280,159.052322 135.445267,159.031281 
z"/>
<path fill="#128CCD" opacity="1.000000" stroke="none" 
	d="
M148.766663,162.696213 
	C148.462692,162.505661 148.231796,162.033203 147.996292,161.287552 
	C148.274368,161.481003 148.557053,161.947662 148.766663,162.696213 
z"/>
<path fill="#128CCD" opacity="1.000000" stroke="none" 
	d="
M78.765305,161.173920 
	C78.898674,161.538162 78.789047,162.061981 78.492798,162.779449 
	C78.378220,162.426559 78.450264,161.880035 78.765305,161.173920 
z"/>
<path fill="#CE8C57" opacity="1.000000" stroke="none" 
	d="
M135.133682,126.716919 
	C135.004303,126.416908 135.219574,126.191574 135.785950,126.053909 
	C135.889206,126.336044 135.669632,126.552711 135.133682,126.716919 
z"/>
<path fill="#F6A54F" opacity="1.000000" stroke="none" 
	d="
M91.239922,126.171890 
	C91.397133,126.000244 91.621872,126.079636 91.931953,126.382645 
	C92.047318,126.521355 91.663322,126.542076 91.663322,126.542076 
	C91.663322,126.542076 91.337463,126.338028 91.239922,126.171890 
z"/>
<path fill="#F0A250" opacity="1.000000" stroke="none" 
	d="
M148.706512,108.734268 
	C148.300629,108.765770 148.233627,108.507721 148.539368,108.105591 
	C148.712372,108.180084 148.756805,108.341156 148.706512,108.734268 
z"/>
<path fill="#3B2882" opacity="1.000000" stroke="none" 
	d="
M149.928741,61.882320 
	C149.853073,62.174973 149.671097,62.224098 149.206482,62.264248 
	C148.910873,62.044662 148.897903,61.834053 148.940857,61.311932 
	C149.272003,61.213207 149.547195,61.426003 149.928741,61.882320 
z"/>
<path fill="#3B2782" opacity="1.000000" stroke="none" 
	d="
M78.084106,61.928276 
	C77.873474,62.250252 77.689224,62.260593 77.239372,62.192982 
	C77.160614,61.823574 77.347466,61.532120 77.768265,61.120632 
	C78.038322,61.205956 78.074417,61.411304 78.084106,61.928276 
z"/>
<path fill="#F4BF38" opacity="1.000000" stroke="none" 
	d="
M78.168526,57.226120 
	C78.168571,56.971046 78.602722,57.024197 78.819740,57.054649 
	C78.976341,57.336613 78.858727,57.557693 78.524101,57.850304 
	C78.299011,57.795235 78.233742,57.638214 78.168526,57.226120 
z"/>
<path fill="#FEC632" opacity="1.000000" stroke="none" 
	d="
M120.230530,80.981781 
	C123.039383,81.659218 125.458565,82.314461 129.676300,83.456848 
	C121.863747,87.896645 121.570587,93.895493 123.285355,101.887833 
	C116.409729,96.904175 110.780106,96.314301 104.565269,100.877083 
	C105.612732,93.741402 105.029556,87.530533 98.202095,83.061043 
	C106.111801,82.426956 110.815269,78.839844 112.876945,71.718269 
	C115.631531,75.373688 117.736198,78.166641 120.230530,80.981781 
z"/>
<path fill="#49317F" opacity="1.000000" stroke="none" 
	d="
M77.021011,94.927231 
	C66.285767,90.175911 60.535858,81.846489 59.755547,70.299210 
	C60.462418,70.216141 60.732948,70.097298 61.003479,69.978462 
	C66.025856,69.913216 71.048233,69.847969 76.631790,70.100174 
	C77.458900,70.610481 77.724823,70.803337 77.990753,70.996201 
	C78.050224,78.357468 78.109703,85.718735 77.866837,93.634506 
	C77.295021,94.370041 77.113853,94.616119 77.021011,94.927231 
z"/>
<path fill="#FFE771" opacity="1.000000" stroke="none" 
	d="
M87.013992,57.553963 
	C88.078011,57.075882 89.132446,57.056953 90.581383,57.066383 
	C90.977051,67.885078 91.042374,78.676270 90.900581,89.464722 
	C90.882256,90.858582 89.792191,92.238358 89.198593,93.624657 
	C88.464066,92.212471 87.117134,90.810730 87.092865,89.386436 
	C86.914711,78.931198 87.001274,68.471451 87.013992,57.553963 
z"/>
<path fill="#FFE76F" opacity="1.000000" stroke="none" 
	d="
M86.995354,102.182602 
	C87.694450,100.653572 88.393211,99.532532 89.091972,98.411491 
	C89.721794,99.773041 90.786247,101.116844 90.842781,102.501793 
	C90.887337,103.593613 89.690575,104.736092 89.045143,105.856064 
	C88.361771,104.767578 87.678398,103.679092 86.995354,102.182602 
z"/>
<path fill="#371F83" opacity="1.000000" stroke="none" 
	d="
M77.258720,95.068199 
	C77.113853,94.616119 77.295021,94.370041 77.778175,94.096298 
	C78.027237,94.203636 78.062622,94.403679 78.073578,94.907715 
	C77.864906,95.210854 77.680672,95.210014 77.258720,95.068199 
z"/>
<path fill="#371F83" opacity="1.000000" stroke="none" 
	d="
M78.045563,70.708664 
	C77.724823,70.803337 77.458900,70.610481 77.091179,70.188400 
	C77.161568,69.913696 77.333748,69.868210 77.772827,69.830795 
	C78.059944,70.032959 78.080162,70.227051 78.045563,70.708664 
z"/>
<path fill="#FCFEFF" opacity="1.000000" stroke="none" 
	d="
M128.052414,187.589539 
	C118.658867,187.527313 109.265320,187.465103 99.185760,187.383514 
	C98.336090,187.399414 98.172440,187.434692 98.008797,187.469971 
	C92.486221,184.427444 89.923340,177.643295 93.126198,172.360565 
	C94.400070,170.259476 97.705116,168.377121 100.202393,168.216827 
	C108.293205,167.697479 116.439888,168.120895 124.561684,167.983170 
	C129.014862,167.907654 132.979233,168.458603 134.496323,173.416092 
	C136.286469,179.265930 134.514313,184.074951 129.075073,187.247711 
	C128.351624,187.439453 128.202026,187.514496 128.052414,187.589539 
z"/>
<path fill="#38BBEC" opacity="1.000000" stroke="none" 
	d="
M98.093735,187.587540 
	C98.172440,187.434692 98.336090,187.399414 98.724213,187.476715 
	C98.948685,187.589294 98.585701,187.799713 98.585701,187.799713 
	C98.585701,187.799713 98.178673,187.705109 98.093735,187.587540 
z"/>
<path fill="#38BBEC" opacity="1.000000" stroke="none" 
	d="
M128.162476,187.683228 
	C128.202026,187.514496 128.351624,187.439453 128.746704,187.416977 
	C128.829971,187.758850 128.590088,187.861313 128.162476,187.683228 
z"/>
<path fill="#49317F" opacity="1.000000" stroke="none" 
	d="
M150.012527,69.956886 
	C155.779526,69.956886 161.546509,69.956886 167.994888,69.956886 
	C166.323914,81.445511 160.950027,89.799927 150.227295,94.691544 
	C149.581070,94.260498 149.321533,94.085388 149.000397,94.001579 
	C148.945465,86.642380 148.890533,79.283188 149.145599,71.352829 
	C149.641235,70.506737 149.826874,70.231812 150.012527,69.956886 
z"/>
<path fill="#392483" opacity="1.000000" stroke="none" 
	d="
M148.945435,94.303391 
	C149.321533,94.085388 149.581070,94.260498 149.883331,94.741379 
	C149.820786,95.038025 149.653885,95.120209 149.207977,95.209961 
	C148.916122,95.013405 148.903305,94.809296 148.945435,94.303391 
z"/>
<path fill="#392483" opacity="1.000000" stroke="none" 
	d="
M149.749985,69.894775 
	C149.826874,70.231812 149.641235,70.506737 149.227692,70.890099 
	C148.962158,70.812141 148.924530,70.625755 148.918121,70.155869 
	C149.128693,69.859138 149.308060,69.845901 149.749985,69.894775 
z"/>
<path fill="#371F83" opacity="1.000000" stroke="none" 
	d="
M60.752274,69.924957 
	C60.732948,70.097298 60.462418,70.216141 60.098457,70.169968 
	C60.170376,69.960449 60.335720,69.915955 60.752274,69.924957 
z"/>
</svg>