<svg version="1.1" id="Layer_1" xmlns="http://www.w3.org/2000/svg" xmlns:xlink="http://www.w3.org/1999/xlink" x="0px" y="0px"
	 width="100%" viewBox="0 0 225 225" enable-background="new 0 0 225 225" xml:space="preserve">
<path fill="#27157C" opacity="1.000000" stroke="none" 
	d="
M105.000000,1.000001 
	C110.354927,1.000000 115.709862,1.000000 121.709991,1.304794 
	C123.271507,1.688391 124.187805,1.767194 125.527664,1.895591 
	C131.470734,3.188964 136.936951,4.803821 142.519943,5.605445 
	C157.942368,7.819852 170.679825,15.738108 182.504089,24.949085 
	C194.098389,33.980915 203.892395,44.938927 210.799988,58.163475 
	C209.417892,60.234756 208.309418,62.114452 207.084488,63.662323 
	C206.582108,62.229694 206.196167,61.128887 205.754883,59.695381 
	C204.298721,59.956818 202.157150,60.170845 201.623901,61.210125 
	C199.163757,66.004669 197.151489,71.029037 194.630859,75.906693 
	C193.052048,73.568954 191.821014,71.295540 190.753265,68.688599 
	C192.456528,65.039818 194.723343,61.861191 195.377899,58.379471 
	C196.564285,52.068771 197.319855,45.475010 191.680176,40.249115 
	C189.646729,43.036232 187.486694,45.606834 186.373138,48.570629 
	C185.107788,51.938389 184.778076,55.657684 183.729263,59.084648 
	C182.264938,57.593513 181.113007,56.241890 179.960770,54.522327 
	C180.696625,52.507542 181.517990,50.892906 182.154572,49.208439 
	C185.392197,40.641346 184.839020,32.547180 178.661438,25.158587 
	C173.458633,30.950100 172.906937,37.890015 172.660706,45.021492 
	C171.574387,44.676540 170.815628,44.309864 169.917465,43.608017 
	C166.640350,33.997147 161.151428,27.112665 150.774231,24.662468 
	C146.355408,23.263102 147.843658,26.249624 148.264175,27.748707 
	C150.971161,37.398418 157.714310,43.023994 167.107468,46.315979 
	C168.140366,48.055103 169.047073,49.487663 169.543121,50.950325 
	C161.480347,49.236244 154.240723,49.761665 147.846497,54.872734 
	C147.862305,54.893661 147.901123,54.858540 147.664307,54.952049 
	C147.620468,55.355263 147.813431,55.664967 148.109772,56.323315 
	C152.478653,58.190403 156.744171,59.708851 161.001068,61.601307 
	C160.707916,63.181973 160.423370,64.388634 159.923843,65.778343 
	C159.413330,66.664902 159.117798,67.368408 159.010345,68.378540 
	C159.995193,69.351845 160.707794,70.172501 161.601852,70.661232 
	C169.842865,75.166168 178.278870,76.399361 187.135849,72.304550 
	C188.576706,75.932312 189.876144,79.234055 190.858932,82.299072 
	C188.566803,81.282814 186.636841,80.347923 184.607239,79.753098 
	C178.673538,78.014061 172.707245,76.511810 167.207520,81.299393 
	C171.857880,84.511894 176.481171,87.380821 181.243591,90.431900 
	C181.626450,90.817505 181.906342,90.934700 182.383118,91.119339 
	C182.543854,91.273026 182.594666,91.714890 182.226685,91.799255 
	C180.257889,92.834122 178.657104,93.784615 176.680435,94.834213 
	C175.537689,95.030632 174.770798,95.127945 173.757233,95.224251 
	C173.420700,95.688515 173.330841,96.153786 173.049591,96.930786 
	C171.351135,98.266365 169.919296,99.428886 168.325806,100.293419 
	C141.660355,114.760445 113.588318,118.093513 84.265060,110.553818 
	C73.305946,107.735970 62.759640,103.815689 53.740196,96.373825 
	C53.482769,95.824944 53.239346,95.525482 52.622246,95.120102 
	C51.480961,94.921738 50.713364,94.829277 49.728409,94.517609 
	C48.320553,92.945213 47.130054,91.592026 46.286484,90.091232 
	C51.004791,86.946220 55.376171,83.948814 59.786926,80.581558 
	C55.480831,79.668114 51.094383,78.494354 46.802425,78.773491 
	C43.142982,79.011490 39.592201,80.920242 35.863235,81.722748 
	C37.157051,78.230766 38.580986,75.105934 40.374924,72.012497 
	C50.763943,76.717194 59.954758,75.653549 68.459717,67.969559 
	C68.105919,67.109367 67.498116,66.359192 66.805977,65.264297 
	C66.675667,63.869251 66.629700,62.818920 66.931664,61.784401 
	C71.184616,59.859394 75.089630,57.918575 79.243446,55.921783 
	C79.366776,55.524620 79.241310,55.183430 79.139442,54.850548 
	C79.163033,54.858856 79.191841,54.817852 79.000114,54.524956 
	C72.084572,49.777630 64.735619,49.384762 57.082642,50.560074 
	C58.053478,48.824165 59.036186,47.418106 60.351276,45.882580 
	C70.510468,42.130196 77.585526,36.081303 78.869118,24.666897 
	C72.335503,24.763550 67.036087,27.687517 63.165539,32.612316 
	C60.475491,36.035072 58.676556,40.158180 56.179768,44.155167 
	C55.249386,44.627651 54.618752,44.913368 53.657681,45.006638 
	C54.894260,38.364483 53.254299,32.478848 49.952080,26.987127 
	C49.537457,26.297592 48.015324,26.274008 46.741264,26.037584 
	C46.329571,26.459259 46.182945,26.785217 45.817619,27.252512 
	C45.527782,27.903173 45.456642,28.412500 45.187046,29.236485 
	C44.456974,31.386093 43.925358,33.221050 43.271805,35.270981 
	C43.149872,35.485958 43.234753,35.972919 43.055466,36.319038 
	C42.989967,38.788067 43.103756,40.910984 43.161884,43.375999 
	C43.411037,44.790138 43.715851,45.862175 44.050224,47.302917 
	C44.777195,49.175476 45.474613,50.679329 46.148422,52.532677 
	C44.756264,54.912346 43.387718,56.942524 41.998272,58.535492 
	C42.106731,51.172771 40.337910,44.988438 34.628326,40.151802 
	C31.562147,45.441273 28.260586,50.645958 31.003523,57.058159 
	C32.821075,61.307076 34.527893,65.603363 35.938248,70.020065 
	C34.722771,72.104469 33.853325,74.047264 32.616692,75.904961 
	C30.160831,69.483658 28.285362,63.014969 21.645546,59.321224 
	C20.559998,60.928116 19.811726,62.510899 19.016836,63.737061 
	C17.954672,61.578899 16.939125,59.777359 15.986046,57.629143 
	C26.459427,39.235165 40.785324,25.054216 59.089958,15.229011 
	C65.786057,11.634809 73.234413,9.310073 80.527687,7.000093 
	C86.945053,4.967541 93.628464,3.778076 100.178841,2.153617 
	C100.526535,2.067390 100.729607,1.397942 101.000000,1.000000 
	C101.000000,1.000000 101.500000,1.000000 101.867386,1.307602 
	C103.156509,1.410136 104.078255,1.205069 105.000000,1.000001 
z"/>
<path fill="#FDFDFE" opacity="1.000000" stroke="none" 
	d="
M211.073593,57.971886 
	C203.892395,44.938927 194.098389,33.980915 182.504089,24.949085 
	C170.679825,15.738108 157.942368,7.819852 142.519943,5.605445 
	C136.936951,4.803821 131.470734,3.188964 125.499573,1.684346 
	C125.047913,1.423505 125.000000,1.000000 125.000000,1.000000 
	C158.593231,1.000000 192.186478,1.000000 226.000000,1.000000 
	C226.000000,34.020569 226.000000,67.041626 225.629852,100.362823 
	C223.346848,85.496910 219.244247,71.058495 211.073593,57.971886 
z"/>
<path fill="#FDFDFE" opacity="1.000000" stroke="none" 
	d="
M100.531342,1.000000 
	C100.729607,1.397942 100.526535,2.067390 100.178841,2.153617 
	C93.628464,3.778076 86.945053,4.967541 80.527687,7.000093 
	C73.234413,9.310073 65.786057,11.634809 59.089958,15.229011 
	C40.785324,25.054216 26.459427,39.235165 15.707512,57.832176 
	C11.953451,66.588173 8.181349,74.668854 5.251064,83.044052 
	C3.230788,88.818306 2.375779,95.000252 1.000000,101.000000 
	C1.000000,67.739731 1.000000,34.479462 1.000000,1.000000 
	C34.020573,1.000000 67.041626,1.000000 100.531342,1.000000 
z"/>
<path fill="#FEFDFE" opacity="1.000000" stroke="none" 
	d="
M226.000000,126.000000 
	C226.000000,159.260635 226.000000,192.521255 226.000000,226.000000 
	C192.646088,226.000000 159.291702,226.000000 125.642517,225.625366 
	C137.792587,223.876099 149.915512,221.387833 161.122574,214.676270 
	C164.298279,213.028625 167.254257,211.676315 170.522339,210.246124 
	C171.858749,209.451080 172.883041,208.733917 174.258743,207.990326 
	C177.756104,205.339844 180.902054,202.715775 184.346924,199.919800 
	C187.242004,197.540665 189.838150,195.333466 192.683105,193.022415 
	C193.137924,192.631134 193.343933,192.343704 193.831055,191.923462 
	C199.150803,185.223450 204.189438,178.656265 209.508362,171.901749 
	C213.839920,162.157120 218.199127,152.714615 221.821579,142.997482 
	C223.845978,137.567108 224.647461,131.680847 226.000000,126.000000 
z"/>
<path fill="#FEFDFE" opacity="1.000000" stroke="none" 
	d="
M100.000000,226.000000 
	C67.072693,226.000000 34.145393,226.000000 1.000000,226.000000 
	C1.000000,192.979431 1.000000,159.958374 1.370056,126.637520 
	C2.143583,129.107925 2.405447,131.907562 2.973893,134.643494 
	C6.250072,150.411713 11.778606,165.223434 21.791935,178.469574 
	C25.722368,183.230453 29.586237,187.643295 33.560883,192.303070 
	C33.968513,192.741943 34.265373,192.933868 34.735168,193.433167 
	C37.334248,195.754990 39.760384,197.769455 42.098480,200.135010 
	C45.704517,202.996338 49.398602,205.506592 53.269867,208.280548 
	C54.563194,209.139618 55.679340,209.735001 57.015022,210.587555 
	C60.126945,212.291000 63.019329,213.737259 66.116211,215.473480 
	C71.890327,217.800888 77.385719,220.082199 83.050644,221.806549 
	C88.610748,223.498978 94.343193,224.625259 100.000000,226.000000 
z"/>
<path fill="#1C0B64" opacity="1.000000" stroke="none" 
	d="
M226.000000,125.531349 
	C224.647461,131.680847 223.845978,137.567108 221.821579,142.997482 
	C218.199127,152.714615 213.839920,162.157120 209.167145,171.912018 
	C207.623825,172.712830 206.701996,173.316040 205.851532,173.616882 
	C205.618866,172.891968 205.314850,172.469406 204.675751,171.810867 
	C201.545502,171.451828 198.750351,171.328751 195.640991,171.075165 
	C194.974243,170.038483 194.621658,169.132324 194.664886,168.224091 
	C203.910889,166.901291 210.468719,162.434067 214.237778,154.173294 
	C214.184616,154.134644 214.162399,154.264206 214.400879,154.150269 
	C214.698868,153.703278 214.758392,153.370209 214.705505,152.642319 
	C208.732361,153.511795 202.871628,154.776108 196.757919,155.731171 
	C196.945786,153.938522 197.386627,152.455139 197.951447,150.825531 
	C198.075424,150.679306 198.114609,150.297897 198.499908,150.215820 
	C209.314468,148.400055 215.996719,142.305557 219.349319,132.424103 
	C219.571365,131.769653 219.116272,130.885468 218.585510,130.025406 
	C211.431961,130.608154 206.078003,133.880264 201.708221,138.394409 
	C202.125732,135.267731 202.493393,132.627625 203.094589,129.871460 
	C203.571091,129.510590 203.814056,129.265762 204.409088,129.001923 
	C210.604172,126.349579 215.171432,122.193527 217.328018,116.216225 
	C218.423035,113.181206 217.850601,109.544579 217.673355,106.124084 
	C212.586655,109.953918 207.858566,113.839600 203.156097,117.293602 
	C203.089432,114.244003 202.997177,111.626076 203.154266,108.779411 
	C204.734161,107.568756 206.141678,106.674866 207.382523,105.590279 
	C214.262421,99.576813 217.571350,89.291443 214.623672,82.145615 
	C208.170776,85.412117 203.777740,90.156555 201.623871,96.913437 
	C200.474091,93.564575 199.684174,90.340355 199.185745,86.929535 
	C205.905396,80.468376 208.047012,72.738457 207.200928,63.994144 
	C208.309418,62.114452 209.417892,60.234756 210.799988,58.163475 
	C219.244247,71.058495 223.346848,85.496910 225.629852,100.831482 
	C226.000000,109.020897 226.000000,117.041801 226.000000,125.531349 
z"/>
<path fill="#1C0B64" opacity="1.000000" stroke="none" 
	d="
M21.725372,178.121552 
	C11.778606,165.223434 6.250072,150.411713 2.973893,134.643494 
	C2.405447,131.907562 2.143583,129.107925 1.370056,126.168861 
	C1.000000,117.979103 1.000000,109.958199 1.000000,101.468651 
	C2.375779,95.000252 3.230788,88.818306 5.251064,83.044052 
	C8.181349,74.668854 11.953451,66.588173 15.645042,58.178848 
	C16.939125,59.777359 17.954672,61.578899 18.985209,64.174530 
	C18.755724,73.700310 21.729393,81.108452 28.099552,87.497864 
	C27.065081,90.935371 26.039886,93.990921 24.987619,96.682961 
	C22.479872,89.940933 18.866850,84.600166 11.675407,82.403687 
	C9.848989,94.170578 14.694091,102.691406 24.061901,109.446915 
	C23.975584,112.498680 23.922699,115.111954 23.595448,117.573761 
	C19.611116,112.304054 15.731202,107.402710 8.576950,106.127625 
	C7.790124,106.984932 6.896628,108.011505 7.080269,108.781036 
	C9.277160,117.986794 13.585233,125.615097 23.134251,129.511444 
	C23.924854,132.880310 24.637411,135.885223 25.152843,138.549759 
	C20.148138,133.738083 14.999780,129.976669 7.655265,130.143524 
	C9.407772,141.129959 17.279125,148.456024 28.905596,150.489853 
	C28.925430,150.681274 29.174963,150.974319 29.215485,151.296051 
	C29.800110,153.022537 30.344213,154.427277 30.520763,155.945099 
	C28.501818,155.397278 26.898272,154.370972 25.189644,154.147293 
	C20.878374,153.582825 16.519787,153.379745 12.153692,153.295624 
	C12.365128,153.794250 12.603031,154.029099 12.827058,154.199036 
	C12.813180,154.134125 12.707946,154.215057 12.797031,154.550018 
	C17.190077,162.251648 22.991793,167.452057 32.123367,168.416443 
	C31.869303,169.574890 31.451813,170.389694 30.609921,171.115997 
	C27.453695,171.368134 24.721869,171.708725 21.654346,172.028168 
	C22.171869,173.838272 23.025091,175.669525 23.342785,177.665359 
	C22.446630,177.927155 22.086000,178.024353 21.725372,178.121552 
z"/>
<path fill="#1B0965" opacity="1.000000" stroke="none" 
	d="
M100.468651,226.000000 
	C94.343193,224.625259 88.610748,223.498978 83.050644,221.806549 
	C77.385719,220.082199 71.890327,217.800888 66.492111,215.349884 
	C71.438004,212.910980 76.212502,210.885651 81.313171,209.015228 
	C103.157181,219.709793 124.623459,219.742630 146.363953,208.976074 
	C151.428802,211.055893 156.165817,213.013748 160.902832,214.971588 
	C149.915512,221.387833 137.792587,223.876099 125.173859,225.625366 
	C116.979103,226.000000 108.958199,226.000000 100.468651,226.000000 
z"/>
<path fill="#9E99BB" opacity="1.000000" stroke="none" 
	d="
M104.625000,1.000001 
	C104.078255,1.205069 103.156509,1.410136 102.117386,1.307602 
	C102.750000,1.000000 103.500000,1.000000 104.625000,1.000001 
z"/>
<path fill="#9E99BB" opacity="1.000000" stroke="none" 
	d="
M124.625000,1.000000 
	C125.000000,1.000000 125.047913,1.423505 125.076012,1.634751 
	C124.187805,1.767194 123.271507,1.688391 122.177597,1.304794 
	C122.750000,1.000000 123.500000,1.000000 124.625000,1.000000 
z"/>
<path fill="#1B0764" opacity="1.000000" stroke="none" 
	d="
M53.754208,96.623230 
	C62.759640,103.815689 73.305946,107.735970 84.265060,110.553818 
	C113.588318,118.093513 141.660355,114.760445 168.325806,100.293419 
	C169.919296,99.428886 171.351135,98.266365 173.253235,96.999390 
	C173.648270,96.756264 174.047699,96.918907 174.018921,96.944138 
	C173.990143,96.969368 174.065323,96.960365 174.098175,97.302223 
	C177.302994,102.987038 181.821457,106.819580 187.693558,108.709534 
	C191.318039,109.876083 195.182343,110.297493 198.847733,111.508072 
	C198.814819,116.017799 198.873154,120.072891 198.607590,124.015511 
	C193.585846,117.069031 187.389191,112.508942 178.986664,111.518738 
	C178.119965,111.416595 177.118179,112.460762 176.180725,113.328979 
	C180.216141,123.405304 187.204727,129.226562 197.878815,130.115738 
	C197.851059,130.083679 197.804077,130.154297 197.857574,130.552460 
	C196.656464,134.686188 195.401840,138.421753 194.062958,141.800140 
	C191.085999,134.418304 185.796875,129.958755 178.764969,127.494087 
	C177.772263,127.146141 175.179001,125.217201 175.960663,129.345093 
	C177.593903,139.994476 183.992126,146.199081 193.206665,150.336090 
	C191.759872,153.268066 190.349030,155.822510 188.572510,158.280273 
	C184.646545,151.306412 181.144318,144.375824 172.712494,141.542999 
	C170.832733,152.279144 175.768768,162.189026 185.055359,167.329681 
	C182.677368,170.487732 180.378036,173.293076 178.034973,175.654877 
	C178.532593,166.744553 174.732605,160.289658 168.493942,155.041351 
	C168.002518,154.627930 166.866211,154.981064 165.809052,155.332230 
	C163.254318,166.374390 167.203156,174.839752 174.638474,182.189392 
	C171.570786,184.953049 168.754913,187.510086 165.980408,189.665649 
	C167.112564,180.751343 165.685089,173.007889 159.145203,166.834915 
	C159.125504,166.849503 159.153214,166.889862 159.049759,166.647797 
	C158.625793,166.602264 158.305267,166.798798 157.686874,167.211884 
	C152.925140,177.305756 154.739609,186.400848 160.530640,195.133072 
	C157.191650,196.839737 154.141754,198.377838 151.022354,199.495941 
	C151.195068,197.457672 151.531723,195.847015 151.662750,194.219803 
	C152.164093,187.993881 151.913605,181.950714 146.694916,177.307999 
	C140.241913,185.682541 138.836227,194.509781 143.078293,204.381409 
	C142.627197,205.086777 142.350388,205.580811 141.934784,205.770157 
	C123.440491,214.195648 104.868782,214.670120 86.261208,206.168396 
	C85.316147,205.736603 84.622742,204.754028 84.002930,203.681335 
	C87.802353,193.815216 87.009071,185.003036 79.637955,177.130814 
	C75.537788,182.668716 74.402168,188.766617 75.526909,195.396637 
	C75.777786,196.875488 75.314445,198.475510 74.815186,200.082397 
	C71.693565,198.418198 68.936684,196.691330 66.266098,194.639771 
	C72.605392,185.731537 74.304184,176.703751 68.961212,166.737045 
	C68.552040,166.616379 68.199165,166.753189 67.860428,166.869186 
	C67.874573,166.848389 67.834229,166.818268 67.530518,166.974014 
	C61.577641,173.395493 59.797138,180.775620 60.574970,189.066956 
	C57.519154,186.752808 54.816841,184.366241 52.238373,181.674164 
	C60.480350,174.284454 63.979214,165.692764 60.917141,154.634216 
	C53.647743,156.698441 47.721298,166.869843 47.799995,176.054199 
	C45.579838,173.009979 43.722485,169.992691 42.170307,166.819244 
	C48.543114,162.793777 52.906857,157.531387 54.365242,150.439117 
	C54.935596,147.665421 54.146793,144.612244 53.622280,141.759491 
	C45.118652,145.769211 40.342896,152.204803 38.604618,161.047821 
	C36.760410,157.274796 35.267166,153.604675 34.102322,149.789047 
	C43.618847,145.680420 49.960472,139.439148 51.152393,128.681274 
	C50.258896,128.117462 49.053391,127.330368 48.178101,127.603088 
	C41.068935,129.818176 36.192883,134.655701 32.575729,141.337616 
	C31.234680,137.706039 30.202103,133.940369 29.156288,130.152466 
	C29.143051,130.130219 29.094496,130.147995 29.457785,130.164230 
	C30.907856,130.349792 32.264961,131.024521 33.039570,130.610214 
	C40.699497,126.513206 48.519772,122.492920 50.929935,112.597160 
	C49.936867,111.979988 48.804611,111.432663 47.739170,111.541199 
	C39.088638,112.422470 33.317844,117.885788 28.094692,123.664597 
	C28.097509,119.144943 28.078510,115.096069 28.316532,110.768768 
	C29.211395,110.356674 29.851643,110.096237 30.486725,110.108276 
	C40.657742,110.301025 48.039143,105.760406 52.971844,96.964050 
	C53.010010,96.968140 52.952034,96.916840 53.150372,96.837410 
	C53.348709,96.757980 53.754208,96.623230 53.754208,96.623230 
z"/>
<path fill="#F9DF07" opacity="1.000000" stroke="none" 
	d="
M57.094521,50.889923 
	C64.735619,49.384762 72.084572,49.777630 78.560989,54.587959 
	C68.539627,55.304050 58.765667,55.664249 48.727936,55.856270 
	C47.700119,54.519787 46.936077,53.351486 46.172035,52.183182 
	C45.474613,50.679329 44.777195,49.175476 44.050190,46.955681 
	C43.752918,45.171124 43.485233,44.102512 43.217545,43.033897 
	C43.103756,40.910984 42.989967,38.788067 43.188961,36.243450 
	C43.723061,35.543373 43.687061,35.288128 43.393742,35.056004 
	C43.925358,33.221050 44.456974,31.386093 45.358368,29.055428 
	C45.830872,28.076868 45.933598,27.594023 46.036324,27.111177 
	C46.182945,26.785217 46.329571,26.459259 47.036674,26.337421 
	C48.063118,34.799347 48.468914,43.061588 49.076977,51.308914 
	C49.146992,52.258518 50.344013,53.125031 51.326927,53.885796 
	C53.455074,52.790989 55.274796,51.840454 57.094521,50.889923 
z"/>
<path fill="#F7B908" opacity="1.000000" stroke="none" 
	d="
M186.994431,71.978539 
	C178.278870,76.399361 169.842865,75.166168 161.601852,70.661232 
	C160.707794,70.172501 159.995193,69.351845 159.478851,68.351776 
	C166.232239,68.631111 172.695633,69.468224 179.182922,69.745361 
	C181.754059,69.855202 184.378326,68.721481 186.951050,67.759750 
	C185.963028,64.651764 185.002335,61.937965 184.041641,59.224167 
	C184.778076,55.657684 185.107788,51.938389 186.373138,48.570629 
	C187.486694,45.606834 189.646729,43.036232 191.671722,40.674149 
	C190.999496,50.715572 190.000153,60.374840 188.851837,70.276688 
	C188.133377,71.005699 187.563904,71.492119 186.994431,71.978539 
z"/>
<path fill="#F6DE0A" opacity="1.000000" stroke="none" 
	d="
M36.284283,69.878441 
	C34.527893,65.603363 32.821075,61.307076 31.003523,57.058159 
	C28.260586,50.645958 31.562147,45.441273 34.634758,40.577156 
	C36.015842,50.371601 37.029362,59.690674 38.029282,69.267319 
	C38.009514,69.696739 38.003334,69.868584 37.710636,70.013733 
	C37.044170,69.950836 36.664227,69.914642 36.284283,69.878441 
z"/>
<path fill="#F8E008" opacity="1.000000" stroke="none" 
	d="
M35.993355,82.089905 
	C39.592201,80.920242 43.142982,79.011490 46.802425,78.773491 
	C51.094383,78.494354 55.480831,79.668114 59.397343,80.593697 
	C49.979153,83.656937 40.989922,86.338188 31.674170,89.009964 
	C30.616560,88.664978 29.885468,88.329468 29.344717,87.997086 
	C29.535061,88.000214 29.915728,88.007812 30.157778,87.915688 
	C30.603445,87.553001 30.807062,87.282433 31.303146,86.876099 
	C33.061527,85.190193 34.527443,83.640053 35.993355,82.089905 
z"/>
<path fill="#F1B50C" opacity="1.000000" stroke="none" 
	d="
M181.104477,90.249756 
	C176.481171,87.380821 171.857880,84.511894 167.601593,81.308640 
	C176.978607,83.659561 185.988586,86.344803 194.980591,89.318054 
	C194.946106,89.797920 194.929626,89.989784 194.520813,90.112610 
	C190.283875,90.600670 186.439270,91.157776 182.594666,91.714890 
	C182.594666,91.714890 182.543854,91.273026 182.340530,90.853790 
	C181.792969,90.372955 181.448715,90.311356 181.104477,90.249756 
z"/>
<path fill="#F9DF07" opacity="1.000000" stroke="none" 
	d="
M147.830673,54.851810 
	C154.240723,49.761665 161.480347,49.236244 169.851746,51.093281 
	C172.375153,52.146420 174.179260,53.086704 176.117340,54.253555 
	C176.547119,54.660473 176.842926,54.840824 177.121643,55.285316 
	C177.086441,55.725101 177.068314,55.900738 176.578827,56.056297 
	C166.681854,55.641418 157.256256,55.246613 147.830673,54.851810 
z"/>
<path fill="#F6B909" opacity="1.000000" stroke="none" 
	d="
M37.997158,70.040428 
	C38.003334,69.868584 38.009514,69.696739 38.353394,69.264633 
	C39.124176,69.005447 39.557259,69.006538 40.268028,69.308037 
	C42.687828,69.726974 44.846779,70.076584 46.968956,69.921829 
	C54.054977,69.405098 61.127823,68.707726 68.205719,68.079559 
	C59.954758,75.653549 50.763943,76.717194 40.214790,71.776794 
	C39.122158,71.019943 38.559658,70.530190 37.997158,70.040428 
z"/>
<path fill="#F8E008" opacity="1.000000" stroke="none" 
	d="
M194.998581,89.030052 
	C185.988586,86.344803 176.978607,83.659561 167.574539,80.965073 
	C172.707245,76.511810 178.673538,78.014061 184.607239,79.753098 
	C186.636841,80.347923 188.566803,81.282814 190.997589,82.543655 
	C192.964767,84.350380 194.476624,85.675797 196.011475,87.272499 
	C196.060242,87.723442 196.085999,87.903099 196.099945,88.315681 
	C196.088135,88.548599 196.099976,89.016594 195.824646,89.020538 
	C195.365723,89.026337 195.182159,89.028198 194.998581,89.030052 
z"/>
<path fill="#F9E107" opacity="1.000000" stroke="none" 
	d="
M56.479507,43.968399 
	C58.676556,40.158180 60.475491,36.035072 63.165539,32.612316 
	C67.036087,27.687517 72.335503,24.763550 78.574295,24.814297 
	C74.987801,28.640772 71.500481,31.881355 68.234520,35.331478 
	C65.009445,38.738403 62.008179,42.357197 58.627831,45.881847 
	C57.724457,45.243233 57.101982,44.605816 56.479507,43.968399 
z"/>
<path fill="#F9E207" opacity="1.000000" stroke="none" 
	d="
M29.915728,88.007812 
	C29.915728,88.007812 29.535061,88.000214 29.206356,87.805527 
	C28.688450,87.341560 28.432175,87.176575 28.108829,87.115891 
	C21.729393,81.108452 18.755724,73.700310 19.031826,64.531151 
	C19.811726,62.510899 20.559998,60.928116 21.659616,59.695621 
	C24.645885,69.366547 27.280806,78.687180 29.915728,88.007812 
z"/>
<path fill="#F3B70B" opacity="1.000000" stroke="none" 
	d="
M32.000687,89.019440 
	C40.989922,86.338188 49.979153,83.656937 59.357971,80.963547 
	C55.376171,83.948814 51.004791,86.946220 45.912254,90.086945 
	C42.050571,90.439148 38.912247,90.732605 35.768410,90.814415 
	C34.545784,90.846230 33.310730,90.400566 32.058201,89.884476 
	C32.023605,89.404182 32.012146,89.211815 32.000687,89.019440 
z"/>
<path fill="#F7DF09" opacity="1.000000" stroke="none" 
	d="
M68.459717,67.969559 
	C61.127823,68.707726 54.054977,69.405098 46.968956,69.921829 
	C44.846779,70.076584 42.687828,69.726974 40.287567,69.095932 
	C40.029411,68.583420 40.022213,68.157700 40.339630,68.079605 
	C42.070351,67.143143 43.483654,66.284790 45.303177,65.340157 
	C52.823563,62.159939 59.877296,62.670536 66.890320,65.609009 
	C67.498116,66.359192 68.105919,67.109367 68.459717,67.969559 
z"/>
<path fill="#F7DF09" opacity="1.000000" stroke="none" 
	d="
M186.978394,68.153946 
	C184.378326,68.721481 181.754059,69.855202 179.182922,69.745361 
	C172.695633,69.468224 166.232239,68.631111 159.290771,68.045158 
	C159.117798,67.368408 159.413330,66.664902 160.298523,65.629974 
	C168.118515,61.806610 175.343933,63.504974 182.719971,65.561325 
	C184.239914,66.587120 185.609146,67.370529 186.978394,68.153946 
z"/>
<path fill="#F8BA08" opacity="1.000000" stroke="none" 
	d="
M196.111771,88.082764 
	C196.085999,87.903099 196.060242,87.723442 195.999115,86.857384 
	C195.635406,82.770996 195.307037,79.371010 194.978668,75.971016 
	C197.151489,71.029037 199.163757,66.004669 201.623901,61.210125 
	C202.157150,60.170845 204.298721,59.956818 205.494873,59.929993 
	C202.505463,69.680588 199.720703,78.863861 196.730057,88.051208 
	C196.524185,88.055283 196.111771,88.082764 196.111771,88.082764 
z"/>
<path fill="#F4B80B" opacity="1.000000" stroke="none" 
	d="
M166.981277,46.009415 
	C157.714310,43.023994 150.971161,37.398418 148.264175,27.748707 
	C147.843658,26.249624 146.355408,23.263102 150.492554,24.734735 
	C150.659836,25.843864 150.516510,26.929892 150.990295,27.423042 
	C154.747299,31.333618 158.539032,35.219452 162.491333,38.930508 
	C164.825287,41.121979 167.470520,42.981930 169.782532,45.264469 
	C168.719971,45.695122 167.850616,45.852272 166.981277,46.009415 
z"/>
<path fill="#F9E007" opacity="1.000000" stroke="none" 
	d="
M179.012604,25.153294 
	C184.839020,32.547180 185.392197,40.641346 182.154572,49.208439 
	C181.517990,50.892906 180.696625,52.507542 179.633530,54.548443 
	C178.867752,54.964859 178.428909,54.987213 177.996552,54.543266 
	C178.339554,44.435741 178.676086,34.794518 179.012604,25.153294 
z"/>
<path fill="#F9E107" opacity="1.000000" stroke="none" 
	d="
M189.000809,70.034103 
	C190.000153,60.374840 190.999496,50.715572 192.007294,40.631275 
	C197.319855,45.475010 196.564285,52.068771 195.377899,58.379471 
	C194.723343,61.861191 192.456528,65.039818 190.543640,68.801064 
	C189.780746,69.509399 189.390778,69.771751 189.000809,70.034103 
z"/>
<path fill="#FAE207" opacity="1.000000" stroke="none" 
	d="
M169.975769,44.990967 
	C167.470520,42.981930 164.825287,41.121979 162.491333,38.930508 
	C158.539032,35.219452 154.747299,31.333618 150.990295,27.423042 
	C150.516510,26.929892 150.659836,25.843864 150.798920,24.960258 
	C161.151428,27.112665 166.640350,33.997147 169.891296,43.869400 
	C169.994980,44.640957 169.985382,44.815960 169.975769,44.990967 
z"/>
<path fill="#FCE404" opacity="1.000000" stroke="none" 
	d="
M174.003922,95.225266 
	C174.770798,95.127945 175.537689,95.030632 177.102142,94.910248 
	C183.920944,96.921852 189.942169,98.956535 196.079041,101.309326 
	C197.492416,103.706047 198.790146,105.784668 199.893631,108.093369 
	C196.564697,106.931328 193.430908,105.537155 190.295135,104.147507 
	C184.885849,101.750313 179.475327,99.355927 174.065323,96.960365 
	C174.065323,96.960365 173.990143,96.969368 174.031677,96.661575 
	C174.050110,95.977608 174.027023,95.601440 174.003922,95.225266 
z"/>
<path fill="#FCE404" opacity="1.000000" stroke="none" 
	d="
M49.945763,94.736816 
	C50.713364,94.829277 51.480961,94.921738 52.601963,95.401505 
	C52.954254,96.164818 52.953144,96.540825 52.952034,96.916840 
	C52.952034,96.916840 53.010010,96.968140 52.597687,96.975403 
	C45.215851,100.284889 38.267143,103.632446 31.258413,106.849243 
	C29.933453,107.457352 28.369953,107.545731 27.072363,107.582016 
	C28.491249,105.217628 29.754292,103.145157 31.377789,101.038666 
	C37.265751,97.341873 43.091957,94.546806 49.945763,94.736816 
z"/>
<path fill="#FABC06" opacity="1.000000" stroke="none" 
	d="
M51.018501,54.030071 
	C50.344013,53.125031 49.146992,52.258518 49.076977,51.308914 
	C48.468914,43.061588 48.063118,34.799347 47.301746,26.241703 
	C48.015324,26.274008 49.537457,26.297592 49.952080,26.987127 
	C53.254299,32.478848 54.894260,38.364483 53.617989,45.348366 
	C52.945320,48.598385 51.981915,51.314228 51.018501,54.030071 
z"/>
<path fill="#F6B909" opacity="1.000000" stroke="none" 
	d="
M48.991703,56.024452 
	C58.765667,55.664249 68.539627,55.304050 78.752716,54.880852 
	C79.191841,54.817852 79.163033,54.858856 79.098083,55.134010 
	C79.020309,55.598698 79.007484,55.788227 78.994652,55.977757 
	C75.089630,57.918575 71.184616,59.859394 66.609184,61.489861 
	C60.952599,60.022976 55.966423,58.866440 50.799545,57.513493 
	C50.076462,56.886204 49.534084,56.455326 48.991703,56.024452 
z"/>
<path fill="#FABB07" opacity="1.000000" stroke="none" 
	d="
M30.157778,87.915688 
	C27.280806,78.687180 24.645885,69.366547 21.996895,59.671513 
	C28.285362,63.014969 30.160831,69.483658 32.459755,76.270317 
	C32.116901,80.151138 31.563789,83.581497 31.010679,87.011864 
	C30.807062,87.282433 30.603445,87.553001 30.157778,87.915688 
z"/>
<path fill="#FABC07" opacity="1.000000" stroke="none" 
	d="
M178.661438,25.158587 
	C178.676086,34.794518 178.339554,44.435741 177.783875,54.553123 
	C177.564713,55.029278 177.138718,55.021175 177.138718,55.021175 
	C176.842926,54.840824 176.547119,54.660473 176.318924,54.040642 
	C175.253769,50.734028 174.121017,47.866898 172.988281,44.999771 
	C172.906937,37.890015 173.458633,30.950100 178.661438,25.158587 
z"/>
<path fill="#F9BB06" opacity="1.000000" stroke="none" 
	d="
M40.022213,68.157700 
	C40.022213,68.157700 40.029411,68.583420 40.009872,68.795525 
	C39.557259,69.006538 39.124176,69.005447 38.366989,69.007057 
	C37.029362,59.690674 36.015842,50.371601 34.995895,40.627171 
	C40.337910,44.988438 42.106731,51.172771 41.934776,58.919785 
	C41.268860,62.546757 40.645538,65.352226 40.022213,68.157700 
z"/>
<path fill="#F9E207" opacity="1.000000" stroke="none" 
	d="
M196.935928,88.047142 
	C199.720703,78.863861 202.505463,69.680588 205.550232,60.262695 
	C206.196167,61.128887 206.582108,62.229694 207.084488,63.662323 
	C208.047012,72.738457 205.905396,80.468376 198.977356,87.011887 
	C198.232117,87.477089 198.069366,87.727173 197.726074,88.044205 
	C197.287231,88.053917 197.111572,88.050529 196.935928,88.047142 
z"/>
<path fill="#F5B909" opacity="1.000000" stroke="none" 
	d="
M58.908730,45.883045 
	C62.008179,42.357197 65.009445,38.738403 68.234520,35.331478 
	C71.500481,31.881355 74.987801,28.640772 78.672974,25.161007 
	C77.585526,36.081303 70.510468,42.130196 60.072575,45.860466 
	C59.277241,45.939568 59.092987,45.911308 58.908730,45.883045 
z"/>
<path fill="#F8BA08" opacity="1.000000" stroke="none" 
	d="
M147.846497,54.872734 
	C157.256256,55.246613 166.681854,55.641418 176.563126,56.380409 
	C177.002792,57.158634 176.986755,57.592670 176.580292,57.995174 
	C171.129822,59.051529 166.069748,60.139416 161.009689,61.227303 
	C156.744171,59.708851 152.478653,58.190403 148.091949,56.043484 
	C147.947571,55.229523 147.924347,55.044029 147.901123,54.858540 
	C147.901123,54.858540 147.862305,54.893661 147.846497,54.872734 
z"/>
<path fill="#1F0D62" opacity="1.000000" stroke="none" 
	d="
M49.728409,94.517609 
	C43.091957,94.546806 37.265751,97.341873 31.254183,100.685455 
	C31.207195,96.968307 31.644266,93.570351 32.081337,90.172394 
	C33.310730,90.400566 34.545784,90.846230 35.768410,90.814415 
	C38.912247,90.732605 42.050571,90.439148 45.565331,90.234558 
	C47.130054,91.592026 48.320553,92.945213 49.728409,94.517609 
z"/>
<path fill="#1E0C62" opacity="1.000000" stroke="none" 
	d="
M195.963379,100.991219 
	C189.942169,98.956535 183.920944,96.921852 177.478027,94.811142 
	C178.657104,93.784615 180.257889,92.834122 182.226685,91.799255 
	C186.439270,91.157776 190.283875,90.600670 194.551041,90.497093 
	C195.303528,94.297485 195.633453,97.644356 195.963379,100.991219 
z"/>
<path fill="#1E0D7C" opacity="1.000000" stroke="none" 
	d="
M161.001068,61.601307 
	C166.069748,60.139416 171.129822,59.051529 176.715332,58.311447 
	C179.016953,60.879154 180.793106,63.099045 182.569260,65.318939 
	C175.343933,63.504974 168.118515,61.806610 160.513519,65.446922 
	C160.423370,64.388634 160.707916,63.181973 161.001068,61.601307 
z"/>
<path fill="#1D0C7D" opacity="1.000000" stroke="none" 
	d="
M50.980247,57.709904 
	C55.966423,58.866440 60.952599,60.022976 66.261253,61.474049 
	C66.629700,62.818920 66.675667,63.869251 66.805977,65.264297 
	C59.877296,62.670536 52.823563,62.159939 45.296486,64.949821 
	C46.915802,62.333809 48.948025,60.021854 50.980247,57.709904 
z"/>
<path fill="#F5950C" opacity="1.000000" stroke="none" 
	d="
M31.303146,86.876099 
	C31.563789,83.581497 32.116901,80.151138 32.826942,76.355415 
	C33.853325,74.047264 34.722771,72.104469 35.938248,70.020065 
	C36.664227,69.914642 37.044170,69.950836 37.710636,70.013733 
	C38.559658,70.530190 39.122158,71.019943 39.844788,71.745407 
	C38.580986,75.105934 37.157051,78.230766 35.863235,81.722748 
	C34.527443,83.640053 33.061527,85.190193 31.303146,86.876099 
z"/>
<path fill="#F4950D" opacity="1.000000" stroke="none" 
	d="
M188.851837,70.276688 
	C189.390778,69.771751 189.780746,69.509399 190.380356,69.134583 
	C191.821014,71.295540 193.052048,73.568954 194.630859,75.906693 
	C195.307037,79.371010 195.635406,82.770996 195.976135,86.586105 
	C194.476624,85.675797 192.964767,84.350380 191.314240,82.780380 
	C189.876144,79.234055 188.576706,75.932312 187.135849,72.304550 
	C187.563904,71.492119 188.133377,71.005699 188.851837,70.276688 
z"/>
<path fill="#F7960B" opacity="1.000000" stroke="none" 
	d="
M50.799545,57.513489 
	C48.948025,60.021854 46.915802,62.333809 44.890266,65.036102 
	C43.483654,66.284790 42.070351,67.143143 40.339630,68.079605 
	C40.645538,65.352226 41.268860,62.546757 41.955681,59.356995 
	C43.387718,56.942524 44.756264,54.912346 46.148422,52.532677 
	C46.936077,53.351486 47.700119,54.519787 48.727936,55.856270 
	C49.534084,56.455326 50.076462,56.886204 50.799545,57.513489 
z"/>
<path fill="#F8980A" opacity="1.000000" stroke="none" 
	d="
M182.719971,65.561325 
	C180.793106,63.099045 179.016953,60.879154 177.105759,58.342987 
	C176.986755,57.592670 177.002792,57.158634 177.034515,56.400486 
	C177.068314,55.900738 177.086441,55.725101 177.121643,55.285316 
	C177.138718,55.021175 177.564713,55.029278 177.777405,55.019424 
	C178.428909,54.987213 178.867752,54.964859 179.633820,54.916386 
	C181.113007,56.241890 182.264938,57.593513 183.729263,59.084648 
	C185.002335,61.937965 185.963028,64.651764 186.951050,67.759750 
	C185.609146,67.370529 184.239914,66.587120 182.719971,65.561325 
z"/>
<path fill="#FB9907" opacity="1.000000" stroke="none" 
	d="
M172.660706,45.021492 
	C174.121017,47.866898 175.253769,50.734028 176.184937,53.814072 
	C174.179260,53.086704 172.375153,52.146420 170.262421,51.063179 
	C169.047073,49.487663 168.140366,48.055103 167.107468,46.315979 
	C167.850616,45.852272 168.719971,45.695122 169.782532,45.264465 
	C169.985382,44.815960 169.994980,44.640957 170.030731,44.204571 
	C170.815628,44.309864 171.574387,44.676540 172.660706,45.021492 
z"/>
<path fill="#FD9A07" opacity="1.000000" stroke="none" 
	d="
M58.627831,45.881847 
	C59.092987,45.911308 59.277241,45.939568 59.740192,45.989937 
	C59.036186,47.418106 58.053478,48.824165 57.082642,50.560074 
	C55.274796,51.840454 53.455074,52.790989 51.326927,53.885796 
	C51.981915,51.314228 52.945320,48.598385 53.948425,45.540813 
	C54.618752,44.913368 55.249386,44.627651 56.179764,44.155167 
	C57.101982,44.605816 57.724457,45.243233 58.627831,45.881847 
z"/>
<path fill="#F5DD09" opacity="1.000000" stroke="none" 
	d="
M43.161884,43.375999 
	C43.485233,44.102512 43.752918,45.171124 44.020638,46.586975 
	C43.715851,45.862175 43.411037,44.790138 43.161884,43.375999 
z"/>
<path fill="#F9BC07" opacity="1.000000" stroke="none" 
	d="
M173.757233,95.224258 
	C174.027023,95.601440 174.050110,95.977608 174.060455,96.636345 
	C174.047699,96.918907 173.648270,96.756264 173.444611,96.687660 
	C173.330841,96.153786 173.420700,95.688515 173.757233,95.224258 
z"/>
<path fill="#FABC06" opacity="1.000000" stroke="none" 
	d="
M53.150375,96.837410 
	C52.953144,96.540825 52.954254,96.164818 52.975647,95.507408 
	C53.239346,95.525482 53.482769,95.824944 53.740196,96.373825 
	C53.754208,96.623230 53.348709,96.757980 53.150375,96.837410 
z"/>
<path fill="#F5DD09" opacity="1.000000" stroke="none" 
	d="
M45.817623,27.252512 
	C45.933598,27.594023 45.830872,28.076868 45.556824,28.740772 
	C45.456642,28.412500 45.527782,27.903173 45.817623,27.252512 
z"/>
<path fill="#F9DF07" opacity="1.000000" stroke="none" 
	d="
M79.243446,55.921783 
	C79.007484,55.788227 79.020309,55.598698 79.074493,55.125702 
	C79.241310,55.183430 79.366776,55.524620 79.243446,55.921783 
z"/>
<path fill="#F5DD09" opacity="1.000000" stroke="none" 
	d="
M43.271805,35.270981 
	C43.687061,35.288128 43.723061,35.543373 43.368248,35.897331 
	C43.234753,35.972919 43.149872,35.485958 43.271805,35.270981 
z"/>
<path fill="#1E0C62" opacity="1.000000" stroke="none" 
	d="
M181.243591,90.431900 
	C181.448715,90.311356 181.792969,90.372955 182.179794,90.700104 
	C181.906342,90.934700 181.626450,90.817505 181.243591,90.431900 
z"/>
<path fill="#F9DF07" opacity="1.000000" stroke="none" 
	d="
M147.664307,54.952049 
	C147.924347,55.044029 147.947571,55.229523 147.988586,55.694843 
	C147.813431,55.664967 147.620468,55.355263 147.664307,54.952049 
z"/>
<path fill="#1E0D63" opacity="1.000000" stroke="none" 
	d="
M205.780182,173.919250 
	C206.701996,173.316040 207.623825,172.712830 208.886856,172.099350 
	C204.189438,178.656265 199.150803,185.223450 193.534073,191.649658 
	C187.609558,190.783264 182.263168,190.057831 176.627747,189.146667 
	C177.212891,187.318863 178.087067,185.676788 179.426758,184.002426 
	C190.449600,185.585815 199.025681,182.098450 205.780182,173.919250 
z"/>
<path fill="#FBE205" opacity="1.000000" stroke="none" 
	d="
M192.434296,193.126251 
	C189.838150,195.333466 187.242004,197.540665 183.879272,199.862061 
	C176.742218,199.316101 170.371765,198.655945 163.965302,197.601028 
	C163.940659,196.678589 163.951981,196.150894 164.198135,195.745178 
	C164.607498,195.892914 164.782013,195.918686 165.402191,195.965607 
	C168.143219,195.737427 170.438354,195.485794 172.734009,195.239182 
	C179.300644,194.533768 185.867508,193.830414 192.434296,193.126251 
z"/>
<path fill="#1D0D63" opacity="1.000000" stroke="none" 
	d="
M164.001297,197.995789 
	C170.371765,198.655945 176.742218,199.316101 183.580338,200.033966 
	C180.902054,202.715775 177.756104,205.339844 174.049835,207.713470 
	C170.307877,206.306290 167.126236,205.149536 163.678864,203.788147 
	C162.227325,203.034851 161.041519,202.486176 159.546021,201.794205 
	C161.357681,200.249634 162.679489,199.122711 164.001297,197.995789 
z"/>
<path fill="#FBBD07" opacity="1.000000" stroke="none" 
	d="
M192.683105,193.022400 
	C185.867508,193.830414 179.300644,194.533768 172.734009,195.239182 
	C170.438354,195.485794 168.143219,195.737427 165.562073,195.665512 
	C169.156448,193.340317 173.036606,191.336349 176.916763,189.332397 
	C182.263168,190.057831 187.609558,190.783264 193.252945,191.782471 
	C193.343933,192.343704 193.137924,192.631134 192.683105,193.022400 
z"/>
<path fill="#FDBD05" opacity="1.000000" stroke="none" 
	d="
M163.944595,203.992783 
	C167.126236,205.149536 170.307877,206.306290 173.698425,207.739899 
	C172.883041,208.733917 171.858749,209.451080 170.241577,209.905334 
	C161.759232,209.096832 153.869766,208.551254 145.756805,207.903656 
	C145.253571,207.604385 145.066528,207.341248 145.238831,206.903687 
	C146.009430,206.521652 146.513412,206.248138 147.235138,205.868561 
	C147.726700,205.563995 147.905289,205.300827 147.986542,204.988708 
	C147.984421,205.004410 147.966064,204.976776 148.396973,204.985657 
	C153.866791,204.660614 158.905701,204.326691 163.944595,203.992783 
z"/>
<path fill="#FBE307" opacity="1.000000" stroke="none" 
	d="
M145.980301,208.005676 
	C153.869766,208.551254 161.759232,209.096832 169.929459,209.983215 
	C167.254257,211.676315 164.298279,213.028625 161.122574,214.676270 
	C156.165817,213.013748 151.428802,211.055893 146.348724,208.764069 
	C146.005661,208.430069 145.980301,208.005676 145.980301,208.005676 
z"/>
<path fill="#1E0D63" opacity="1.000000" stroke="none" 
	d="
M21.791935,178.469574 
	C22.086000,178.024353 22.446630,177.927155 23.379463,177.714355 
	C23.951668,177.598770 23.966169,177.720291 23.798235,177.815384 
	C23.762133,177.872345 23.893965,177.834198 24.362402,177.906342 
	C31.583410,183.451035 39.397408,185.241257 48.187958,184.269470 
	C48.945526,186.100418 49.510246,187.621017 49.617226,189.102448 
	C43.923019,190.060883 38.686562,191.058502 33.450104,192.056137 
	C29.586237,187.643295 25.722368,183.230453 21.791935,178.469574 
z"/>
<path fill="#FAE206" opacity="1.000000" stroke="none" 
	d="
M42.186523,199.783920 
	C39.760384,197.769455 37.334248,195.754990 35.211491,193.393188 
	C42.053715,193.879990 48.578663,194.871445 55.139996,195.450851 
	C57.070057,195.621292 59.103180,194.624588 61.378345,194.124268 
	C61.861519,194.066086 62.055420,194.046448 62.439461,194.196228 
	C62.751770,194.851318 62.873940,195.337021 62.763557,196.014725 
	C62.361893,196.768143 62.192780,197.329544 61.666943,198.047928 
	C54.935654,198.731232 48.561089,199.257568 42.186523,199.783920 
z"/>
<path fill="#1D0D63" opacity="1.000000" stroke="none" 
	d="
M42.098480,200.135010 
	C48.561089,199.257568 54.935654,198.731232 61.968586,198.141235 
	C63.701080,198.733154 64.775208,199.388733 65.949448,200.408386 
	C65.051483,201.845932 64.053398,202.919403 62.670929,203.999084 
	C59.221928,205.342453 56.157307,206.679657 53.092682,208.016846 
	C49.398602,205.506592 45.704517,202.996338 42.098480,200.135010 
z"/>
<path fill="#FABC07" opacity="1.000000" stroke="none" 
	d="
M61.089073,194.162781 
	C59.103180,194.624588 57.070057,195.621292 55.139996,195.450851 
	C48.578663,194.871445 42.053715,193.879990 35.038551,193.085846 
	C34.265373,192.933868 33.968513,192.741943 33.560879,192.303070 
	C38.686562,191.058502 43.923019,190.060883 49.849506,189.371033 
	C54.056046,191.173477 57.572559,192.668121 61.089073,194.162781 
z"/>
<path fill="#FDBD05" opacity="1.000000" stroke="none" 
	d="
M53.269867,208.280548 
	C56.157307,206.679657 59.221928,205.342453 63.107826,204.034149 
	C66.282829,204.031219 68.636551,203.999390 71.399673,203.970062 
	C74.217422,204.307587 76.625763,204.642609 79.024124,204.991364 
	C79.014153,205.005127 79.010559,204.972427 79.108704,205.195190 
	C79.401550,205.694183 79.660980,205.880112 80.250900,206.084808 
	C81.021149,206.466522 81.525642,206.739151 81.928101,207.231369 
	C81.634727,207.728745 81.376488,207.912552 80.590637,208.001648 
	C73.194946,208.345123 66.257393,208.648468 59.328239,209.085007 
	C58.461277,209.139633 57.638657,209.898041 56.795486,210.330353 
	C55.679340,209.735001 54.563194,209.139618 53.269867,208.280548 
z"/>
<path fill="#FBE307" opacity="1.000000" stroke="none" 
	d="
M57.015026,210.587555 
	C57.638657,209.898041 58.461277,209.139633 59.328239,209.085007 
	C66.257393,208.648468 73.194946,208.345123 80.574142,208.216141 
	C81.018356,208.431320 80.987007,208.860321 80.987007,208.860321 
	C76.212502,210.885651 71.438004,212.910980 66.287613,215.059906 
	C63.019329,213.737259 60.126945,212.291000 57.015026,210.587555 
z"/>
<path fill="#F9BC07" opacity="1.000000" stroke="none" 
	d="
M174.098175,97.302223 
	C179.475327,99.355927 184.885849,101.750313 190.295135,104.147507 
	C193.430908,105.537155 196.564697,106.931328 200.169556,107.825256 
	C201.087738,103.897392 201.535736,100.467743 201.983719,97.038086 
	C203.777740,90.156555 208.170776,85.412117 214.471527,82.445145 
	C210.441147,91.536880 206.221725,100.264351 201.811050,109.249680 
	C200.726196,110.022842 199.832581,110.538139 198.938980,111.053436 
	C195.182343,110.297493 191.318039,109.876083 187.693558,108.709534 
	C181.821457,106.819580 177.302994,102.987038 174.098175,97.302223 
z"/>
<path fill="#F5B809" opacity="1.000000" stroke="none" 
	d="
M194.269073,168.226166 
	C194.621658,169.132324 194.974243,170.038483 195.404068,171.298981 
	C194.020004,171.123199 192.558685,170.593063 190.810989,169.917175 
	C189.680038,169.179062 188.835480,168.586716 187.994049,167.609100 
	C188.045074,166.453278 188.092926,165.682739 188.476135,164.890121 
	C191.225372,162.212830 193.639267,159.557602 196.315338,156.866791 
	C196.739716,156.551270 196.901932,156.271301 197.034485,155.986160 
	C197.004852,155.980972 197.010880,156.040436 197.010880,156.040436 
	C202.871628,154.776108 208.732361,153.511795 214.511200,152.791946 
	C214.217865,153.610413 214.128906,153.919678 214.162399,154.264206 
	C214.162399,154.264206 214.184616,154.134644 213.848206,154.097321 
	C205.552597,158.368134 197.593414,162.676285 188.488403,167.604630 
	C191.418839,167.919708 192.843964,168.072937 194.269073,168.226166 
z"/>
<path fill="#F8E007" opacity="1.000000" stroke="none" 
	d="
M176.179077,112.973030 
	C177.118179,112.460762 178.119965,111.416595 178.986664,111.518738 
	C187.389191,112.508942 193.585846,117.069031 198.602295,124.358017 
	C199.608200,126.201263 200.295502,127.589531 201.234467,128.984650 
	C201.654007,128.993027 201.821854,128.994583 202.334290,128.997772 
	C203.138260,129.006577 203.597641,129.013748 204.057022,129.020935 
	C203.814056,129.265762 203.571091,129.510590 202.674561,129.866531 
	C200.615356,130.036530 199.209717,130.095413 197.804077,130.154297 
	C197.804077,130.154297 197.851059,130.083679 197.880188,129.757309 
	C190.665894,123.944969 183.422485,118.459000 176.179077,112.973030 
z"/>
<path fill="#F8E007" opacity="1.000000" stroke="none" 
	d="
M176.007126,128.945312 
	C175.179001,125.217201 177.772263,127.146141 178.764969,127.494087 
	C185.796875,129.958755 191.085999,134.418304 194.155304,142.115738 
	C195.195297,144.828400 196.058670,146.868286 197.190857,148.936462 
	C197.639450,148.976913 197.819229,148.989090 198.023193,149.325867 
	C198.069794,149.866257 198.092209,150.082077 198.114609,150.297897 
	C198.114609,150.297897 198.075424,150.679306 197.656189,150.678436 
	C196.186111,150.393143 195.135239,150.108704 194.053894,149.476135 
	C190.470322,144.709717 187.038620,140.185745 183.318192,135.913162 
	C181.116959,133.385239 178.459457,131.254608 176.007126,128.945312 
z"/>
<path fill="#F9E106" opacity="1.000000" stroke="none" 
	d="
M205.851532,173.616898 
	C199.025681,182.098450 190.449600,185.585815 179.158234,183.860077 
	C177.610062,183.176651 176.795898,182.603256 175.992355,181.772537 
	C176.010788,181.343674 176.018631,181.172134 176.336884,181.001495 
	C177.061188,181.008331 177.475037,181.014267 178.162415,181.030457 
	C178.618393,181.042740 178.800858,181.044785 179.208344,181.292877 
	C187.959198,178.374893 196.485016,175.210876 205.010834,172.046844 
	C205.314850,172.469406 205.618866,172.891968 205.851532,173.616898 
z"/>
<path fill="#F9E107" opacity="1.000000" stroke="none" 
	d="
M202.002304,108.991821 
	C206.221725,100.264351 210.441147,91.536880 214.812698,82.509872 
	C217.571350,89.291443 214.262421,99.576813 207.382523,105.590279 
	C206.141678,106.674866 204.734161,107.568756 202.928741,108.770233 
	C202.453903,108.989784 202.002304,108.991821 202.002304,108.991821 
z"/>
<path fill="#F8E107" opacity="1.000000" stroke="none" 
	d="
M198.499908,150.215820 
	C198.092209,150.082077 198.069794,149.866257 198.319183,149.174408 
	C205.386063,142.501648 212.181107,136.304901 218.976135,130.108139 
	C219.116272,130.885468 219.571365,131.769653 219.349319,132.424103 
	C215.996719,142.305557 209.314468,148.400055 198.499908,150.215820 
z"/>
<path fill="#F9E206" opacity="1.000000" stroke="none" 
	d="
M204.409088,129.001923 
	C203.597641,129.013748 203.138260,129.006577 202.480042,128.693054 
	C207.531464,120.984436 212.781723,113.582176 218.031967,106.179916 
	C217.850601,109.544579 218.423035,113.181206 217.328018,116.216225 
	C215.171432,122.193527 210.604172,126.349579 204.409088,129.001923 
z"/>
<path fill="#F8BA07" opacity="1.000000" stroke="none" 
	d="
M204.675751,171.810867 
	C196.485016,175.210876 187.959198,178.374893 179.344910,180.980316 
	C183.203415,176.968781 187.150391,173.515869 191.097366,170.062943 
	C192.558685,170.593063 194.020004,171.123199 195.718262,171.429504 
	C198.750351,171.328751 201.545502,171.451828 204.675751,171.810867 
z"/>
<path fill="#FBE305" opacity="1.000000" stroke="none" 
	d="
M194.664886,168.224091 
	C192.843964,168.072937 191.418839,167.919708 188.488403,167.604630 
	C197.593414,162.676285 205.552597,158.368134 213.901367,154.135956 
	C210.468719,162.434067 203.910889,166.901291 194.664886,168.224091 
z"/>
<path fill="#FBBC05" opacity="1.000000" stroke="none" 
	d="
M217.673355,106.124084 
	C212.781723,113.582176 207.531464,120.984436 202.135452,128.691406 
	C201.821854,128.994583 201.654007,128.993027 201.237518,128.562027 
	C201.702728,124.663467 202.416611,121.194374 203.130478,117.725273 
	C207.858566,113.839600 212.586655,109.953918 217.673355,106.124084 
z"/>
<path fill="#FCBE05" opacity="1.000000" stroke="none" 
	d="
M218.585510,130.025406 
	C212.181107,136.304901 205.386063,142.501648 198.295013,148.849838 
	C197.819229,148.989090 197.639450,148.976913 197.219025,148.571777 
	C198.538391,145.079544 200.098373,141.980255 201.658371,138.880966 
	C206.078003,133.880264 211.431961,130.608154 218.585510,130.025406 
z"/>
<path fill="#F2930D" opacity="1.000000" stroke="none" 
	d="
M201.623871,96.913437 
	C201.535736,100.467743 201.087738,103.897392 200.363831,107.595169 
	C198.790146,105.784668 197.492416,103.706047 196.079041,101.309326 
	C195.633453,97.644356 195.303528,94.297485 194.943359,90.566139 
	C194.929626,89.989784 194.946106,89.797920 194.980591,89.318054 
	C195.182159,89.028198 195.365723,89.026337 196.105255,88.993164 
	C197.103912,88.651588 197.546585,88.341347 197.989273,88.031097 
	C198.069366,87.727173 198.232117,87.477089 198.685883,87.198486 
	C199.684174,90.340355 200.474091,93.564575 201.623871,96.913437 
z"/>
<path fill="#F3940C" opacity="1.000000" stroke="none" 
	d="
M201.708221,138.394409 
	C200.098373,141.980255 198.538391,145.079544 196.950226,148.543503 
	C196.058670,146.868286 195.195297,144.828400 194.239563,142.472916 
	C195.401840,138.421753 196.656464,134.686188 197.857574,130.552460 
	C199.209717,130.095413 200.615356,130.036530 202.441025,129.982574 
	C202.493393,132.627625 202.125732,135.267731 201.708221,138.394409 
z"/>
<path fill="#F2930D" opacity="1.000000" stroke="none" 
	d="
M194.084381,149.824265 
	C195.135239,150.108704 196.186111,150.393143 197.532211,150.824677 
	C197.386627,152.455139 196.945786,153.938522 196.757919,155.731171 
	C197.010880,156.040436 197.004852,155.980972 196.747803,155.872620 
	C196.344894,156.143631 196.199036,156.522995 196.053162,156.902359 
	C193.639267,159.557602 191.225372,162.212830 188.452301,164.516403 
	C188.374832,162.235474 188.656509,160.306213 188.938187,158.376938 
	C190.349030,155.822510 191.759872,153.268066 193.417419,150.304962 
	C193.664108,149.896301 194.084381,149.824265 194.084381,149.824265 
z"/>
<path fill="#FD9A07" opacity="1.000000" stroke="none" 
	d="
M203.156097,117.293602 
	C202.416611,121.194374 201.702728,124.663467 200.985825,128.555176 
	C200.295502,127.589531 199.608200,126.201263 198.926208,124.470490 
	C198.873154,120.072891 198.814819,116.017799 198.847733,111.508072 
	C199.832581,110.538139 200.726196,110.022842 201.811050,109.249680 
	C202.002304,108.991821 202.453903,108.989784 202.679413,108.998962 
	C202.997177,111.626076 203.089432,114.244003 203.156097,117.293602 
z"/>
<path fill="#FBE305" opacity="1.000000" stroke="none" 
	d="
M214.400879,154.150269 
	C214.128906,153.919678 214.217865,153.610413 214.623596,153.186783 
	C214.758392,153.370209 214.698868,153.703278 214.400879,154.150269 
z"/>
<path fill="#FABC06" opacity="1.000000" stroke="none" 
	d="
M26.916519,107.873924 
	C28.369953,107.545731 29.933453,107.457352 31.258413,106.849243 
	C38.267143,103.632446 45.215851,100.284889 52.559525,96.971313 
	C48.039143,105.760406 40.657742,110.301025 30.486725,110.108276 
	C29.851643,110.096237 29.211395,110.356674 28.135143,110.505890 
	C26.796295,110.008011 25.895857,109.494583 24.963326,108.621017 
	C20.631416,99.578026 16.331598,90.895164 12.031782,82.212303 
	C18.866850,84.600166 22.479872,89.940933 25.127472,97.058975 
	C25.835106,101.156967 26.375813,104.515450 26.916519,107.873924 
z"/>
<path fill="#F5B809" opacity="1.000000" stroke="none" 
	d="
M31.034325,171.204483 
	C31.451813,170.389694 31.869303,169.574890 32.506950,168.369781 
	C34.153057,167.979462 35.579010,167.979462 38.318665,167.979462 
	C29.995251,163.001862 22.826159,158.669128 15.588490,154.454147 
	C14.836823,154.016403 13.677902,154.277969 12.707947,154.215057 
	C12.707946,154.215057 12.813180,154.134125 12.805631,153.951477 
	C12.700246,153.432449 12.494272,153.186798 12.180161,153.031860 
	C16.519787,153.379745 20.878374,153.582825 25.189644,154.147293 
	C26.898272,154.370972 28.501818,155.397278 30.654194,156.272324 
	C33.724030,159.297256 36.292881,162.108032 38.908970,165.301895 
	C38.973492,166.454590 38.990772,167.224182 38.862408,168.291763 
	C37.766109,169.090210 36.815460,169.590668 35.608635,170.286682 
	C33.913082,170.722992 32.473705,170.963730 31.034325,171.204483 
z"/>
<path fill="#F8DF07" opacity="1.000000" stroke="none" 
	d="
M32.884201,141.203552 
	C36.192883,134.655701 41.068935,129.818176 48.178101,127.603088 
	C49.053391,127.330368 50.258896,128.117462 50.959702,128.490967 
	C47.132149,132.266739 43.548489,135.871002 40.215214,139.693619 
	C37.645786,142.640259 35.390842,145.861099 32.713867,149.087585 
	C31.346102,149.801544 30.260532,150.387924 29.174961,150.974319 
	C29.174963,150.974319 28.925430,150.681274 28.940029,150.164337 
	C28.971401,149.429810 28.988174,149.212219 29.273331,148.979156 
	C29.720041,148.945877 29.898371,148.928055 30.338032,148.688293 
	C31.360973,146.045425 32.122585,143.624496 32.884201,141.203552 
z"/>
<path fill="#FAE206" opacity="1.000000" stroke="none" 
	d="
M47.995117,183.959152 
	C39.397408,185.241257 31.583410,183.451035 24.347591,177.887283 
	C23.996174,177.757965 23.966169,177.720291 23.966169,177.720291 
	C23.966169,177.720291 23.951668,177.598770 23.914989,177.549774 
	C23.025091,175.669525 22.171869,173.838272 21.875237,172.299850 
	C30.295225,175.566132 38.142063,178.585327 46.045670,181.447784 
	C46.908955,181.760422 48.099060,181.170685 49.441990,180.999786 
	C50.155746,180.999954 50.565094,180.999863 50.986511,181.258514 
	C51.006325,181.689758 51.014069,181.862274 50.825813,182.273834 
	C49.751583,182.994980 48.873348,183.477066 47.995117,183.959152 
z"/>
<path fill="#F8E007" opacity="1.000000" stroke="none" 
	d="
M23.056206,129.147507 
	C13.585233,125.615097 9.277160,117.986794 7.080269,108.781036 
	C6.896628,108.011505 7.790124,106.984932 8.630787,106.464577 
	C14.370481,114.253853 19.662569,121.656334 24.636654,129.073547 
	C23.897835,129.108017 23.477020,129.127762 23.056206,129.147507 
z"/>
<path fill="#F9E107" opacity="1.000000" stroke="none" 
	d="
M11.675407,82.403687 
	C16.331598,90.895164 20.631416,99.578026 24.738218,108.624023 
	C24.545204,108.987160 24.095331,109.008408 24.095331,109.008408 
	C14.694091,102.691406 9.848989,94.170578 11.675407,82.403687 
z"/>
<path fill="#F8E107" opacity="1.000000" stroke="none" 
	d="
M29.004948,148.994629 
	C28.988174,149.212219 28.971401,149.429810 28.920193,149.972900 
	C17.279125,148.456024 9.407772,141.129959 7.810578,130.437408 
	C15.209329,136.770096 22.107138,142.882355 29.004948,148.994629 
z"/>
<path fill="#FAE306" opacity="1.000000" stroke="none" 
	d="
M12.797032,154.550018 
	C13.677902,154.277969 14.836823,154.016403 15.588490,154.454147 
	C22.826159,158.669128 29.995251,163.001862 38.318665,167.979462 
	C35.579010,167.979462 34.153057,167.979462 32.343525,168.026123 
	C22.991793,167.452057 17.190077,162.251648 12.797032,154.550018 
z"/>
<path fill="#FBBC05" opacity="1.000000" stroke="none" 
	d="
M24.954659,129.058807 
	C19.662569,121.656334 14.370481,114.253853 9.024555,106.514420 
	C15.731202,107.402710 19.611116,112.304054 23.661270,117.974518 
	C24.673521,122.010849 25.345583,125.494965 25.755615,128.992096 
	C25.318981,129.012772 25.144379,129.020432 24.974401,129.030685 
	C24.979027,129.033295 24.954660,129.058807 24.954659,129.058807 
z"/>
<path fill="#F8BB07" opacity="1.000000" stroke="none" 
	d="
M49.137581,180.999512 
	C48.099060,181.170685 46.908955,181.760422 46.045670,181.447784 
	C38.142063,178.585327 30.295225,175.566132 22.210934,172.321014 
	C24.721869,171.708725 27.453695,171.368134 30.609922,171.115997 
	C32.473705,170.963730 33.913082,170.722992 35.657722,170.597961 
	C40.302799,174.136932 44.642612,177.560196 49.021622,180.983566 
	C49.060810,180.983658 49.137577,180.999496 49.137581,180.999512 
z"/>
<path fill="#FCBE05" opacity="1.000000" stroke="none" 
	d="
M29.273331,148.979156 
	C22.107138,142.882355 15.209329,136.770096 8.156205,130.363922 
	C14.999780,129.976669 20.148138,133.738083 25.312397,138.756897 
	C27.138285,142.506348 28.607494,145.708298 30.076702,148.910233 
	C29.898371,148.928055 29.720041,148.945877 29.273331,148.979156 
z"/>
<path fill="#F3950C" opacity="1.000000" stroke="none" 
	d="
M27.072363,107.582016 
	C26.375813,104.515450 25.835106,101.156967 25.154545,97.422478 
	C26.039886,93.990921 27.065081,90.935371 28.099552,87.497864 
	C28.432175,87.176575 28.688450,87.341560 29.016014,87.802399 
	C29.885468,88.329468 30.616560,88.664978 31.674170,89.009964 
	C32.012146,89.211815 32.023605,89.404182 32.058201,89.884476 
	C31.644266,93.570351 31.207195,96.968307 30.893730,100.719475 
	C29.754292,103.145157 28.491249,105.217628 27.072363,107.582016 
z"/>
<path fill="#F3940C" opacity="1.000000" stroke="none" 
	d="
M30.338032,148.688293 
	C28.607494,145.708298 27.138285,142.506348 25.509521,139.097290 
	C24.637411,135.885223 23.924854,132.880310 23.134251,129.511444 
	C23.477020,129.127762 23.897835,129.108017 24.636654,129.073547 
	C24.954660,129.058807 24.979027,129.033295 25.130798,129.287659 
	C25.854725,129.670517 26.426882,129.799026 27.362278,129.959229 
	C28.206854,130.052185 28.688190,130.113449 29.169527,130.174713 
	C30.202103,133.940369 31.234680,137.706039 32.575729,141.337616 
	C32.122585,143.624496 31.360973,146.045425 30.338032,148.688293 
z"/>
<path fill="#F3940C" opacity="1.000000" stroke="none" 
	d="
M29.215485,151.296051 
	C30.260532,150.387924 31.346102,149.801544 32.793404,149.286102 
	C33.314396,149.599915 33.520660,149.792435 33.773926,149.934570 
	C35.267166,153.604675 36.760410,157.274796 38.624367,161.422012 
	C38.950634,162.905685 38.906181,163.912231 38.861729,164.918793 
	C36.292881,162.108032 33.724030,159.297256 31.021749,156.159271 
	C30.344213,154.427277 29.800110,153.022537 29.215485,151.296051 
z"/>
<path fill="#FD9A07" opacity="1.000000" stroke="none" 
	d="
M26.017645,128.979080 
	C25.345583,125.494965 24.673521,122.010849 23.935638,118.125977 
	C23.922699,115.111954 23.975584,112.498680 24.061901,109.446915 
	C24.095331,109.008408 24.545204,108.987160 24.770311,108.984161 
	C25.895857,109.494583 26.796295,110.008011 27.878122,110.784317 
	C28.078510,115.096069 28.097509,119.144943 28.096855,124.018097 
	C27.714056,126.221069 27.350910,127.599770 26.745241,128.991150 
	C26.502720,129.003830 26.017645,128.979080 26.017645,128.979080 
z"/>
<path fill="#FAE306" opacity="1.000000" stroke="none" 
	d="
M12.153692,153.295624 
	C12.494272,153.186798 12.700246,153.432449 12.819509,154.016388 
	C12.603031,154.029099 12.365128,153.794250 12.153692,153.295624 
z"/>
<path fill="#F0910E" opacity="1.000000" stroke="none" 
	d="
M81.313171,209.015228 
	C80.987007,208.860321 81.018356,208.431320 81.034851,208.216827 
	C81.376488,207.912552 81.634727,207.728745 82.169495,207.007477 
	C82.662964,205.705414 82.813004,204.846802 83.175400,203.996460 
	C83.387764,204.004700 83.812172,204.027893 83.812164,204.027893 
	C84.622742,204.754028 85.316147,205.736603 86.261208,206.168396 
	C104.868782,214.670120 123.440491,214.195648 141.934784,205.770157 
	C142.350388,205.580811 142.627197,205.086777 143.291733,204.369400 
	C143.614716,204.003937 144.042191,203.986679 144.052826,204.321045 
	C144.366379,205.441025 144.669281,206.226608 144.972183,207.012207 
	C145.066528,207.341248 145.253571,207.604385 145.756805,207.903656 
	C145.980301,208.005676 146.005661,208.430069 146.020905,208.642090 
	C124.623459,219.742630 103.157181,219.709793 81.313171,209.015228 
z"/>
<path fill="#F8E008" opacity="1.000000" stroke="none" 
	d="
M82.963043,203.988205 
	C82.813004,204.846802 82.662964,205.705414 82.271530,206.787903 
	C81.525642,206.739151 81.021149,206.466522 80.146896,205.866989 
	C79.586739,205.262939 79.331215,205.073715 79.010559,204.972427 
	C79.010559,204.972427 79.014153,205.005127 78.973671,204.666718 
	C77.682106,202.892120 76.431023,201.455933 75.179932,200.019745 
	C75.314445,198.475510 75.777786,196.875488 75.526909,195.396637 
	C74.402168,188.766617 75.537788,182.668716 79.637772,177.575180 
	C80.335838,185.266754 80.583832,192.460785 81.101341,199.635391 
	C81.208664,201.123337 82.316376,202.539154 82.963043,203.988205 
z"/>
<path fill="#F9E107" opacity="1.000000" stroke="none" 
	d="
M26.987762,128.978470 
	C27.350910,127.599770 27.714056,126.221069 28.075039,124.488869 
	C33.317844,117.885788 39.088638,112.422470 47.739170,111.541199 
	C48.804611,111.432663 49.936867,111.979988 50.592236,112.647194 
	C43.488903,117.889275 36.806694,122.674179 30.212952,127.578041 
	C29.562693,128.061646 29.454359,129.273926 29.094496,130.147995 
	C29.094496,130.147995 29.143051,130.130219 29.156288,130.152466 
	C28.688190,130.113449 28.206854,130.052185 27.360922,129.722336 
	C26.996326,129.453751 26.987762,128.978470 26.987762,128.978470 
z"/>
<path fill="#F9E107" opacity="1.000000" stroke="none" 
	d="
M145.238831,206.903687 
	C144.669281,206.226608 144.366379,205.441025 144.350571,204.082275 
	C145.085541,202.121521 145.842819,200.752975 145.929489,199.343170 
	C146.383087,191.965439 146.666580,184.577240 147.009216,177.192688 
	C151.913605,181.950714 152.164093,187.993881 151.662750,194.219803 
	C151.531723,195.847015 151.195068,197.457672 150.870331,199.796951 
	C149.847229,202.004227 148.906647,203.490509 147.966064,204.976776 
	C147.966064,204.976776 147.984421,205.004410 147.770981,205.097656 
	C147.293701,205.394409 147.113647,205.655655 147.017380,205.974625 
	C146.513412,206.248138 146.009430,206.521652 145.238831,206.903687 
z"/>
<path fill="#FAE206" opacity="1.000000" stroke="none" 
	d="
M50.974442,180.999771 
	C50.565094,180.999863 50.155746,180.999954 49.441986,180.999771 
	C49.137577,180.999496 49.060810,180.983658 49.024384,180.605133 
	C48.712910,178.844772 48.437859,177.462952 48.162804,176.081116 
	C47.721298,166.869843 53.647743,156.698441 60.640121,154.855194 
	C57.271854,163.947006 54.123146,172.473389 50.974442,180.999771 
z"/>
<path fill="#F7E008" opacity="1.000000" stroke="none" 
	d="
M188.572510,158.280273 
	C188.656509,160.306213 188.374832,162.235474 188.116974,164.538467 
	C188.092926,165.682739 188.045074,166.453278 187.698822,167.581268 
	C186.955109,167.591171 186.509781,167.243668 186.043610,166.528107 
	C185.382370,164.655685 184.860825,163.086487 184.081314,161.658066 
	C180.436874,154.979782 176.721298,148.340317 173.031143,141.686981 
	C181.144318,144.375824 184.646545,151.306412 188.572510,158.280273 
z"/>
<path fill="#F8BA08" opacity="1.000000" stroke="none" 
	d="
M172.712494,141.542999 
	C176.721298,148.340317 180.436874,154.979782 184.081314,161.658066 
	C184.860825,163.086487 185.382370,164.655685 185.810913,166.551498 
	C185.599075,166.942963 185.134003,166.976974 185.134003,166.976974 
	C175.768768,162.189026 170.832733,152.279144 172.712494,141.542999 
z"/>
<path fill="#F8E107" opacity="1.000000" stroke="none" 
	d="
M38.908970,165.301895 
	C38.906181,163.912231 38.950634,162.905685 38.975334,161.524933 
	C40.342896,152.204803 45.118652,145.769211 53.525703,142.114578 
	C52.345303,145.005981 50.854164,147.588089 49.479095,150.230591 
	C46.597916,155.767410 43.777840,161.336044 40.779697,167.145599 
	C40.087170,167.597656 39.547611,167.795715 39.008053,167.993774 
	C38.990772,167.224182 38.973492,166.454590 38.908970,165.301895 
z"/>
<path fill="#FBE205" opacity="1.000000" stroke="none" 
	d="
M62.996105,195.822723 
	C62.873940,195.337021 62.751770,194.851318 62.340027,193.832214 
	C61.676460,191.864059 61.302467,190.429306 60.928474,188.994537 
	C59.797138,180.775620 61.577641,173.395493 67.586731,167.427765 
	C67.734016,170.001907 67.549957,172.281143 67.303391,174.553619 
	C66.562012,181.386566 65.796280,188.216843 64.859016,195.284546 
	C64.117355,195.621506 63.556728,195.722107 62.996105,195.822723 
z"/>
<path fill="#F8BB07" opacity="1.000000" stroke="none" 
	d="
M40.932671,166.891617 
	C43.777840,161.336044 46.597916,155.767410 49.479095,150.230591 
	C50.854164,147.588089 52.345303,145.005981 53.880447,142.041443 
	C54.146793,144.612244 54.935596,147.665421 54.365242,150.439117 
	C52.906857,157.531387 48.543114,162.793777 41.937038,166.801147 
	C41.398594,166.939163 40.932674,166.891617 40.932671,166.891617 
z"/>
<path fill="#FBE305" opacity="1.000000" stroke="none" 
	d="
M177.888901,181.020203 
	C177.475037,181.014267 177.061188,181.008331 176.285248,180.630096 
	C172.625305,171.831177 169.327454,163.404556 166.029602,154.977936 
	C166.866211,154.981064 168.002518,154.627930 168.493942,155.041351 
	C174.732605,160.289658 178.532593,166.744553 177.983704,176.058044 
	C177.947067,178.276550 177.917984,179.648392 177.888901,181.020203 
z"/>
<path fill="#FBE205" opacity="1.000000" stroke="none" 
	d="
M159.164886,166.820328 
	C165.685089,173.007889 167.112564,180.751343 165.710953,189.879089 
	C164.936920,192.103607 164.473740,193.713196 163.670776,195.277695 
	C162.878632,195.167175 162.426285,195.101730 161.986298,194.586121 
	C161.749924,191.532333 161.521835,188.926559 161.248428,186.325531 
	C160.564865,179.822647 159.860748,173.321915 159.164886,166.820328 
z"/>
<path fill="#FABC06" opacity="1.000000" stroke="none" 
	d="
M34.102322,149.789047 
	C33.520660,149.792435 33.314396,149.599915 33.075600,149.158524 
	C35.390842,145.861099 37.645786,142.640259 40.215214,139.693619 
	C43.548489,135.871002 47.132149,132.266739 50.800720,128.758774 
	C49.960472,139.439148 43.618847,145.680420 34.102322,149.789047 
z"/>
<path fill="#FABC06" opacity="1.000000" stroke="none" 
	d="
M50.986511,181.258514 
	C54.123146,172.473389 57.271854,163.947006 60.697578,155.199646 
	C63.979214,165.692764 60.480350,174.284454 51.965111,181.686508 
	C51.385944,182.014511 51.203876,182.024643 51.021809,182.034790 
	C51.014069,181.862274 51.006325,181.689758 50.986511,181.258514 
z"/>
<path fill="#FABC06" opacity="1.000000" stroke="none" 
	d="
M194.053894,149.476135 
	C194.084381,149.824265 193.664108,149.896301 193.453354,149.927429 
	C183.992126,146.199081 177.593903,139.994476 175.960663,129.345093 
	C178.459457,131.254608 181.116959,133.385239 183.318192,135.913162 
	C187.038620,140.185745 190.470322,144.709717 194.053894,149.476135 
z"/>
<path fill="#FABC06" opacity="1.000000" stroke="none" 
	d="
M165.809052,155.332230 
	C169.327454,163.404556 172.625305,171.831177 175.974808,180.629196 
	C176.018631,181.172134 176.010788,181.343674 175.719635,181.759033 
	C175.254303,181.996170 175.072296,181.989456 174.890289,181.982758 
	C167.203156,174.839752 163.254318,166.374390 165.809052,155.332230 
z"/>
<path fill="#F8BA07" opacity="1.000000" stroke="none" 
	d="
M29.457785,130.164230 
	C29.454359,129.273926 29.562693,128.061646 30.212952,127.578041 
	C36.806694,122.674179 43.488903,117.889275 50.484009,113.020981 
	C48.519772,122.492920 40.699497,126.513206 33.039570,130.610214 
	C32.264961,131.024521 30.907856,130.349792 29.457785,130.164230 
z"/>
<path fill="#FABC06" opacity="1.000000" stroke="none" 
	d="
M159.145203,166.834915 
	C159.860748,173.321915 160.564865,179.822647 161.248428,186.325531 
	C161.521835,188.926559 161.749924,191.532333 161.697815,194.569183 
	C161.204544,194.989761 161.012131,194.977127 160.819717,194.964493 
	C154.739609,186.400848 152.925140,177.305756 157.980103,167.197815 
	C158.765198,166.941437 158.959198,166.915649 159.153214,166.889862 
	C159.153214,166.889862 159.125504,166.849503 159.145203,166.834915 
z"/>
<path fill="#F9BB07" opacity="1.000000" stroke="none" 
	d="
M176.180725,113.328979 
	C183.422485,118.459000 190.665894,123.944969 197.907944,129.789368 
	C187.204727,129.226562 180.216141,123.405304 176.180725,113.328979 
z"/>
<path fill="#F9BB07" opacity="1.000000" stroke="none" 
	d="
M65.040054,195.048172 
	C65.796280,188.216843 66.562012,181.386566 67.303391,174.553619 
	C67.549957,172.281143 67.734016,170.001907 67.890442,167.272003 
	C67.834229,166.818268 67.874573,166.848389 68.152855,166.908386 
	C68.626595,166.977081 68.822044,166.985809 69.017502,166.994522 
	C74.304184,176.703751 72.605392,185.731537 65.981087,194.660049 
	C65.419876,195.019424 65.229965,195.033798 65.040054,195.048172 
z"/>
<path fill="#FABC06" opacity="1.000000" stroke="none" 
	d="
M146.694916,177.307999 
	C146.666580,184.577240 146.383087,191.965439 145.929489,199.343170 
	C145.842819,200.752975 145.085541,202.121521 144.339935,203.747894 
	C144.042191,203.986679 143.614716,204.003937 143.401276,204.015930 
	C138.836227,194.509781 140.241913,185.682541 146.694916,177.307999 
z"/>
<path fill="#FABC06" opacity="1.000000" stroke="none" 
	d="
M83.175400,203.996460 
	C82.316376,202.539154 81.208664,201.123337 81.101341,199.635391 
	C80.583832,192.460785 80.335838,185.266754 79.992416,177.635239 
	C87.009071,185.003036 87.802353,193.815216 84.002937,203.681320 
	C83.812172,204.027893 83.387764,204.004700 83.175400,203.996460 
z"/>
<path fill="#EC9111" opacity="1.000000" stroke="none" 
	d="
M160.530640,195.133072 
	C161.012131,194.977127 161.204544,194.989761 161.685455,195.019348 
	C162.426285,195.101730 162.878632,195.167175 163.660309,195.351044 
	C163.989609,195.469498 163.963318,195.623215 163.963318,195.623215 
	C163.951981,196.150894 163.940659,196.678589 163.965302,197.601028 
	C162.679489,199.122711 161.357681,200.249634 159.546021,201.794205 
	C161.041519,202.486176 162.227325,203.034851 163.678864,203.788147 
	C158.905701,204.326691 153.866791,204.660614 148.396973,204.985657 
	C148.906647,203.490509 149.847229,202.004227 150.939835,200.216949 
	C154.141754,198.377838 157.191650,196.839737 160.530640,195.133072 
z"/>
<path fill="#EE9210" opacity="1.000000" stroke="none" 
	d="
M50.825813,182.273834 
	C51.203876,182.024643 51.385944,182.014511 51.841270,181.992020 
	C54.816841,184.366241 57.519154,186.752808 60.574966,189.066956 
	C61.302467,190.429306 61.676460,191.864059 62.149887,193.662827 
	C62.055420,194.046448 61.861519,194.066086 61.378345,194.124268 
	C57.572559,192.668121 54.056046,191.173477 50.307251,189.410217 
	C49.510246,187.621017 48.945526,186.100418 48.187962,184.269470 
	C48.873348,183.477066 49.751583,182.994980 50.825813,182.273834 
z"/>
<path fill="#F0930F" opacity="1.000000" stroke="none" 
	d="
M164.198151,195.745178 
	C163.963318,195.623215 163.989609,195.469498 164.000076,195.396149 
	C164.473740,193.713196 164.936920,192.103607 165.669586,190.280579 
	C168.754913,187.510086 171.570786,184.953049 174.638474,182.189392 
	C175.072296,181.989456 175.254303,181.996170 175.709015,182.016373 
	C176.795898,182.603256 177.610062,183.176651 178.692719,183.892365 
	C178.087067,185.676788 177.212891,187.318863 176.627747,189.146667 
	C173.036606,191.336349 169.156448,193.340317 165.116409,195.644348 
	C164.782013,195.918686 164.607498,195.892914 164.198151,195.745178 
z"/>
<path fill="#EE9210" opacity="1.000000" stroke="none" 
	d="
M64.859016,195.284546 
	C65.229965,195.033798 65.419876,195.019424 65.894791,194.984741 
	C68.936684,196.691330 71.693565,198.418198 74.815193,200.082397 
	C76.431023,201.455933 77.682106,202.892120 78.983643,204.652954 
	C76.625763,204.642609 74.217422,204.307587 71.252304,203.678665 
	C69.080124,202.271286 67.464722,201.157806 65.849335,200.044327 
	C64.775208,199.388733 63.701080,198.733154 62.325310,197.984268 
	C62.192780,197.329544 62.361893,196.768143 62.763550,196.014709 
	C63.556728,195.722107 64.117355,195.621506 64.859016,195.284546 
z"/>
<path fill="#F2930D" opacity="1.000000" stroke="none" 
	d="
M178.162415,181.030457 
	C177.917984,179.648392 177.947067,178.276550 178.027420,176.501556 
	C180.378036,173.293076 182.677368,170.487732 185.055359,167.329681 
	C185.134003,166.976974 185.599075,166.942963 185.831757,166.919556 
	C186.509781,167.243668 186.955109,167.591171 187.695679,167.966522 
	C188.835480,168.586716 189.680038,169.179062 190.810989,169.917175 
	C187.150391,173.515869 183.203415,176.968781 179.119873,180.734268 
	C178.800858,181.044785 178.618393,181.042740 178.162415,181.030457 
z"/>
<path fill="#F2930D" opacity="1.000000" stroke="none" 
	d="
M40.779701,167.145599 
	C40.932674,166.891617 41.398594,166.939163 41.631863,166.957275 
	C43.722485,169.992691 45.579838,173.009979 47.799995,176.054199 
	C48.437859,177.462952 48.712910,178.844772 48.985195,180.605042 
	C44.642612,177.560196 40.302799,174.136932 35.913895,170.402405 
	C36.815460,169.590668 37.766109,169.090210 38.862408,168.291763 
	C39.547611,167.795715 40.087170,167.597656 40.779701,167.145599 
z"/>
<path fill="#FBE205" opacity="1.000000" stroke="none" 
	d="
M68.961212,166.737045 
	C68.822044,166.985809 68.626595,166.977081 68.138710,166.929169 
	C68.199165,166.753189 68.552040,166.616379 68.961212,166.737045 
z"/>
<path fill="#FBE205" opacity="1.000000" stroke="none" 
	d="
M159.049759,166.647797 
	C158.959198,166.915649 158.765198,166.941437 158.277969,166.981262 
	C158.305267,166.798798 158.625793,166.602264 159.049759,166.647797 
z"/>
<path fill="#F4950D" opacity="1.000000" stroke="none" 
	d="
M197.726074,88.044205 
	C197.546585,88.341347 197.103912,88.651588 196.380600,88.989212 
	C196.099976,89.016594 196.088135,88.548599 196.099945,88.315681 
	C196.111771,88.082764 196.524185,88.055283 196.730057,88.051208 
	C197.111572,88.050529 197.287231,88.053917 197.726074,88.044205 
z"/>
<path fill="#EC9111" opacity="1.000000" stroke="none" 
	d="
M147.235138,205.868561 
	C147.113647,205.655655 147.293701,205.394409 147.773102,205.081940 
	C147.905289,205.300827 147.726700,205.563995 147.235138,205.868561 
z"/>
<path fill="#1C0B64" opacity="1.000000" stroke="none" 
	d="
M23.798235,177.815384 
	C23.966169,177.720291 23.996174,177.757965 24.010986,177.777008 
	C23.893965,177.834198 23.762133,177.872345 23.798235,177.815384 
z"/>
<path fill="#EC9111" opacity="1.000000" stroke="none" 
	d="
M65.949448,200.408386 
	C67.464722,201.157806 69.080124,202.271286 70.842896,203.676163 
	C68.636551,203.999390 66.282829,204.031219 63.492203,204.027954 
	C64.053398,202.919403 65.051483,201.845932 65.949448,200.408386 
z"/>
<path fill="#EE9210" opacity="1.000000" stroke="none" 
	d="
M79.108704,205.195190 
	C79.331215,205.073715 79.586739,205.262939 79.881134,205.757904 
	C79.660980,205.880112 79.401550,205.694183 79.108704,205.195190 
z"/>
<path fill="#1C0B64" opacity="1.000000" stroke="none" 
	d="
M196.315338,156.866791 
	C196.199036,156.522995 196.344894,156.143631 196.777451,155.877808 
	C196.901932,156.271301 196.739716,156.551270 196.315338,156.866791 
z"/>
<path fill="#F8E007" opacity="1.000000" stroke="none" 
	d="
M26.745241,128.991150 
	C26.987762,128.978470 26.996326,129.453751 26.997684,129.690643 
	C26.426882,129.799026 25.854725,129.670517 25.126171,129.285034 
	C25.144379,129.020432 25.318981,129.012772 25.755615,128.992096 
	C26.017645,128.979080 26.502720,129.003830 26.745241,128.991150 
z"/>
</svg>