<svg version="1.1" id="Layer_1" xmlns="http://www.w3.org/2000/svg" xmlns:xlink="http://www.w3.org/1999/xlink" x="0px" y="0px"
	 width="100%" viewBox="0 0 225 225" enable-background="new 0 0 225 225" xml:space="preserve">
<path fill="#FFFEFE" opacity="1.000000" stroke="none" 
	d="
M130.000000,226.000000 
	C86.666672,226.000000 43.833340,226.000000 1.000006,226.000000 
	C1.000004,151.000000 1.000004,76.000015 1.000002,1.000016 
	C75.999992,1.000010 150.999985,1.000010 225.999969,1.000005 
	C225.999985,75.999985 225.999985,150.999969 226.000000,225.999969 
	C194.166672,226.000000 162.333328,226.000000 130.000000,226.000000 
M169.851059,112.504845 
	C169.851059,112.504845 169.763107,112.034950 170.033371,111.477386 
	C170.138840,110.881645 170.244293,110.285896 170.848770,109.203934 
	C173.522858,105.604874 176.248001,102.042336 178.856415,98.396271 
	C181.368912,94.884300 182.648376,90.567963 179.710373,87.289429 
	C171.800934,78.463219 168.573486,68.635109 169.714584,56.784676 
	C170.212753,51.611076 166.203796,48.906738 160.485260,48.721947 
	C159.084366,48.444962 157.683472,48.167976 156.040741,47.221722 
	C148.602539,44.839203 144.432892,39.073635 140.521805,32.792908 
	C137.983398,28.716537 134.458633,25.616175 128.192123,27.918600 
	C119.748940,31.251879 111.556702,33.776733 102.375237,29.275679 
	C93.892342,25.117083 90.208626,26.465691 85.465958,34.620567 
	C81.428200,41.563381 76.008789,45.592819 68.190353,47.513145 
	C57.909473,50.038269 56.908428,51.927807 57.012760,62.484787 
	C57.022614,63.481815 56.975739,64.491714 57.114346,65.473160 
	C57.968204,71.518890 56.054352,76.568924 51.807365,80.867256 
	C50.764530,81.922699 49.915459,83.182167 49.053711,84.401810 
	C44.817795,90.396988 44.314430,94.389687 49.334927,99.637108 
	C56.320522,106.938438 58.280228,115.206894 56.328022,124.987671 
	C54.500629,126.609482 52.673237,128.231293 50.207741,130.064667 
	C39.741104,138.887070 29.274464,147.709473 17.829655,157.356369 
	C27.876686,159.411743 36.532627,161.575012 45.317932,162.839539 
	C51.019291,163.660172 53.133678,165.991165 52.880779,171.748062 
	C52.489750,180.649261 52.777683,189.580276 52.777683,199.434341 
	C54.699200,198.458740 55.310509,198.278870 55.756603,197.902939 
	C69.995514,185.903595 84.230583,173.899536 98.410393,161.830582 
	C99.177261,161.177841 99.460861,159.957352 100.562973,159.096436 
	C101.593063,158.520966 102.960075,158.194412 103.598793,157.329834 
	C107.875534,151.540756 113.350395,150.352020 119.875145,154.661865 
	C121.467613,155.823257 123.060081,156.984650 124.930885,158.769836 
	C140.780502,172.149567 156.630112,185.529282 172.479736,198.909012 
	C173.128204,198.529099 173.776657,198.149185 174.425125,197.769272 
	C174.425125,188.118759 174.479309,178.467758 174.394196,168.817993 
	C174.366348,165.661179 175.399902,164.067062 178.793350,163.508286 
	C186.155869,162.295929 193.441147,160.612808 200.755157,159.108398 
	C203.139252,158.618011 205.681686,158.296188 205.663239,154.451721 
	C204.790741,153.929092 203.918243,153.406464 202.440063,152.556213 
	C201.350830,151.876282 200.135223,151.337631 199.192276,150.494156 
	C191.412048,143.534576 183.682388,136.518478 175.510712,129.000031 
	C174.320663,128.008148 173.130615,127.016273 171.624542,125.469315 
	C171.014435,124.629059 170.404327,123.788803 169.999435,122.158188 
	C169.874893,120.810326 169.750336,119.462456 169.804214,117.267036 
	C169.760330,115.827469 169.716446,114.387894 169.851059,112.504845 
z"/>
<path fill="#DD6575" opacity="1.000000" stroke="none" 
	d="
M156.282578,47.890995 
	C157.683472,48.167976 159.084366,48.444962 160.776550,49.236607 
	C162.355316,54.228168 165.274185,58.982632 164.570145,63.120708 
	C163.334030,70.386185 165.681137,75.226326 169.857590,80.735466 
	C175.271103,87.876427 178.504913,91.639465 170.666046,102.135132 
	C165.844620,107.243553 163.557343,112.808327 163.853745,119.763573 
	C164.034332,124.001068 162.973099,128.487061 161.510864,132.513214 
	C160.820786,134.413300 157.876923,135.494827 155.590759,136.973068 
	C153.825699,137.336670 152.424149,137.674454 150.854080,137.774384 
	C150.131897,138.034439 149.578247,138.532364 149.027283,139.029175 
	C149.029984,139.028061 149.038574,139.045670 148.645752,139.014130 
	C145.708435,140.315933 142.565781,141.103439 140.745667,143.097885 
	C137.113388,147.078018 134.206787,151.720428 130.677094,156.087509 
	C129.923080,156.105087 129.492462,156.124466 128.788834,156.107971 
	C128.332291,156.075073 128.148758,156.078079 127.623810,155.917526 
	C124.709900,155.187210 122.137383,154.620483 119.564873,154.053757 
	C113.350395,150.352020 107.875534,151.540756 103.598793,157.329834 
	C102.960075,158.194412 101.593063,158.520966 100.013626,159.062637 
	C99.295906,159.019211 99.127541,159.009567 99.074921,158.768448 
	C99.436737,158.296600 99.682800,158.056259 100.215607,157.698486 
	C100.736092,156.843964 100.969833,156.106888 101.203583,155.369797 
	C100.451431,155.871948 99.699272,156.374100 98.532944,156.885651 
	C91.451271,157.649323 87.554550,153.753113 84.821709,148.507355 
	C81.258133,141.666962 75.942329,138.075027 68.269287,136.675171 
	C60.937416,135.337524 56.162308,131.613449 56.963715,124.747429 
	C58.280228,115.206894 56.320522,106.938438 49.334927,99.637108 
	C44.314430,94.389687 44.817795,90.396988 49.053711,84.401810 
	C49.915459,83.182167 50.764530,81.922699 51.807365,80.867256 
	C56.054352,76.568924 57.968204,71.518890 57.114346,65.473160 
	C56.975739,64.491714 57.022614,63.481815 57.012760,62.484787 
	C56.908428,51.927807 57.909473,50.038269 68.190353,47.513145 
	C76.008789,45.592819 81.428200,41.563381 85.465958,34.620567 
	C90.208626,26.465691 93.892342,25.117083 102.375237,29.275679 
	C111.556702,33.776733 119.748940,31.251879 128.944855,27.973303 
	C132.069183,30.102215 135.665741,31.737928 136.593292,34.329071 
	C140.005127,43.860149 147.562592,46.527199 156.282578,47.890995 
M131.812180,53.538330 
	C131.538361,53.358948 131.264557,53.179565 130.594864,52.915394 
	C130.594864,52.915394 130.190292,52.930210 129.653671,52.422680 
	C128.470917,52.186516 127.288170,51.950352 125.658897,51.173859 
	C124.107758,50.773746 122.556610,50.373634 120.480728,49.407795 
	C118.650253,49.323311 116.819778,49.238831 114.491241,49.095947 
	C114.324547,49.108444 114.157860,49.120941 113.487671,49.075287 
	C113.320190,49.097534 113.152710,49.119778 112.106125,49.066025 
	C110.108925,49.111237 108.043945,48.839314 106.124756,49.249508 
	C79.802551,54.875462 64.822647,79.997734 72.323776,104.613541 
	C77.704269,122.270210 96.125702,135.724869 113.870308,134.948410 
	C116.242004,134.619705 118.613701,134.290985 121.721909,133.977478 
	C123.497826,133.365326 125.273735,132.753159 127.726929,132.113968 
	C128.502487,131.754471 129.278030,131.394974 130.504135,130.844559 
	C130.818878,130.684357 131.007660,130.430481 131.079849,130.095566 
	C131.079849,130.095566 131.093826,130.106766 131.839874,130.147293 
	C133.892548,129.100418 135.945221,128.053543 138.611588,126.747368 
	C140.685104,124.827774 142.758636,122.908188 145.026459,120.318245 
	C147.533203,116.884277 150.593491,113.722336 152.440460,109.964111 
	C157.503510,99.661804 157.962997,88.719002 153.965622,78.089828 
	C151.936676,72.694809 148.014969,68.011612 144.709747,62.372768 
	C141.852875,60.440033 138.995987,58.507301 135.888123,56.249813 
	C135.673111,56.052834 135.419907,55.948055 135.095123,55.944248 
	C135.095123,55.944248 135.063873,55.929684 134.779495,55.354805 
	C133.862183,54.886021 132.944870,54.417236 131.993210,53.987663 
	C131.993210,53.987663 132.045105,53.982880 131.812180,53.538330 
z"/>
<path fill="#C9324E" opacity="1.000000" stroke="none" 
	d="
M98.959167,158.999939 
	C99.127541,159.009567 99.295906,159.019211 99.716850,159.014999 
	C99.460861,159.957352 99.177261,161.177841 98.410393,161.830582 
	C84.230583,173.899536 69.995514,185.903595 55.756603,197.902939 
	C55.310509,198.278870 54.699200,198.458740 52.777683,199.434341 
	C52.777683,189.580276 52.489750,180.649261 52.880779,171.748062 
	C53.133678,165.991165 51.019291,163.660172 45.317932,162.839539 
	C36.532627,161.575012 27.876686,159.411743 17.829655,157.356369 
	C29.274464,147.709473 39.741104,138.887070 50.582397,130.368347 
	C50.799789,135.156921 52.378983,138.339828 57.079105,139.619843 
	C60.414604,140.528229 63.731720,141.638718 66.881859,143.050003 
	C69.347832,144.154785 71.947639,145.478439 73.760269,147.393600 
	C76.053719,149.816742 77.709152,152.877777 79.461708,155.771515 
	C82.728806,161.166046 91.175911,163.178864 98.959167,158.999939 
z"/>
<path fill="#C9324E" opacity="1.000000" stroke="none" 
	d="
M175.937408,129.519501 
	C183.682388,136.518478 191.412048,143.534576 199.192276,150.494156 
	C200.135223,151.337631 201.350830,151.876282 202.470825,153.032959 
	C199.531219,153.813904 196.560852,154.118134 192.360565,154.548309 
	C197.709000,157.702377 201.798859,156.736084 205.896042,155.045853 
	C205.681686,158.296188 203.139252,158.618011 200.755157,159.108398 
	C193.441147,160.612808 186.155869,162.295929 178.793350,163.508286 
	C175.399902,164.067062 174.366348,165.661179 174.394196,168.817993 
	C174.479309,178.467758 174.425125,188.118759 174.425125,197.769272 
	C173.776657,198.149185 173.128204,198.529099 172.479736,198.909012 
	C156.630112,185.529282 140.780502,172.149567 125.189911,158.440369 
	C126.678703,158.584595 127.910416,159.053284 129.137939,159.532745 
	C137.899033,162.954895 141.675262,161.382690 147.332870,154.171677 
	C151.195068,149.249039 154.295914,142.730682 161.903107,142.204620 
	C169.962280,141.647308 175.521240,138.464844 175.937408,129.519501 
z"/>
<path fill="#A32A3E" opacity="1.000000" stroke="none" 
	d="
M175.724060,129.259766 
	C175.521240,138.464844 169.962280,141.647308 161.903107,142.204620 
	C154.295914,142.730682 151.195068,149.249039 147.332870,154.171677 
	C141.675262,161.382690 137.899033,162.954895 129.137939,159.532745 
	C127.910416,159.053284 126.678703,158.584595 125.050735,158.128479 
	C123.060081,156.984650 121.467613,155.823257 119.720009,154.357819 
	C122.137383,154.620483 124.709900,155.187210 127.722427,156.075592 
	C128.462234,156.312790 128.762039,156.228333 129.061829,156.143860 
	C129.492462,156.124466 129.923080,156.105087 130.910110,156.337463 
	C133.459015,156.049545 136.222916,156.154327 137.307526,154.856125 
	C141.508057,149.828415 145.173721,144.353836 149.038574,139.045670 
	C149.038574,139.045670 149.029984,139.028061 149.329498,139.021362 
	C150.093536,138.680511 150.558075,138.346375 151.022614,138.012238 
	C152.424149,137.674454 153.825699,137.336670 156.000244,136.995056 
	C162.792847,136.278381 168.080399,134.565598 169.991150,127.837334 
	C170.198441,127.107353 171.269928,126.622787 171.940567,126.024399 
	C173.130615,127.016273 174.320663,128.008148 175.724060,129.259766 
z"/>
<path fill="#A3293E" opacity="1.000000" stroke="none" 
	d="
M99.074921,158.768448 
	C91.175911,163.178864 82.728806,161.166046 79.461708,155.771515 
	C77.709152,152.877777 76.053719,149.816742 73.760269,147.393600 
	C71.947639,145.478439 69.347832,144.154785 66.881859,143.050003 
	C63.731720,141.638718 60.414604,140.528229 57.079105,139.619843 
	C52.378983,138.339828 50.799789,135.156921 50.901447,130.262558 
	C52.673237,128.231293 54.500629,126.609482 56.645866,124.867554 
	C56.162308,131.613449 60.937416,135.337524 68.269287,136.675171 
	C75.942329,138.075027 81.258133,141.666962 84.821709,148.507355 
	C87.554550,153.753113 91.451271,157.649323 98.739929,156.996429 
	C99.640831,157.265671 99.830086,157.505035 99.928864,157.815903 
	C99.682800,158.056259 99.436737,158.296600 99.074921,158.768448 
z"/>
<path fill="#B55866" opacity="1.000000" stroke="none" 
	d="
M170.970657,101.974037 
	C178.504913,91.639465 175.271103,87.876427 169.857590,80.735466 
	C165.681137,75.226326 163.334030,70.386185 164.570145,63.120708 
	C165.274185,58.982632 162.355316,54.228168 161.032104,49.390076 
	C166.203796,48.906738 170.212753,51.611076 169.714584,56.784676 
	C168.573486,68.635109 171.800934,78.463219 179.710373,87.289429 
	C182.648376,90.567963 181.368912,94.884300 178.856415,98.396271 
	C176.248001,102.042336 173.522858,105.604874 170.517365,109.037155 
	C170.447525,106.571594 170.709091,104.272820 170.970657,101.974037 
z"/>
<path fill="#B35563" opacity="1.000000" stroke="none" 
	d="
M170.666046,102.135132 
	C170.709091,104.272820 170.447525,106.571594 170.267853,109.280266 
	C170.244293,110.285896 170.138840,110.881645 169.767807,111.836601 
	C169.302246,112.488762 169.359009,112.739601 169.672562,112.948326 
	C169.716446,114.387894 169.760330,115.827469 169.522202,117.951859 
	C169.424866,120.073959 169.609558,121.511246 169.794250,122.948547 
	C170.404327,123.788803 171.014435,124.629059 171.782562,125.746857 
	C171.269928,126.622787 170.198441,127.107353 169.991150,127.837334 
	C168.080399,134.565598 162.792847,136.278381 156.363770,136.969238 
	C157.876923,135.494827 160.820786,134.413300 161.510864,132.513214 
	C162.973099,128.487061 164.034332,124.001068 163.853745,119.763573 
	C163.557343,112.808327 165.844620,107.243553 170.666046,102.135132 
z"/>
<path fill="#B85A68" opacity="1.000000" stroke="none" 
	d="
M156.161652,47.556358 
	C147.562592,46.527199 140.005127,43.860149 136.593292,34.329071 
	C135.665741,31.737928 132.069183,30.102215 129.329895,28.006035 
	C134.458633,25.616175 137.983398,28.716537 140.521805,32.792908 
	C144.432892,39.073635 148.602539,44.839203 156.161652,47.556358 
z"/>
<path fill="#C4364D" opacity="1.000000" stroke="none" 
	d="
M205.779633,154.748779 
	C201.798859,156.736084 197.709000,157.702377 192.360565,154.548309 
	C196.560852,154.118134 199.531219,153.813904 202.773666,153.196762 
	C203.918243,153.406464 204.790741,153.929092 205.779633,154.748779 
z"/>
<path fill="#B55866" opacity="1.000000" stroke="none" 
	d="
M169.896851,122.553360 
	C169.609558,121.511246 169.424866,120.073959 169.432983,118.375633 
	C169.750336,119.462456 169.874893,120.810326 169.896851,122.553360 
z"/>
<path fill="#B55866" opacity="1.000000" stroke="none" 
	d="
M169.761810,112.726585 
	C169.359009,112.739601 169.302246,112.488762 169.632675,112.115387 
	C169.763107,112.034950 169.851059,112.504845 169.761810,112.726585 
z"/>
<path fill="#FFC037" opacity="1.000000" stroke="none" 
	d="
M113.023972,134.815109 
	C96.125702,135.724869 77.704269,122.270210 72.323776,104.613541 
	C64.822647,79.997734 79.802551,54.875462 106.124756,49.249508 
	C108.043945,48.839314 110.108925,49.111237 112.568092,49.323235 
	C113.030060,49.580448 113.115440,50.014851 113.098724,50.387215 
	C113.096741,51.504524 113.111481,52.249470 113.101532,53.248058 
	C113.093376,53.670795 113.109917,53.839886 113.103333,54.476410 
	C113.099785,79.607384 113.119370,104.270920 113.102173,129.357361 
	C113.051582,131.458557 113.037773,133.136826 113.023972,134.815109 
z"/>
<path fill="#FCC03C" opacity="1.000000" stroke="none" 
	d="
M144.948929,63.006622 
	C148.014969,68.011612 151.936676,72.694809 153.965622,78.089828 
	C157.962997,88.719002 157.503510,99.661804 152.440460,109.964111 
	C150.593491,113.722336 147.533203,116.884277 144.552490,120.642929 
	C143.056335,119.124893 141.176514,117.295662 141.147308,115.437332 
	C140.907150,100.161423 140.852280,84.876648 141.185837,69.604263 
	C141.234451,67.378716 143.636093,65.204559 144.948929,63.006622 
z"/>
<path fill="#D8A432" opacity="1.000000" stroke="none" 
	d="
M113.447136,134.881760 
	C113.037773,133.136826 113.051582,131.458557 113.483063,129.273361 
	C114.267860,127.088959 114.950432,125.412285 114.954781,123.733856 
	C115.019150,98.874153 114.993576,74.014229 114.989304,49.154350 
	C116.819778,49.238831 118.650253,49.323311 120.790451,50.033264 
	C121.471657,51.948723 122.213417,53.260220 122.140015,54.524387 
	C121.970215,57.448807 121.067154,60.348866 121.054726,63.261333 
	C120.954124,86.827988 120.990677,110.395226 120.985397,133.962280 
	C118.613701,134.290985 116.242004,134.619705 113.447136,134.881760 
z"/>
<path fill="#F8BC3F" opacity="1.000000" stroke="none" 
	d="
M144.829346,62.689697 
	C143.636093,65.204559 141.234451,67.378716 141.185837,69.604263 
	C140.852280,84.876648 140.907150,100.161423 141.147308,115.437332 
	C141.176514,117.295662 143.056335,119.124893 144.455338,120.978104 
	C142.758636,122.908188 140.685104,124.827774 138.026520,126.628708 
	C136.627533,123.741455 135.092239,120.966980 135.114777,118.205223 
	C135.282532,97.660248 135.759308,77.117805 136.139099,56.574570 
	C138.995987,58.507301 141.852875,60.440033 144.829346,62.689697 
z"/>
<path fill="#E1AC36" opacity="1.000000" stroke="none" 
	d="
M121.353653,133.969879 
	C120.990677,110.395226 120.954124,86.827988 121.054726,63.261333 
	C121.067154,60.348866 121.970215,57.448807 122.140015,54.524387 
	C122.213417,53.260220 121.471657,51.948723 121.052826,50.316124 
	C122.556610,50.373634 124.107758,50.773746 125.851959,51.763206 
	C126.039383,52.564426 126.033745,52.776295 125.838882,53.260616 
	C125.766487,55.714680 125.982292,57.896175 125.984840,60.077919 
	C126.010170,81.726524 126.024841,103.375267 125.948265,125.023636 
	C125.942810,126.566177 125.194679,128.106094 124.784164,129.676727 
	C125.257072,130.191132 126.153366,131.166061 127.049652,132.141006 
	C125.273735,132.753159 123.497826,133.365326 121.353653,133.969879 
M124.587410,131.516647 
	C124.587410,131.516647 124.476341,131.582550 124.587410,131.516647 
z"/>
<path fill="#E9B43A" opacity="1.000000" stroke="none" 
	d="
M127.388290,132.127487 
	C126.153366,131.166061 125.257072,130.191132 124.784164,129.676727 
	C125.194679,128.106094 125.942810,126.566177 125.948265,125.023636 
	C126.024841,103.375267 126.010170,81.726524 125.984840,60.077919 
	C125.982292,57.896175 125.766487,55.714680 126.251724,53.264191 
	C127.965965,52.973614 129.078125,52.951912 130.190292,52.930210 
	C130.190292,52.930210 130.594864,52.915394 130.908112,53.179558 
	C131.432510,53.720348 131.707092,53.900066 132.045105,53.982880 
	C132.045105,53.982880 131.993210,53.987663 132.052643,54.322723 
	C133.095993,55.081753 134.079941,55.505718 135.063873,55.929688 
	C135.063873,55.929684 135.095123,55.944248 134.834106,56.226433 
	C131.892868,56.935120 130.658707,58.257782 130.934570,61.200745 
	C131.227463,64.325104 131.000595,67.498192 131.000610,70.650002 
	C131.000641,80.603088 130.534470,90.584251 131.131866,100.501350 
	C131.728119,110.399567 128.946487,120.247597 131.093826,130.106766 
	C131.093826,130.106766 131.079849,130.095566 130.834808,130.072220 
	C130.411026,130.377731 130.232300,130.706604 130.053589,131.035461 
	C129.278030,131.394974 128.502487,131.754471 127.388290,132.127487 
z"/>
<path fill="#F1B73D" opacity="1.000000" stroke="none" 
	d="
M131.466858,130.127029 
	C128.946487,120.247597 131.728119,110.399567 131.131866,100.501350 
	C130.534470,90.584251 131.000641,80.603088 131.000610,70.650002 
	C131.000595,67.498192 131.227463,64.325104 130.934570,61.200745 
	C130.658707,58.257782 131.892868,56.935120 134.850769,56.222050 
	C135.419907,55.948055 135.673111,56.052834 136.013611,56.412189 
	C135.759308,77.117805 135.282532,97.660248 135.114777,118.205223 
	C135.092239,120.966980 136.627533,123.741455 137.719666,126.758354 
	C135.945221,128.053543 133.892548,129.100418 131.466858,130.127029 
z"/>
<path fill="#CD9A25" opacity="1.000000" stroke="none" 
	d="
M114.740273,49.125149 
	C114.993576,74.014229 115.019150,98.874153 114.954781,123.733856 
	C114.950432,125.412285 114.267860,127.088959 113.519844,128.850464 
	C113.119370,104.270920 113.099785,79.607384 113.248550,54.379066 
	C113.469193,53.710125 113.593079,53.561832 113.560944,53.509712 
	C113.444321,53.320511 113.275406,53.163540 113.126221,52.994411 
	C113.111481,52.249470 113.096741,51.504524 113.284340,50.284630 
	C113.719505,49.632523 113.887672,49.407112 113.991165,49.133442 
	C114.157860,49.120941 114.324547,49.108444 114.740273,49.125149 
z"/>
<path fill="#B54E5D" opacity="1.000000" stroke="none" 
	d="
M148.645752,139.014130 
	C145.173721,144.353836 141.508057,149.828415 137.307526,154.856125 
	C136.222916,156.154327 133.459015,156.049545 131.233490,156.339264 
	C134.206787,151.720428 137.113388,147.078018 140.745667,143.097885 
	C142.565781,141.103439 145.708435,140.315933 148.645752,139.014130 
z"/>
<path fill="#C9324E" opacity="1.000000" stroke="none" 
	d="
M100.215607,157.698486 
	C99.830086,157.505035 99.640831,157.265671 99.154099,156.987030 
	C99.699272,156.374100 100.451431,155.871948 101.203583,155.369797 
	C100.969833,156.106888 100.736092,156.843964 100.215607,157.698486 
z"/>
<path fill="#F1B73D" opacity="1.000000" stroke="none" 
	d="
M134.921692,55.642246 
	C134.079941,55.505718 133.095993,55.081753 132.069809,54.303120 
	C132.944870,54.417236 133.862183,54.886021 134.921692,55.642246 
z"/>
<path fill="#B35563" opacity="1.000000" stroke="none" 
	d="
M150.854080,137.774368 
	C150.558075,138.346375 150.093536,138.680511 149.326797,139.022461 
	C149.578247,138.532364 150.131897,138.034439 150.854080,137.774368 
z"/>
<path fill="#F1B73D" opacity="1.000000" stroke="none" 
	d="
M129.921982,52.676445 
	C129.078125,52.951912 127.965965,52.973614 126.440964,52.991737 
	C126.033745,52.776295 126.039383,52.564426 126.075226,52.033371 
	C127.288170,51.950352 128.470917,52.186516 129.921982,52.676445 
z"/>
<path fill="#F1B73D" opacity="1.000000" stroke="none" 
	d="
M130.278854,130.940018 
	C130.232300,130.706604 130.411026,130.377731 130.830109,130.065903 
	C131.007660,130.430481 130.818878,130.684357 130.278854,130.940018 
z"/>
<path fill="#F1B73D" opacity="1.000000" stroke="none" 
	d="
M131.928650,53.760605 
	C131.707092,53.900066 131.432510,53.720348 131.106049,53.221951 
	C131.264557,53.179565 131.538361,53.358948 131.928650,53.760605 
z"/>
<path fill="#D8A432" opacity="1.000000" stroke="none" 
	d="
M113.739418,49.104362 
	C113.887672,49.407112 113.719505,49.632523 113.301056,49.912262 
	C113.115440,50.014851 113.030060,49.580448 113.007645,49.361233 
	C113.152710,49.119778 113.320190,49.097534 113.739418,49.104362 
z"/>
<path fill="#B54E5D" opacity="1.000000" stroke="none" 
	d="
M128.788834,156.107971 
	C128.762039,156.228333 128.462234,156.312790 128.063828,156.239166 
	C128.148758,156.078079 128.332291,156.075073 128.788834,156.107971 
z"/>
<path fill="#D8A432" opacity="1.000000" stroke="none" 
	d="
M113.101532,53.248058 
	C113.275406,53.163540 113.444321,53.320511 113.560944,53.509712 
	C113.593079,53.561832 113.469193,53.710125 113.271683,53.911633 
	C113.109917,53.839886 113.093376,53.670795 113.101532,53.248058 
z"/>
<path fill="#D8A432" opacity="1.000000" stroke="none" 
	d="
M124.531876,131.549591 
	C124.476341,131.582550 124.587410,131.516647 124.531876,131.549591 
z"/>
</svg>